<?xml version="1.0" encoding="UTF-8"?>
<svg version="1.1" xmlns="http://www.w3.org/2000/svg" width="600" height="600">
<path d="M0 0 C198 0 396 0 600 0 C600 198 600 396 600 600 C402 600 204 600 0 600 C0 402 0 204 0 0 Z " fill="#FEFEFE" transform="translate(0,0)"/>
<path d="M0 0 C21.06769118 -0.63865283 39.6666199 4.88816942 55.5234375 19.15625 C56.72890354 20.11818755 57.9368229 21.07706853 59.1484375 22.03125 C59.9321875 22.7325 60.7159375 23.43375 61.5234375 24.15625 C61.5234375 24.81625 61.5234375 25.47625 61.5234375 26.15625 C62.5134375 26.48625 63.5034375 26.81625 64.5234375 27.15625 C66.11616436 29.3180174 67.55388867 31.4414911 68.9609375 33.71875 C69.36344727 34.36207275 69.76595703 35.00539551 70.18066406 35.66821289 C72.90367128 40.06175286 75.53848252 44.3735352 77.5234375 49.15625 C77.966875 50.11402344 78.4103125 51.07179688 78.8671875 52.05859375 C85.78923099 69.15219559 84.62218967 89.33261769 77.5234375 106.15625 C77.04003906 107.43242187 77.04003906 107.43242187 76.546875 108.734375 C75.65272038 110.95809867 74.64785273 113.040163 73.5234375 115.15625 C73.0903125 115.97867188 72.6571875 116.80109375 72.2109375 117.6484375 C62.01857886 135.23025615 45.68174683 147.0181509 26.5234375 153.15625 C25.54375 153.4759375 24.5640625 153.795625 23.5546875 154.125 C8.79344426 158.23379966 -7.20657158 157.57884655 -21.4765625 152.15625 C-22.4871875 151.805625 -23.4978125 151.455 -24.5390625 151.09375 C-41.83512175 144.60772778 -57.68553435 130.96729263 -65.42578125 114.0625 C-70.6370203 101.98591522 -74.05443146 90.7429437 -73.9765625 77.46875 C-73.97084229 76.32897705 -73.96512207 75.1892041 -73.95922852 74.01489258 C-73.4968314 52.04869431 -62.95039209 34.14830832 -47.4140625 19.03125 C-33.9468963 7.21926624 -17.88543737 0.80383988 0 0 Z " fill="#476275" transform="translate(487.4765625,221.84375)"/>
<path d="M0 0 C4.38446413 3.61892277 6.1762629 8.18076727 8.4375 13.25 C11.53883838 20.16739928 11.53883838 20.16739928 15.3359375 26.71484375 C18.75602151 32.00973341 21.43806905 37.69129289 24.21624756 43.33901978 C25.87015175 46.69957474 27.53863015 50.05287444 29.20703125 53.40625 C29.69967468 54.39713371 29.69967468 54.39713371 30.20227051 55.40803528 C34.32380181 63.68182951 38.64371851 71.84796029 43 80 C44.16757556 82.18895888 45.33411337 84.37845349 46.49853516 86.5690918 C47.19922048 87.88678719 47.90169527 89.20353461 48.60693359 90.51879883 C51.05629627 95.11871876 53.39233925 99.77255986 55.71484375 104.4375 C58.58773605 110.20667624 61.50318699 115.9516583 64.46484375 121.67578125 C64.83327393 122.38808395 65.2017041 123.10038666 65.58129883 123.83427429 C67.08615233 126.7415329 68.59253962 129.64798976 70.10083008 132.5534668 C71.22404821 134.71827039 72.34461724 136.88442845 73.46484375 139.05078125 C73.80644028 139.70693924 74.1480368 140.36309723 74.49998474 141.03913879 C75.86001493 143.67228215 77.06088692 146.18266077 78 149 C68.32153574 149.64217298 58.70618661 150.16831537 49 150 C39 131.14893617 39 131.14893617 39 125 C14.58 125 -9.84 125 -35 125 C-35.99 127.97 -36.98 130.94 -38 134 C-38.58061084 135.47077506 -39.18089441 136.93446102 -39.82421875 138.37890625 C-40.13037109 139.07177734 -40.43652344 139.76464844 -40.75195312 140.47851562 C-41.06068359 141.16623047 -41.36941406 141.85394531 -41.6875 142.5625 C-42.00783203 143.28501953 -42.32816406 144.00753906 -42.65820312 144.75195312 C-43.43512943 146.50293629 -44.21702495 148.25171324 -45 150 C-48.87498404 150.02917234 -52.74993958 150.04685673 -56.625 150.0625 C-57.71941406 150.07087891 -58.81382813 150.07925781 -59.94140625 150.08789062 C-61.53662109 150.09272461 -61.53662109 150.09272461 -63.1640625 150.09765625 C-64.13811035 150.10289307 -65.1121582 150.10812988 -66.11572266 150.11352539 C-69.14875321 149.99414506 -72.01915268 149.55866724 -75 149 C-74.49561998 143.25923829 -72.16498326 139.07364919 -69.4375 134.125 C-68.52070951 132.42524748 -67.60536579 130.7247139 -66.69140625 129.0234375 C-66.23523926 128.17749023 -65.77907227 127.33154297 -65.30908203 126.45996094 C-63.42745582 122.92410385 -61.64538087 119.34250378 -59.875 115.75 C-57.02208038 109.98414442 -54.04611541 104.29794017 -50.99511719 98.63476562 C-48.6222433 94.21248654 -46.35151274 89.74755573 -44.125 85.25 C-40.81109951 78.55644702 -37.36817357 71.93818492 -33.85205078 65.34863281 C-31.23631477 60.42424929 -28.71636044 55.4558399 -26.23046875 50.46484375 C-22.35020179 42.67446825 -18.39595024 34.92395297 -14.40795898 27.18823242 C-13.30080425 25.03980445 -12.19624493 22.8900548 -11.09179688 20.74023438 C-7.50214215 13.76494062 -3.89003602 6.81437623 0 0 Z " fill="#476274" transform="translate(105,227)"/>
<path d="M0 0 C1.36898437 0.70382813 1.36898437 0.70382813 2.765625 1.421875 C14.35508701 7.87588678 22.41701299 18.19237505 27 30.6875 C30.72848837 45.65019189 27.88978193 60.62409712 20.3125 73.8125 C12.79987601 85.3170718 1.66284356 93.30890777 -11.7890625 96.52734375 C-27.6308328 98.85928317 -41.85029336 96.61794421 -55 87 C-64.61151328 78.88170396 -72.92118452 67.32202505 -74.25878906 54.52392578 C-74.41784815 51.78240733 -74.48499711 49.05851273 -74.5 46.3125 C-74.50628418 45.44592773 -74.51256836 44.57935547 -74.51904297 43.68652344 C-74.26502969 30.68992186 -69.21119184 19.070726 -60.25 9.6875 C-43.87948592 -5.73010356 -20.33213637 -10.67156329 0 0 Z " fill="#FDFDFE" transform="translate(515,254)"/>
<path d="M0 0 C8.25 0 16.5 0 25 0 C25.91400319 4.57001595 26.33160558 8.93332479 26.5546875 13.56640625 C26.59673309 14.43157364 26.63877869 15.29674103 26.68209839 16.18812561 C27.1629269 27.21490496 27.14960274 38.24574181 27.13037109 49.28100586 C27.12501261 52.92891605 27.13035028 56.57670289 27.13671875 60.22460938 C27.14032927 71.03203671 27.06701567 81.82385049 26.56640625 92.62109375 C26.52923492 93.42989487 26.4920636 94.23869598 26.45376587 95.07200623 C25.41547309 114.68701243 21.9670314 129.13999755 7 143 C-6.45061817 153.06707758 -20.66602613 155.2041933 -37 154 C-44.94185016 152.47413527 -52.82770266 148.19292913 -59 143 C-60.00605417 140.55456402 -60.18571601 139.46510728 -59.19555664 136.98535156 C-58.77137451 136.2940918 -58.34719238 135.60283203 -57.91015625 134.890625 C-57.45576172 134.13652344 -57.00136719 133.38242187 -56.53320312 132.60546875 C-56.04787109 131.82816406 -55.56253906 131.05085937 -55.0625 130.25 C-54.58103516 129.45722656 -54.09957031 128.66445313 -53.60351562 127.84765625 C-52.41325613 125.89138817 -51.21193009 123.94289028 -50 122 C-45.2265625 122.875 -45.2265625 122.875 -43.1875 124 C-39.89043511 125.50722966 -36.5709541 125.7499169 -33 126 C-32.06414062 126.06574219 -31.12828125 126.13148438 -30.1640625 126.19921875 C-22.32945882 126.49125411 -15.43872918 125.60646746 -9.1875 120.52734375 C-2.21914568 113.15830906 -0.40193392 104.03531489 -0.45410156 94.22607422 C-0.44376389 93.20048904 -0.43342621 92.17490387 -0.42277527 91.11824036 C-0.39352357 87.76355911 -0.3918518 84.40948583 -0.390625 81.0546875 C-0.3756315 78.71484234 -0.3589019 76.37500772 -0.34051514 74.03518677 C-0.29696124 67.90323378 -0.27686891 61.77142355 -0.26177979 55.63934326 C-0.24216564 49.3714559 -0.20020044 43.10372174 -0.16015625 36.8359375 C-0.08498342 24.55731312 -0.03668145 12.27879977 0 0 Z " fill="#466275" transform="translate(265,223)"/>
<path d="M0 0 C7.92 0 15.84 0 24 0 C24 51.48 24 102.96 24 156 C16.08 156 8.16 156 0 156 C0 104.52 0 53.04 0 0 Z " fill="#466174" transform="translate(345,222)"/>
<path d="M0 0 C3.32668972 2.765678 4.9671086 6.47566812 6.87109375 10.265625 C7.23469498 10.97724792 7.5982962 11.68887085 7.97291565 12.42205811 C9.1332535 14.69529818 10.28570654 16.97242054 11.4375 19.25 C12.5871271 21.51255113 13.73841722 23.77423838 14.89137268 26.03509521 C15.60711646 27.43975189 16.3207437 28.84548988 17.03184509 30.25250244 C18.6809161 33.49941968 20.38468025 36.67152915 22.25024414 39.79980469 C24 43 24 43 24 46 C9.81 46 -4.38 46 -19 46 C-17.12487032 40.37461097 -15.32149107 35.18163778 -12.96875 29.8046875 C-12.69156128 29.1681424 -12.41437256 28.53159729 -12.12878418 27.87576294 C-11.25613426 25.87390795 -10.37822864 23.87441286 -9.5 21.875 C-8.91239954 20.53010553 -8.32515756 19.18505438 -7.73828125 17.83984375 C-6.65652896 15.36082175 -5.57234015 12.88292632 -4.48632812 10.40576172 C-2.97537352 6.94357106 -1.48436371 3.47365442 0 0 Z " fill="#F5F9FA" transform="translate(104,280)"/>
<path d="M0 0 C2.42999536 2.27364177 3.42805835 3.68273845 4 7 C3.236875 7.061875 2.47375 7.12375 1.6875 7.1875 C-1.23051809 7.76935262 -1.23051809 7.76935262 -2.8125 10.5625 C-3.204375 11.366875 -3.59625 12.17125 -4 13 C-4.33 12.34 -4.66 11.68 -5 11 C-4.00390625 8.3984375 -4.00390625 8.3984375 -2.5625 5.375 C-2.08941406 4.37210937 -1.61632812 3.36921875 -1.12890625 2.3359375 C-0.75636719 1.56507813 -0.38382812 0.79421875 0 0 Z " fill="#DEE8EE" transform="translate(104,280)"/>
<path d="M0 0 C0.99 0.33 1.98 0.66 3 1 C0.03 4.96 0.03 4.96 -3 9 C-4.32 8.67 -5.64 8.34 -7 8 C-4.69 5.36 -2.38 2.72 0 0 Z " fill="#526879" transform="translate(435,246)"/>
<path d="M0 0 C0.66 0.33 1.32 0.66 2 1 C-0.10148204 4.98175544 -2.36905358 7.35039045 -6 10 C-6.66 9.67 -7.32 9.34 -8 9 C-5.36 6.03 -2.72 3.06 0 0 Z " fill="#DCE8EE" transform="translate(555,345)"/>
<path d="M0 0 C0.66 0.66 1.32 1.32 2 2 C1.9375 3.875 1.9375 3.875 1 6 C-1.5625 8.25 -1.5625 8.25 -4 10 C-4.66 9.67 -5.32 9.34 -6 9 C-5.071875 7.88625 -5.071875 7.88625 -4.125 6.75 C-2.39562719 4.51198812 -1.13893339 2.56260013 0 0 Z " fill="#5B707C" transform="translate(262,334)"/>
<path d="M0 0 C0.66 0.99 1.32 1.98 2 3 C1.34 3 0.68 3 0 3 C0 5.31 0 7.62 0 10 C-0.99 9.34 -1.98 8.68 -3 8 C-2.45276317 4.62537285 -1.9451 2.91765 0 0 Z " fill="#6A7C86" transform="translate(208,357)"/>
<path d="M0 0 C0.33 0 0.66 0 1 0 C1.3636198 4.24223102 0.5393228 6.58168085 -2 10 C-2.66 10 -3.32 10 -4 10 C-2.8905928 6.51329166 -1.73662334 3.22515763 0 0 Z " fill="#627583" transform="translate(38,356)"/>
</svg>
