<?xml version="1.0" encoding="UTF-8"?>
<svg version="1.1" xmlns="http://www.w3.org/2000/svg" width="860" height="860">
<path d="M0 0 C3.45051798 0.00315804 6.90017302 -0.02040618 10.35058594 -0.0456543 C25.67250311 -0.08931677 40.56432067 1.06834889 55.71777344 3.31567383 C56.41620361 3.41800323 57.11463379 3.52033264 57.83422852 3.62576294 C61.43891811 4.16590516 65.01702378 4.79760986 68.59277344 5.50317383 C70.17167358 5.81291138 70.17167358 5.81291138 71.7824707 6.12890625 C91.1060297 10.09692054 109.83726537 15.98413556 127.71777344 24.31567383 C128.39807617 24.6244043 129.07837891 24.93313477 129.77929688 25.2512207 C157.39904555 37.85531248 181.35313429 57.69042494 197.71777344 83.31567383 C198.32105469 84.23348633 198.92433594 85.15129883 199.54589844 86.09692383 C229.15415121 133.57682467 223.9025152 196.24191032 223.76237297 249.69023705 C223.74371717 256.82736615 223.73438898 263.96449078 223.72645569 271.10163879 C223.70256698 291.36839984 223.66638833 311.63512979 223.62182617 331.90185547 C223.59715826 343.15777673 223.57987354 354.41368643 223.57026678 365.66963083 C223.56379483 372.7410898 223.54839304 379.8124508 223.52594936 386.8838762 C223.51409304 391.2989436 223.51084488 395.71398835 223.50985146 400.12907028 C223.50773266 402.15007387 223.50224293 404.17107773 223.49282074 406.19206047 C223.31836088 445.16694075 230.23774657 476.82983504 253.71777344 508.31567383 C255.4371996 510.62791783 257.15216081 512.94308839 258.85766602 515.265625 C259.98098544 516.79515393 261.11187525 518.31916366 262.25170898 519.83642578 C267.05152732 526.36965576 271.30880532 533.0884987 271.21777344 541.44067383 C271.22808594 542.39200195 271.23839844 543.34333008 271.24902344 544.32348633 C269.96193091 551.57284573 265.63073888 555.75882911 260.15527344 560.19067383 C259.5368457 560.70605713 258.91841797 561.22144043 258.28125 561.75244141 C256.4361986 563.28546905 254.57951288 564.80297873 252.71777344 566.31567383 C251.72390625 567.12649414 250.73003906 567.93731445 249.70605469 568.77270508 C247.90404097 570.24053651 246.10069017 571.70672823 244.29589844 573.17114258 C240.84994473 576.03754952 237.55301379 579.05420865 234.24121094 582.07348633 C231.66694985 584.36083286 229.02487854 586.53115654 226.34277344 588.69067383 C221.78756205 592.37333768 217.47864788 596.24593685 213.19433594 600.23364258 C210.00488833 603.18470364 206.73430551 605.975459 203.34277344 608.69067383 C198.91424344 612.23860276 194.81799794 616.02770718 190.71777344 619.94067383 C181.62550277 628.56383459 173.58160668 634.71552974 160.70996094 634.51489258 C151.89182716 633.92778445 146.82834717 628.0570873 140.71777344 622.31567383 C139.47270953 621.24739384 138.22299739 620.1844972 136.96777344 619.12817383 C118.4274314 602.82610246 99.79594787 581.47202268 88.71777344 559.31567383 C85.40132028 560.75574308 83.2805992 562.54022581 80.77636719 565.13208008 C79.66225464 566.27169189 79.66225464 566.27169189 78.52563477 567.43432617 C77.74341553 568.2407959 76.96119629 569.04726563 76.15527344 569.87817383 C69.61739447 576.51295362 63.0856571 582.61421051 55.71777344 588.31567383 C54.58089305 589.24981788 53.4469733 590.18757232 52.31542969 591.12817383 C3.6662017 631.34824063 -57.32702353 643.11722181 -119.20019531 637.81567383 C-161.81946792 633.20912666 -201.27842413 614.23765231 -228.54589844 580.7644043 C-259.86083379 541.30318896 -267.3279687 487.09909286 -262.45751953 438.24633789 C-258.10741756 400.85770908 -244.6191585 363.67203288 -219.28222656 335.31567383 C-218.44304687 334.35661133 -217.60386719 333.39754883 -216.73925781 332.40942383 C-202.40724854 316.23715839 -186.02594282 303.08792455 -167.28222656 292.31567383 C-166.38358887 291.79457031 -166.38358887 291.79457031 -165.46679688 291.26293945 C-134.98193149 273.7667313 -100.55554319 264.88807328 -66.28222656 258.31567383 C-65.62353577 258.18932556 -64.96484497 258.06297729 -64.28619385 257.93280029 C-40.13575361 253.35498226 -15.69706815 250.76627464 8.71777344 248.06567383 C9.89649521 247.93528654 9.89649521 247.93528654 11.09902954 247.80226517 C29.28921749 245.79406894 47.48233234 243.87175154 65.71777344 242.31567383 C65.62275789 236.1122403 65.51638041 229.90913156 65.40039062 223.70605469 C65.36259203 221.604869 65.3276634 219.50362931 65.29589844 217.40234375 C64.90676713 175.82556061 64.90676713 175.82556061 45.02636719 140.49145508 C27.79094989 124.24758463 6.98008701 119.74637307 -16.10253906 120.03833008 C-38.52466747 120.73967583 -60.88640019 128.89411694 -77.42285156 144.33520508 C-88.93421384 156.59625691 -94.8805902 170.44868322 -99.15405273 186.4387207 C-100.96945981 193.04788549 -103.48545365 198.1976061 -108.90722656 202.62817383 C-109.49761719 203.11930664 -110.08800781 203.61043945 -110.69628906 204.11645508 C-119.34911278 210.6593538 -139.40045203 205.14213918 -149.41503906 204.08520508 C-150.51687405 203.97008764 -151.61870903 203.85497021 -152.75393295 203.73636436 C-158.575801 203.1280438 -164.3968492 202.5124939 -170.21728516 201.890625 C-176.20483744 201.25224327 -182.19459723 200.63785685 -188.18521309 200.02899647 C-192.81762664 199.55388087 -197.44806808 199.06132454 -202.0781517 198.56406212 C-204.28532675 198.33000434 -206.49319345 198.10237087 -208.70172501 197.88147926 C-211.79480192 197.57041781 -214.88428797 197.23466848 -217.97412109 196.89306641 C-218.87309113 196.80818466 -219.77206116 196.72330292 -220.69827271 196.635849 C-228.30460955 195.75093474 -236.03527178 193.24154011 -241.28222656 187.37817383 C-246.39256468 179.55296858 -245.63396383 172.76104358 -243.76611328 163.85473633 C-231.75970296 111.04566461 -201.95211846 67.92171452 -156.12597656 38.97143555 C-109.58498195 10.40638979 -53.977274 -0.1027776 0 0 Z M-76.18066406 375.20629883 C-96.25595382 396.82584164 -100.09419259 425.9509366 -99.4140625 454.25610352 C-98.68733093 471.12165903 -93.40278175 487.72769074 -83.28222656 501.31567383 C-82.71117187 502.09297852 -82.14011719 502.8702832 -81.55175781 503.67114258 C-71.62418087 515.96948416 -56.70281079 522.80476581 -41.30175781 524.99926758 C-19.30323168 527.30441715 1.40809001 520.29351643 18.62744141 506.56079102 C46.62060757 483.35582078 60.8729667 447.35804271 64.27294922 411.83813477 C65.75646111 394.76912196 65.95688955 377.81455066 65.84277344 360.69067383 C65.83152658 358.01489856 65.82344639 355.33911672 65.81542969 352.66333008 C65.79375916 346.21402731 65.76059394 339.76486914 65.71777344 333.31567383 C15.04894154 332.51300749 -38.54383132 337.72435017 -76.18066406 375.20629883 Z " fill="#000000" transform="translate(440.2822265625,-0.315673828125)"/>
<path d="M0 0 C3.52017363 1.43163025 6.61808225 3.39218118 9.8125 5.4375 C10.75335449 6.01588623 11.69420898 6.59427246 12.66357422 7.19018555 C14.70827446 8.4484754 16.74781821 9.71517455 18.78271484 10.98925781 C23.78483304 14.11548679 28.82455176 17.17980522 33.86538696 20.24304199 C35.04394013 20.9593433 36.22213947 21.67622706 37.3999939 22.39367676 C90.72805894 54.8681023 146.0851396 83.18275467 205 104 C206.17643066 104.41733398 207.35286133 104.83466797 208.56494141 105.26464844 C261.28079543 123.71017237 318.96145134 134.99723603 374.91796875 135.203125 C376.20203613 135.21013931 377.48610352 135.21715363 378.80908203 135.22438049 C382.93522641 135.24378814 387.06131458 135.2488156 391.1875 135.25 C391.89165165 135.25044186 392.5958033 135.25088371 393.32129288 135.25133896 C414.65288461 135.25835504 435.79272984 134.93329884 456.98382568 132.25323486 C459.10494263 131.98681903 461.22729682 131.73260966 463.35009766 131.47998047 C545.69247567 121.58283387 623.96348929 94.89935591 699.15234375 60.62646484 C704.92719148 57.9977481 709.58511614 56.27473048 716 57 C720.56944444 59.13888889 720.56944444 59.13888889 722 62 C723.11138488 69.36689407 721.1009877 74.91983998 717 81 C705.58075248 95.10390505 691.49191566 106.24874886 677 117 C676.27506348 117.54446777 675.55012695 118.08893555 674.80322266 118.64990234 C663.32552582 127.26137389 651.43332953 134.84572717 639 142 C638.29633301 142.40702148 637.59266602 142.81404297 636.86767578 143.23339844 C632.27678161 145.88118028 627.6490851 148.45603489 623 151 C622.29649414 151.38865234 621.59298828 151.77730469 620.86816406 152.17773438 C538.85807074 197.30690403 438.38632517 216.41833171 259.28125 191.1875 C226.1925779 181.34647252 194.81636304 168.44506526 164 153 C163.04158203 152.52208008 162.08316406 152.04416016 161.09570312 151.55175781 C139.85338969 140.89992628 119.54243844 128.50519644 100 115 C99.29472168 114.51466797 98.58944336 114.02933594 97.86279297 113.52929688 C60.92080331 88.03352952 21.23599776 57.90016841 -6.3359375 22.14453125 C-7.80043032 20.25719191 -9.34452932 18.59058554 -11 16.875 C-13.67627281 13.02785784 -14.5498536 9.67375564 -14 5 C-10.49816252 -0.71966788 -6.16148765 -0.98576576 0 0 Z " fill="#FE9901" transform="translate(36,635)"/>
<path d="M0 0 C5.1002505 6.1896244 2.62182588 20.00085776 2.20703125 27.46484375 C-1.77037103 67.33454286 -19.02284119 106.66935763 -46.79296875 135.46484375 C-47.46585938 136.18929687 -48.13875 136.91375 -48.83203125 137.66015625 C-52.15547419 141.1592878 -55.11529664 143.90561971 -59.79296875 145.46484375 C-63.66796875 145.15234375 -63.66796875 145.15234375 -66.79296875 144.46484375 C-67.98893722 138.86574043 -67.50221194 135.57277608 -65.36328125 130.29296875 C-65.09756317 129.62148804 -64.83184509 128.95000732 -64.55807495 128.25817871 C-63.98747018 126.81930723 -63.40996159 125.38315759 -62.82617188 123.94958496 C-61.28054582 120.14638923 -59.79418326 116.32002725 -58.30078125 112.49609375 C-57.99948303 111.72819519 -57.69818481 110.96029663 -57.38775635 110.16912842 C-40.72702769 71.18234562 -40.72702769 71.18234562 -41.79296875 30.46484375 C-45.32056777 27.13287187 -48.53664287 25.62493857 -53.16796875 24.27734375 C-54.24820313 23.95378906 -55.3284375 23.63023437 -56.44140625 23.296875 C-64.59185154 21.27351271 -72.69451963 21.18673287 -81.04296875 21.15234375 C-81.74250671 21.148396 -82.44204468 21.14444824 -83.16278076 21.14038086 C-98.15092743 21.10174837 -112.96371863 22.45213 -127.85644531 24.04174805 C-137.82621642 25.09510458 -147.75630501 26.09800207 -157.79296875 25.46484375 C-158.79296875 24.46484375 -158.79296875 24.46484375 -159.16796875 21.77734375 C-158.68787285 17.53649661 -156.72384513 15.37384066 -153.79296875 12.46484375 C-121.07214822 -11.1444177 -33.64487789 -30.86160332 0 0 Z " fill="#FD9902" transform="translate(838.79296875,639.53515625)"/>
<path d="M0 0 C3.63 1.65 7.26 3.3 11 5 C11 5.33 11 5.66 11 6 C9.02 6 7.04 6 5 6 C4.67 5.34 4.34 4.68 4 4 C1.97536745 3.34786708 1.97536745 3.34786708 0 3 C0 2.01 0 1.02 0 0 Z " fill="#EE9B20" transform="translate(135,693)"/>
<path d="M0 0 C3.96 0 7.92 0 12 0 C7.60171741 2.1991413 4.81449408 2.51855059 0 3 C0 2.01 0 1.02 0 0 Z " fill="#E1A410" transform="translate(532,829)"/>
<path d="M0 0 C2.31 0.33 4.62 0.66 7 1 C6.34 2.32 5.68 3.64 5 5 C2.5 3.625 2.5 3.625 0 2 C0 1.34 0 0.68 0 0 Z " fill="#F8A00B" transform="translate(137,749)"/>
<path d="M0 0 C1.65 0 3.3 0 5 0 C4.01 1.98 3.02 3.96 2 6 C1.67 5.01 1.34 4.02 1 3 C0.34 3 -0.32 3 -1 3 C-0.67 2.01 -0.34 1.02 0 0 Z " fill="#F39A19" transform="translate(812,741)"/>
<path d="M0 0 C4.455 0.99 4.455 0.99 9 2 C8.01 2.66 7.02 3.32 6 4 C3.375 3.25 3.375 3.25 1 2 C0.67 1.34 0.34 0.68 0 0 Z " fill="#EF9A21" transform="translate(822,632)"/>
</svg>
