<?xml version="1.0" encoding="UTF-8"?>
<svg version="1.1" xmlns="http://www.w3.org/2000/svg" width="860" height="860">
<path d="M0 0 C1.18819336 0.17692383 2.37638672 0.35384766 3.60058594 0.53613281 C46.88055536 7.08753211 88.70959797 19.62951237 128 39 C128.93424805 39.46019531 129.86849609 39.92039063 130.83105469 40.39453125 C162.61011809 56.20999916 191.30932078 76.72245112 218 100 C219.31484375 101.1446875 219.31484375 101.1446875 220.65625 102.3125 C222.4410415 103.87105032 224.22293625 105.43265185 226 107 C225.42308747 110.13440333 224.60867612 111.76285719 222.33984375 113.98828125 C221.79263672 114.53033203 221.24542969 115.07238281 220.68164062 115.63085938 C220.10607422 116.18580078 219.53050781 116.74074219 218.9375 117.3125 C218.38900391 117.85583984 217.84050781 118.39917969 217.27539062 118.95898438 C214.3601412 121.82018514 211.3730191 124.56124399 208.27172852 127.21948242 C204.01728331 130.93075367 200.02883299 134.86007271 196.0625 138.875 C195.33812744 139.60315918 194.61375488 140.33131836 193.86743164 141.08154297 C191.57581697 143.38525646 189.28749348 145.69219474 187 148 C183.98214919 151.04464779 180.96086584 154.08582967 177.9375 157.125 C176.92151733 158.15343018 176.92151733 158.15343018 175.88500977 159.20263672 C172.05328824 163.05370322 168.10613951 166.68272738 163.99389648 170.23095703 C160.53691423 173.29809226 157.30926935 176.58845222 154.0625 179.875 C153.33812744 180.60315918 152.61375488 181.33131836 151.86743164 182.08154297 C149.57581697 184.38525646 147.28749348 186.69219474 145 189 C141.98214919 192.04464779 138.96086584 195.08582967 135.9375 198.125 C134.92151733 199.15343018 134.92151733 199.15343018 133.88500977 200.20263672 C129.97204552 204.13535611 125.94404711 207.86061717 121.74316406 211.48391724 C119.80585947 213.16884992 117.96291954 214.92205239 116.15625 216.74609375 C115.24746094 217.6597168 115.24746094 217.6597168 114.3203125 218.59179688 C113.71960938 219.20087891 113.11890625 219.80996094 112.5 220.4375 C111.86835937 221.07365234 111.23671875 221.70980469 110.5859375 222.36523438 C109.05494226 223.90782806 107.52712333 225.45357314 106 227 C102.05895715 225.16042511 99.14439177 222.5751766 95.9375 219.6875 C82.9491969 208.30666016 68.32424853 198.91579097 53 191 C52.22495117 190.5968457 51.44990234 190.19369141 50.65136719 189.77832031 C-8.14188987 159.55705306 -77.24683994 156.75069613 -139.78515625 176.48828125 C-173.69559687 187.59699101 -204.34972992 205.81457853 -230.64453125 229.8671875 C-232.66311204 231.69495717 -234.72228353 233.44346194 -236.8125 235.1875 C-283.97022191 276.45050667 -312.12992938 342.8578347 -316.7890625 404.33544922 C-320.75975793 473.31709088 -300.72347016 544.11354739 -254.56494141 596.6328125 C-252.23459433 599.22888028 -249.8677981 601.78837337 -247.48046875 604.33203125 C-245.43719384 606.52975844 -243.48851198 608.76341064 -241.5625 611.0625 C-202.17166294 656.10708073 -137.35404742 682.66894596 -78.68359375 686.72265625 C-29.24446034 689.45039268 21.08813193 681.65169496 65 658 C65.66338379 657.64824707 66.32676758 657.29649414 67.01025391 656.93408203 C82.06024912 648.921103 95.18471449 639.19863977 108 628 C108.84691406 627.27683594 109.69382812 626.55367187 110.56640625 625.80859375 C115.51279799 621.53176434 119.80008185 617.0007139 124 612 C125.21623047 610.63294922 125.21623047 610.63294922 126.45703125 609.23828125 C145.52846132 587.64876944 159.41977963 561.77765784 168.25 534.4375 C168.47204102 533.7556665 168.69408203 533.07383301 168.92285156 532.37133789 C171.49956469 524.0143007 173.09037259 515.59332334 175 507 C97.12 507 19.24 507 -61 507 C-61 454.2 -61 401.4 -61 347 C71.99 347 204.98 347 342 347 C344.20297046 353.60891137 345.35442172 360.02235901 346.5 366.875 C346.71269531 368.07769531 346.92539062 369.28039062 347.14453125 370.51953125 C350.70189087 391.66727034 351.37931147 412.90500646 351.3125 434.3125 C351.30976578 436.14276733 351.30976578 436.14276733 351.30697632 438.01000977 C351.25654633 458.15177808 350.55658443 478.01623957 348 498 C347.91514343 498.66507568 347.83028687 499.33015137 347.74285889 500.01538086 C337.6539971 578.20581653 308.88220544 656.3099328 256.5 716.22900391 C255.34589935 717.59160907 254.22109272 718.97906553 253.109375 720.37646484 C247.54258003 727.35886658 241.57397127 733.73652171 235.24414062 740.01660156 C233.62653713 741.62347307 232.01993087 743.24078494 230.4140625 744.859375 C223.91930148 751.36238385 217.20568589 757.28426786 210 763 C208.97231118 763.86322305 207.94890597 764.7316282 206.93359375 765.609375 C134.80747004 827.4640163 37.59987559 853.75405241 -93.65380859 853.734375 C-183.69544978 846.57344395 -267.63255461 811.81556886 -337 754 C-337.50236176 753.58305374 -338.00472351 753.16610748 -338.52230835 752.73652649 C-347.41818385 745.3289142 -355.79541796 737.52122739 -363.9519043 729.30883789 C-365.82183141 727.42811472 -367.70232638 725.55843181 -369.58398438 723.68945312 C-376.51819114 716.76281708 -382.9189182 709.6943804 -389 702 C-389.93437438 700.89782824 -390.87576769 699.80151464 -391.828125 698.71484375 C-407.2281615 681.05447931 -420.26326133 661.24738408 -432 641 C-432.38091797 640.34789551 -432.76183594 639.69579102 -433.15429688 639.02392578 C-445.94754974 617.00824895 -456.42372268 593.96048711 -465 570 C-465.32693848 569.09088867 -465.65387695 568.18177734 -465.99072266 567.24511719 C-497.0914903 479.83815558 -497.20033195 384.33644573 -470 296 C-469.56518311 294.5778418 -469.56518311 294.5778418 -469.12158203 293.12695312 C-459.40889067 261.71521339 -445.22212707 231.0036084 -428 203 C-427.52353027 202.2147998 -427.04706055 201.42959961 -426.55615234 200.62060547 C-420.04716999 189.9167073 -413.08670469 179.72107823 -405.40966797 169.82275391 C-404.06378786 168.08248011 -402.73428789 166.33107315 -401.41015625 164.57421875 C-389.07145287 148.25325934 -375.35916265 133.29335989 -360.95690918 118.78167725 C-359.96114564 117.77787368 -358.96686706 116.77259438 -357.97424316 115.76568604 C-351.33114889 109.03716363 -344.38893876 102.90042837 -337 97 C-335.89829544 96.0650748 -334.80194907 95.12373638 -333.71484375 94.171875 C-275.75104748 43.62679246 -201.21735248 13.42570583 -126 1 C-124.95987762 0.82600677 -124.95987762 0.82600677 -123.89874268 0.64849854 C-83.83789383 -5.96945937 -40.09866859 -6.24616199 0 0 Z " fill="#34A753" transform="translate(499,3)"/>
<path d="M0 0 C1.18819336 0.17692383 2.37638672 0.35384766 3.60058594 0.53613281 C46.88055536 7.08753211 88.70959797 19.62951237 128 39 C128.93424805 39.46019531 129.86849609 39.92039063 130.83105469 40.39453125 C162.61011809 56.20999916 191.30932078 76.72245112 218 100 C219.31484375 101.1446875 219.31484375 101.1446875 220.65625 102.3125 C222.4410415 103.87105032 224.22293625 105.43265185 226 107 C225.42308747 110.13440333 224.60867612 111.76285719 222.33984375 113.98828125 C221.79263672 114.53033203 221.24542969 115.07238281 220.68164062 115.63085938 C220.10607422 116.18580078 219.53050781 116.74074219 218.9375 117.3125 C218.38900391 117.85583984 217.84050781 118.39917969 217.27539062 118.95898438 C214.3601412 121.82018514 211.3730191 124.56124399 208.27172852 127.21948242 C204.01728331 130.93075367 200.02883299 134.86007271 196.0625 138.875 C195.33812744 139.60315918 194.61375488 140.33131836 193.86743164 141.08154297 C191.57581697 143.38525646 189.28749348 145.69219474 187 148 C183.98214919 151.04464779 180.96086584 154.08582967 177.9375 157.125 C176.92151733 158.15343018 176.92151733 158.15343018 175.88500977 159.20263672 C172.05328824 163.05370322 168.10613951 166.68272738 163.99389648 170.23095703 C160.53691423 173.29809226 157.30926935 176.58845222 154.0625 179.875 C153.33812744 180.60315918 152.61375488 181.33131836 151.86743164 182.08154297 C149.57581697 184.38525646 147.28749348 186.69219474 145 189 C141.98214919 192.04464779 138.96086584 195.08582967 135.9375 198.125 C134.92151733 199.15343018 134.92151733 199.15343018 133.88500977 200.20263672 C129.97204552 204.13535611 125.94404711 207.86061717 121.74316406 211.48391724 C119.80585947 213.16884992 117.96291954 214.92205239 116.15625 216.74609375 C115.24746094 217.6597168 115.24746094 217.6597168 114.3203125 218.59179688 C113.71960938 219.20087891 113.11890625 219.80996094 112.5 220.4375 C111.86835937 221.07365234 111.23671875 221.70980469 110.5859375 222.36523438 C109.05494226 223.90782806 107.52712333 225.45357314 106 227 C102.05895715 225.16042511 99.14439177 222.5751766 95.9375 219.6875 C82.9491969 208.30666016 68.32424853 198.91579097 53 191 C52.22495117 190.5968457 51.44990234 190.19369141 50.65136719 189.77832031 C-8.14188987 159.55705306 -77.24683994 156.75069613 -139.78515625 176.48828125 C-173.69559687 187.59699101 -204.34972992 205.81457853 -230.64453125 229.8671875 C-232.66311204 231.69495717 -234.72228353 233.44346194 -236.8125 235.1875 C-283.97022191 276.45050667 -312.12992938 342.8578347 -316.7890625 404.33544922 C-318.7033787 437.59226198 -316.19471753 471.0734452 -305.34814453 502.77539062 C-304.49599951 505.39635189 -303.86797127 507.4080351 -304.4765625 510.13671875 C-306.74238984 512.90799988 -309.4711035 514.98499464 -312.3125 517.125 C-312.93624512 517.60437012 -313.55999023 518.08374023 -314.20263672 518.57763672 C-315.49769918 519.57190204 -316.79525462 520.56292816 -318.09521484 521.55078125 C-319.86865872 522.90007154 -321.63341344 524.2596798 -323.39453125 525.625 C-328.59963704 529.65639781 -333.84156662 533.6339677 -339.125 537.5625 C-344.17749556 541.3249967 -349.01578072 545.27424887 -353.8203125 549.34765625 C-356 551 -356 551 -358 551 C-358 551.66 -358 552.32 -358 553 C-359.802736 554.109376 -361.60915441 555.21304679 -363.4296875 556.29296875 C-367.19520985 558.79377919 -370.55946272 561.72823424 -373.96191406 564.69726562 C-377.7967834 568 -377.7967834 568 -380 568 C-380 568.66 -380 569.32 -380 570 C-381.79296875 571.3671875 -381.79296875 571.3671875 -384.1875 572.875 C-387.62876877 575.09603661 -390.83760161 577.39102133 -394 580 C-395.309906 581.02415976 -396.62279489 582.04450815 -397.9375 583.0625 C-400.72486817 585.22479391 -403.50498056 587.39560676 -406.2734375 589.58203125 C-412.91085401 594.82190181 -419.58730425 599.98780551 -426.37890625 605.02734375 C-428.19185005 606.39177984 -429.96906075 607.80452957 -431.71484375 609.25390625 C-434 611 -434 611 -436 611 C-436.33 611.99 -436.66 612.98 -437 614 C-439.21701147 615.58965571 -441.57862473 616.72327486 -444 618 C-490.05955837 529.26946113 -501.27626029 424.70144225 -470 296 C-469.56518311 294.5778418 -469.56518311 294.5778418 -469.12158203 293.12695312 C-459.40889067 261.71521339 -445.22212707 231.0036084 -428 203 C-427.52353027 202.2147998 -427.04706055 201.42959961 -426.55615234 200.62060547 C-420.04716999 189.9167073 -413.08670469 179.72107823 -405.40966797 169.82275391 C-404.06378786 168.08248011 -402.73428789 166.33107315 -401.41015625 164.57421875 C-389.07145287 148.25325934 -375.35916265 133.29335989 -360.95690918 118.78167725 C-359.96114564 117.77787368 -358.96686706 116.77259438 -357.97424316 115.76568604 C-351.33114889 109.03716363 -344.38893876 102.90042837 -337 97 C-335.89829544 96.0650748 -334.80194907 95.12373638 -333.71484375 94.171875 C-275.75104748 43.62679246 -201.21735248 13.42570583 -126 1 C-124.95987762 0.82600677 -124.95987762 0.82600677 -123.89874268 0.64849854 C-83.83789383 -5.96945937 -40.09866859 -6.24616199 0 0 Z " fill="#EA4235" transform="translate(499,3)"/>
<path d="M0 0 C132.99 0 265.98 0 403 0 C405.20297046 6.60891137 406.35442172 13.02235901 407.5 19.875 C407.81904297 21.67904297 407.81904297 21.67904297 408.14453125 23.51953125 C411.70189087 44.66727034 412.37931147 65.90500646 412.3125 87.3125 C412.30976578 89.14276733 412.30976578 89.14276733 412.30697632 91.01000977 C412.25654633 111.15177808 411.55658443 131.01623957 409 151 C408.87271515 151.99761353 408.87271515 151.99761353 408.74285889 153.01538086 C398.6543873 231.20279239 369.88435013 309.30873223 317.50317383 369.2253418 C316.33860476 370.6002407 315.20342021 372.00005672 314.08081055 373.40942383 C308.29269193 380.66351185 302.04399162 387.1962063 295.4375 393.6875 C294.41814509 394.69678641 293.39926251 395.7065501 292.38085938 396.71679688 C289.92596411 399.15002808 287.46484318 401.57684143 285 404 C281.58400005 402.39398676 279.52181191 400.64770101 276.9375 397.875 C272.69211856 393.49518148 268.12762838 390.04962421 263.08984375 386.62890625 C262.40019531 386.09136719 261.71054687 385.55382812 261 385 C261 384.34 261 383.68 261 383 C260.21625 382.690625 259.4325 382.38125 258.625 382.0625 C256 381 256 381 254 380 C254 379.34 254 378.68 254 378 C252.68 378 251.36 378 250 378 C249.01 376.515 249.01 376.515 248 375 C246.33779419 373.99260254 244.66979326 372.99477045 243 372 C240.68732836 370.23716499 238.41227091 368.43051161 236.1328125 366.625 C233.98719632 364.91633866 233.98719632 364.91633866 231.375 363.5 C228.35834938 361.59474698 226.15611687 359.17582854 223.6796875 356.625 C221.63687337 354.6486961 219.46577746 353.40901569 217 352 C214.75601522 350.31809233 212.55776903 348.58476004 210.359375 346.84375 C207.44372765 344.5652971 204.44835821 342.4067266 201.43359375 340.26171875 C200.96050781 339.84535156 200.48742187 339.42898438 200 339 C200 338.34 200 337.68 200 337 C199.4225 336.7525 198.845 336.505 198.25 336.25 C196 335 196 335 194 332.9375 C192.20830201 330.86176009 192.20830201 330.86176009 190 330.5625 C188 330 188 330 186.0625 327.5625 C183.72609932 324.65969915 182.38884343 324.33977531 179 323 C177.10927827 321.5185254 175.32979708 319.95318626 173.55078125 318.33984375 C172.02350546 316.90910919 172.02350546 316.90910919 170 316 C170 315.34 170 314.68 170 314 C169.278125 313.7525 168.55625 313.505 167.8125 313.25 C164.71343317 311.87263696 162.61939248 310.14875053 160 308 C159.12859375 307.32839844 158.2571875 306.65679688 157.359375 305.96484375 C156.49828125 305.29582031 155.6371875 304.62679688 154.75 303.9375 C153.87859375 303.26589844 153.0071875 302.59429688 152.109375 301.90234375 C150 300 150 300 149 297 C149.72703125 296.47792969 150.4540625 295.95585938 151.203125 295.41796875 C157.96878313 290.46516004 164.20800564 285.23245183 170.30859375 279.48046875 C173 277 173 277 175.65234375 274.890625 C179.25209055 271.99166086 182.01652092 268.5136247 185 265 C185.81597656 264.08347656 186.63195312 263.16695312 187.47265625 262.22265625 C206.53359779 240.63211877 220.42148589 214.77237494 229.25 187.4375 C229.47204102 186.7556665 229.69408203 186.07383301 229.92285156 185.37133789 C232.49956469 177.0143007 234.09037259 168.59332334 236 160 C158.12 160 80.24 160 0 160 C0 107.2 0 54.4 0 0 Z " fill="#4385F4" transform="translate(438,350)"/>
<path d="M0 0 C4.2534083 2.76344192 8.28371719 5.71142423 12.25 8.875 C13.48272259 9.85070319 14.71581428 10.82594018 15.94921875 11.80078125 C16.92834229 12.57542725 16.92834229 12.57542725 17.92724609 13.36572266 C21.62565794 16.2817614 25.34403363 19.17210537 29.0625 22.0625 C29.8251416 22.65530762 30.5877832 23.24811523 31.37353516 23.85888672 C46.41525598 35.80322652 46.41525598 35.80322652 62 47 C62 47.66 62 48.32 62 49 C62.73347656 49.25910156 63.46695313 49.51820313 64.22265625 49.78515625 C67.09156722 51.04005261 69.03886221 52.43794233 71.4375 54.4375 C75.52964844 57.79500458 79.64733836 61.10897161 83.8125 64.375 C84.70038208 65.07254395 84.70038208 65.07254395 85.60620117 65.78417969 C90.17528811 69.36821377 94.77638074 72.9092488 99.38598633 76.44091797 C102.62091055 78.92430412 105.82299861 81.4430263 109 84 C112.86272555 87.10656394 116.76151992 90.16158452 120.6875 93.1875 C121.51834106 93.82848633 121.51834106 93.82848633 122.3659668 94.48242188 C125.29872167 96.73317145 128.26458205 98.90841258 131.3125 101 C132.199375 101.66 133.08625 102.32 134 103 C134 103.66 134 104.32 134 105 C134.804375 105.28875 135.60875 105.5775 136.4375 105.875 C139 107 139 107 140 109 C139.64208984 110.7421875 139.64208984 110.7421875 138.9609375 112.875 C138.7124707 113.68211426 138.46400391 114.48922852 138.20800781 115.32080078 C137.93311523 116.20493652 137.65822266 117.08907227 137.375 118 C133.65662347 130.49993518 131.12379805 143.14051947 129 156 C128.79866455 157.207771 128.79866455 157.207771 128.59326172 158.43994141 C122.86938307 194.78777842 126.78512666 235.09177314 138.65185547 269.77539062 C139.50400049 272.39635189 140.13202873 274.4080351 139.5234375 277.13671875 C137.25761016 279.90799988 134.5288965 281.98499464 131.6875 284.125 C131.06375488 284.60437012 130.44000977 285.08374023 129.79736328 285.57763672 C128.50230082 286.57190204 127.20474538 287.56292816 125.90478516 288.55078125 C124.13134128 289.90007154 122.36658656 291.2596798 120.60546875 292.625 C115.40036296 296.65639781 110.15843338 300.6339677 104.875 304.5625 C99.82250444 308.3249967 94.98421928 312.27424887 90.1796875 316.34765625 C88 318 88 318 86 318 C86 318.66 86 319.32 86 320 C84.197264 321.109376 82.39084559 322.21304679 80.5703125 323.29296875 C76.80479015 325.79377919 73.44053728 328.72823424 70.03808594 331.69726562 C66.2032166 335 66.2032166 335 64 335 C64 335.66 64 336.32 64 337 C62.20703125 338.3671875 62.20703125 338.3671875 59.8125 339.875 C56.37123123 342.09603661 53.16239839 344.39102133 50 347 C48.690094 348.02415976 47.37720511 349.04450815 46.0625 350.0625 C43.27513183 352.22479391 40.49501944 354.39560676 37.7265625 356.58203125 C31.08914599 361.82190181 24.41269575 366.98780551 17.62109375 372.02734375 C15.80814995 373.39177984 14.03093925 374.80452957 12.28515625 376.25390625 C10 378 10 378 8 378 C7.67 378.99 7.34 379.98 7 381 C4.78298853 382.58965571 2.42137527 383.72327486 0 385 C-46.05955837 296.26946113 -57.27626029 191.70144225 -26 63 C-25.71012207 62.05189453 -25.42024414 61.10378906 -25.12158203 60.12695312 C-9.45285962 9.45285962 -9.45285962 9.45285962 0 0 Z " fill="#FBBC05" transform="translate(55,236)"/>
<path d="M0 0 C0.33 0.66 0.66 1.32 1 2 C-0.66666667 3.66666667 -2.33333333 5.33333333 -4 7 C-4.70125 7.763125 -5.4025 8.52625 -6.125 9.3125 C-8 11 -8 11 -11 11 C-11 11.99 -11 12.98 -11 14 C-11.71027344 14.33773437 -12.42054687 14.67546875 -13.15234375 15.0234375 C-14.53099609 15.69246094 -14.53099609 15.69246094 -15.9375 16.375 C-16.85402344 16.81585937 -17.77054688 17.25671875 -18.71484375 17.7109375 C-21.12903802 18.79199162 -21.12903802 18.79199162 -22 21 C-24.9375 22.6875 -24.9375 22.6875 -28 24 C-28.66 23.67 -29.32 23.34 -30 23 C-14.74927954 11 -14.74927954 11 -12 11 C-12 10.34 -12 9.68 -12 9 C-10.03062339 7.37643654 -8.06654852 5.86440434 -6 4.375 C-5.42765625 3.95476563 -4.8553125 3.53453125 -4.265625 3.1015625 C-2.84796067 2.06194199 -1.42450738 1.03022409 0 0 Z " fill="#52A537" transform="translate(131,562)"/>
<path d="M0 0 C0.33 0 0.66 0 1 0 C1.38064163 8.79705092 0.20731692 17.31163005 -1 26 C-1.33 26 -1.66 26 -2 26 C-3.25841946 19.25846717 -4.26404456 12.86515862 -4 6 C-3.34 5.67 -2.68 5.34 -2 5 C-1.27840576 3.35636866 -0.60648579 1.68949614 0 0 Z " fill="#5182DD" transform="translate(847,482)"/>
<path d="M0 0 C0 3.13751221 -0.35179805 4.39757586 -2 7 C-2.99 7.33 -3.98 7.66 -5 8 C-5.33 8.66 -5.66 9.32 -6 10 C-7.875 10.5625 -7.875 10.5625 -10 11 C-10.99 11.33 -11.98 11.66 -13 12 C-13 12.66 -13 13.32 -13 14 C-14.63790712 15.04644066 -16.31008021 16.0398183 -18 17 C-19.34631825 17.98244845 -20.68441297 18.97676564 -22 20 C-22.66 19.67 -23.32 19.34 -24 19 C-17.80135124 13.99070823 -11.53767386 9.0759727 -5.2043457 4.23876953 C-2.50569556 2.23257465 -2.50569556 2.23257465 0 0 Z " fill="#55A336" transform="translate(194,513)"/>
<path d="M0 0 C0.66022156 0.02361099 1.32044312 0.04722198 2.00067139 0.07154846 C4.099644 0.14783435 6.19821449 0.23200778 8.296875 0.31640625 C9.72393897 0.36966215 11.15102228 0.42240229 12.578125 0.47460938 C16.06795233 0.60340124 19.55746298 0.73926644 23.046875 0.87890625 C23.046875 1.20890625 23.046875 1.53890625 23.046875 1.87890625 C5.721875 2.37390625 5.721875 2.37390625 -11.953125 2.87890625 C-10.953125 0.87890625 -10.953125 0.87890625 -9.32519531 0.24633789 C-6.1713675 -0.24218731 -3.18938588 -0.12162912 0 0 Z " fill="#D34B43" transform="translate(426.953125,164.12109375)"/>
<path d="M0 0 C1.99954746 -0.04254356 4.00041636 -0.04080783 6 0 C6.33 0.33 6.66 0.66 7 1 C9.53049402 1.07313567 12.03304837 1.09247527 14.5625 1.0625 C15.62887695 1.05573242 15.62887695 1.05573242 16.71679688 1.04882812 C18.47790013 1.03700864 20.23896036 1.01907263 22 1 C22 1.33 22 1.66 22 2 C11.96788765 3.24844065 2.13270429 4.35762486 -8 4 C-8 3.67 -8 3.34 -8 3 C-5.36 3 -2.72 3 0 3 C0 2.01 0 1.02 0 0 Z " fill="#439D5C" transform="translate(480,852)"/>
<path d="M0 0 C0.33 0 0.66 0 1 0 C1.8320582 5.72040011 2.12036664 11.22240116 2 17 C1.01 16.67 0.02 16.34 -1 16 C-3.11912545 11.7617491 -2.25196473 6.88187654 -1 2.5 C-0.67 1.675 -0.34 0.85 0 0 Z " fill="#5281DD" transform="translate(846,378)"/>
<path d="M0 0 C3.24271506 0.5590888 4.93057424 1.4132178 7 4 C7 4.66 7 5.32 7 6 C8.0828125 6.061875 8.0828125 6.061875 9.1875 6.125 C13.23274817 7.38352165 14.49481257 9.63589117 17 13 C13.18078224 11.89667042 10.57795972 11.06899967 8 8 C6.16800482 6.0014598 4.69236034 4.82113973 2.3125 3.4375 C1.549375 2.963125 0.78625 2.48875 0 2 C0 1.34 0 0.68 0 0 Z " fill="#399B89" transform="translate(619,674)"/>
<path d="M0 0 C15.23529412 9.47058824 15.23529412 9.47058824 18 15 C16.35 14.34 14.7 13.68 13 13 C13 12.34 13 11.68 13 11 C12.05125 10.731875 11.1025 10.46375 10.125 10.1875 C7 9 7 9 5 6 C4.01 5.67 3.02 5.34 2 5 C0.8125 2.4375 0.8125 2.4375 0 0 Z " fill="#FDA61B" transform="translate(130,294)"/>
<path d="M0 0 C3.19975116 1.46837896 5.84834256 3.27839346 8.625 5.4375 C9.40101563 6.03433594 10.17703125 6.63117187 10.9765625 7.24609375 C13 9 13 9 15 12 C11.12697862 10.85569823 7.99736561 9.76679902 5 7 C5 6.34 5 5.68 5 5 C4.34 5 3.68 5 3 5 C3 4.34 3 3.68 3 3 C2.34 3 1.68 3 1 3 C0.67 2.01 0.34 1.02 0 0 Z " fill="#389B90" transform="translate(700,736)"/>
<path d="M0 0 C1.95216435 3.90432869 2.50639991 6.72213252 3 11 C1.35 11.33 -0.3 11.66 -2 12 C-1.34 8.04 -0.68 4.08 0 0 Z " fill="#5582D0" transform="translate(674,510)"/>
<path d="M0 0 C8.40911854 2.16838906 8.40911854 2.16838906 10.6875 5.375 C11.120625 6.24125 11.55375 7.1075 12 8 C13.90476822 9.82044254 15.91585902 11.37900146 18 13 C14.54289844 13 14.02081038 12.51245401 11.42578125 10.41015625 C10.42514648 9.60481445 10.42514648 9.60481445 9.40429688 8.78320312 C8.71400391 8.21537109 8.02371094 7.64753906 7.3125 7.0625 C6.2596582 6.21655273 6.2596582 6.21655273 5.18554688 5.35351562 C1.4194786 2.29747383 1.4194786 2.29747383 0 1 C0 0.67 0 0.34 0 0 Z " fill="#E15B1B" transform="translate(91,263)"/>
<path d="M0 0 C0 0.99 0 1.98 0 3 C2.64 3 5.28 3 8 3 C8 3.33 8 3.66 8 4 C1.88909517 4.09945415 -3.97403427 4.0712828 -10 3 C-6.68152292 -0.06320961 -4.44849969 -0.3033068 0 0 Z " fill="#449D5B" transform="translate(400,852)"/>
<path d="M0 0 C2.97 0.33 5.94 0.66 9 1 C9 2.65 9 4.3 9 6 C5 6 5 6 3.515625 4.6875 C2.34375 3.125 1.171875 1.5625 0 0 Z " fill="#3C8DCD" transform="translate(715,747)"/>
<path d="M0 0 C5.26630019 3.40554079 10.2703193 6.87668862 15 11 C13.68 11.33 12.36 11.66 11 12 C10.34 11.01 9.68 10.02 9 9 C8.01 8.67 7.02 8.34 6 8 C4.64631404 6.68733482 3.31200404 5.35432675 2 4 C1.34 3.67 0.68 3.34 0 3 C0 2.01 0 1.02 0 0 Z " fill="#FCA91C" transform="translate(149,309)"/>
<path d="M0 0 C4.75 0.875 4.75 0.875 7 2 C7 2.66 7 3.32 7 4 C7.66 4 8.32 4 9 4 C9 4.99 9 5.98 9 7 C9.99 7.33 10.98 7.66 12 8 C11.67 8.66 11.34 9.32 11 10 C9.16375669 8.52444734 7.3310715 7.04446569 5.5 5.5625 C4.4790625 4.73878906 3.458125 3.91507813 2.40625 3.06640625 C1.6121875 2.38449219 0.818125 1.70257813 0 1 C0 0.67 0 0.34 0 0 Z " fill="#E7561D" transform="translate(68,245)"/>
<path d="M0 0 C1.98 0 3.96 0 6 0 C5.34 2.97 4.68 5.94 4 9 C3.67 8.01 3.34 7.02 3 6 C2.34 6 1.68 6 1 6 C0.67 4.02 0.34 2.04 0 0 Z " fill="#4C86D5" transform="translate(826,572)"/>
<path d="M0 0 C2.475 0.99 2.475 0.99 5 2 C2.64722731 4.72426311 0.37503669 5.8141763 -3 7 C-3 5.35 -3 3.7 -3 2 C-2.01 2 -1.02 2 0 2 C0 1.34 0 0.68 0 0 Z " fill="#DD433B" transform="translate(303,200)"/>
<path d="M0 0 C0 0.99 0 1.98 0 3 C1.32 3.33 2.64 3.66 4 4 C0.7 4.66 -2.6 5.32 -6 6 C-5.67 4.35 -5.34 2.7 -5 1 C-3 0 -3 0 0 0 Z " fill="#CF4F37" transform="translate(374,170)"/>
<path d="M0 0 C0.99 0.66 1.98 1.32 3 2 C1.63875 2.86625 1.63875 2.86625 0.25 3.75 C-2.52022946 5.66785116 -4.71945499 7.54402845 -7 10 C-7.33 8.68 -7.66 7.36 -8 6 C-6.68 5.67 -5.36 5.34 -4 5 C-4 4.34 -4 3.68 -4 3 C-2.68 3 -1.36 3 0 3 C0 2.01 0 1.02 0 0 Z " fill="#DFC221" transform="translate(155,540)"/>
<path d="M0 0 C0.66 0 1.32 0 2 0 C2.33 3.3 2.66 6.6 3 10 C3.99 10.33 4.98 10.66 6 11 C6 11.33 6 11.66 6 12 C4.02 12 2.04 12 0 12 C0 8.04 0 4.08 0 0 Z " fill="#4985E2" transform="translate(842,384)"/>
<path d="M0 0 C0.33 0.66 0.66 1.32 1 2 C-2.08297927 5.25914951 -4.9161331 8.06553673 -9 10 C-9.99 9.67 -10.98 9.34 -12 9 C-8.04 6.03 -4.08 3.06 0 0 Z " fill="#5DA72E" transform="translate(131,562)"/>
<path d="M0 0 C1.32 0 2.64 0 4 0 C4 0.66 4 1.32 4 2 C4.763125 2.268125 5.52625 2.53625 6.3125 2.8125 C8.87380884 3.94424112 10.19692938 4.91223401 12 7 C8.89018657 7 7.60603631 6.53286291 4.875 5.1875 C3.81925781 4.68283203 3.81925781 4.68283203 2.7421875 4.16796875 C1 3 1 3 0 0 Z " fill="#3C9699" transform="translate(688,728)"/>
<path d="M0 0 C0.66 0 1.32 0 2 0 C2 0.66 2 1.32 2 2 C2.70125 2.185625 3.4025 2.37125 4.125 2.5625 C8.09640051 4.54820026 10.3073418 7.53933276 13 11 C10.09336358 9.61503827 8.26543427 8.26543427 6 6 C4.700625 5.2575 4.700625 5.2575 3.375 4.5 C1 3 1 3 0 0 Z " fill="#3C92B9" transform="translate(638,687)"/>
<path d="M0 0 C2.375 0.3125 2.375 0.3125 5 1 C5.66 1.99 6.32 2.98 7 4 C8.2684375 4.4640625 8.2684375 4.4640625 9.5625 4.9375 C10.366875 5.288125 11.17125 5.63875 12 6 C12.65234375 8.06640625 12.65234375 8.06640625 13 10 C3.40546697 3.84965831 3.40546697 3.84965831 0 0 Z " fill="#3B90C6" transform="translate(651,698)"/>
<path d="M0 0 C0.66 0.33 1.32 0.66 2 1 C0.71372289 2.17260611 -0.57919783 3.3379283 -1.875 4.5 C-2.59429687 5.1496875 -3.31359375 5.799375 -4.0546875 6.46875 C-6 8 -6 8 -8 8 C-8 8.66 -8 9.32 -8 10 C-8.66 10 -9.32 10 -10 10 C-10 8.68 -10 7.36 -10 6 C-9.278125 5.7525 -8.55625 5.505 -7.8125 5.25 C-4.75286734 3.89016326 -2.5326262 2.17082246 0 0 Z " fill="#D0C323" transform="translate(127,563)"/>
<path d="M0 0 C2.475 0.495 2.475 0.495 5 1 C5 1.66 5 2.32 5 3 C5.61875 3.268125 6.2375 3.53625 6.875 3.8125 C9 5 9 5 11 8 C5.33289301 6.68206814 3.33562767 4.51290803 0 0 Z " fill="#3D91B8" transform="translate(664,708)"/>
<path d="M0 0 C1.32 0 2.64 0 4 0 C5.35386936 1.65002828 6.68678142 3.3174387 8 5 C10.12946603 5.86965506 10.12946603 5.86965506 12 6 C12 6.99 12 7.98 12 9 C7.09198451 7.51272258 3.59508707 4.55364515 0 1 C0 0.67 0 0.34 0 0 Z " fill="#3A91BC" transform="translate(588,649)"/>
<path d="M0 0 C0.33 0 0.66 0 1 0 C1.027193 1.58323688 1.04648306 3.16661062 1.0625 4.75 C1.07410156 5.63171875 1.08570313 6.5134375 1.09765625 7.421875 C1.00826198 9.7818838 0.66912821 11.74498524 0 14 C-0.66 14 -1.32 14 -2 14 C-2.21192221 8.80790596 -1.5912689 4.873261 0 0 Z " fill="#5A81C8" transform="translate(847,482)"/>
<path d="M0 0 C1.65 0 3.3 0 5 0 C3.68 2.31 2.36 4.62 1 7 C0.34 6.67 -0.32 6.34 -1 6 C-0.67 4.02 -0.34 2.04 0 0 Z " fill="#4C83E8" transform="translate(779,680)"/>
<path d="M0 0 C0.33 0 0.66 0 1 0 C1 2.31 1 4.62 1 7 C0.01 7.33 -0.98 7.66 -2 8 C-2 8.99 -2 9.98 -2 11 C-2.66 11 -3.32 11 -4 11 C-3.5247412 9.35303396 -3.04468109 7.70745272 -2.5625 6.0625 C-2.29566406 5.14597656 -2.02882813 4.22945312 -1.75390625 3.28515625 C-1 1 -1 1 0 0 Z " fill="#4B84DB" transform="translate(666,543)"/>
<path d="M0 0 C0.33 0.99 0.66 1.98 1 3 C0 4 0 4 -3.5625 4.0625 C-4.696875 4.041875 -5.83125 4.02125 -7 4 C-7 3.34 -7 2.68 -7 2 C-4 0 -4 0 0 0 Z " fill="#D94844" transform="translate(413,164)"/>
<path d="M0 0 C4.04420651 1.77945087 7.46078487 4.39529673 11 7 C10.67 7.66 10.34 8.32 10 9 C9.01 8.67 8.02 8.34 7 8 C7 7.34 7 6.68 7 6 C6.401875 5.71125 5.80375 5.4225 5.1875 5.125 C3 4 3 4 0 2 C0 1.34 0 0.68 0 0 Z " fill="#369E7B" transform="translate(677,719)"/>
<path d="M0 0 C0.66 0.33 1.32 0.66 2 1 C1.54625 1.4125 1.0925 1.825 0.625 2.25 C-1.05950374 4.06408095 -1.99265971 5.75285627 -3 8 C-4.65 8 -6.3 8 -8 8 C-5.33333333 5.33333333 -2.66666667 2.66666667 0 0 Z " fill="#4783E5" transform="translate(601,636)"/>
<path d="M0 0 C2 2 2 2 2.1953125 4.1640625 C2.16050781 5.38222656 2.16050781 5.38222656 2.125 6.625 C2.10695313 7.44226563 2.08890625 8.25953125 2.0703125 9.1015625 C2.04710937 9.72804688 2.02390625 10.35453125 2 11 C-0.31309135 8.49415104 -0.97826344 7.27714111 -1.25 3.8125 C-1 1 -1 1 0 0 Z " fill="#5982C5" transform="translate(846,384)"/>
<path d="M0 0 C3.125 0.25 3.125 0.25 5 1.75 C5.37125 2.245 5.7425 2.74 6.125 3.25 C0.0703125 3.4453125 0.0703125 3.4453125 -1.875 3.25 C-2.535 2.59 -3.195 1.93 -3.875 1.25 C-2.875 0.25 -2.875 0.25 0 0 Z " fill="#D34B44" transform="translate(466.875,164.75)"/>
<path d="M0 0 C0.66 0.33 1.32 0.66 2 1 C-0.88341534 5.21422242 -3.04303419 6.76075855 -8 8 C-5.58443874 4.80800833 -3.31996462 2.25283313 0 0 Z " fill="#68A830" transform="translate(76,604)"/>
<path d="M0 0 C0 2 0 2 -1.42578125 3.54296875 C-2.04839844 4.08566406 -2.67101562 4.62835937 -3.3125 5.1875 C-3.92738281 5.73792969 -4.54226562 6.28835938 -5.17578125 6.85546875 C-5.77777344 7.23316406 -6.37976563 7.61085938 -7 8 C-7.99 7.67 -8.98 7.34 -10 7 C-8.71372289 5.82739389 -7.42080217 4.6620717 -6.125 3.5 C-5.04605469 2.52546875 -5.04605469 2.52546875 -3.9453125 1.53125 C-2 0 -2 0 0 0 Z " fill="#56A435" transform="translate(170,533)"/>
<path d="M0 0 C0.99 0 1.98 0 3 0 C2.67 3.96 2.34 7.92 2 12 C1.67 12 1.34 12 1 12 C0.67 8.04 0.34 4.08 0 0 Z " fill="#4A87D0" transform="translate(844,496)"/>
<path d="M0 0 C0.763125 0.309375 1.52625 0.61875 2.3125 0.9375 C4.18789677 1.67893593 6.08684652 2.36228217 8 3 C8 3.66 8 4.32 8 5 C8.66 5 9.32 5 10 5 C9.67 5.99 9.34 6.98 9 8 C5.01824456 5.89851796 2.64960955 3.63094642 0 0 Z " fill="#E1541C" transform="translate(185,336)"/>
<path d="M0 0 C0.99 0.33 1.98 0.66 3 1 C-0.465 3.97 -0.465 3.97 -4 7 C-4 5.02 -4 3.04 -4 1 C-2.68 1.33 -1.36 1.66 0 2 C0 1.34 0 0.68 0 0 Z " fill="#DA483F" transform="translate(614,217)"/>
<path d="M0 0 C-1 2 -2 4 -3 6 C-3.66 6 -4.32 6 -5 6 C-5 5.34 -5 4.68 -5 4 C-5.99 3.67 -6.98 3.34 -8 3 C-2.25 0 -2.25 0 0 0 Z " fill="#D9493B" transform="translate(241,48)"/>
<path d="M0 0 C3.91402949 1.26941497 5.79072873 2.51167694 8 6 C5.03 5.505 5.03 5.505 2 5 C2 4.01 2 3.02 2 2 C1.34 2 0.68 2 0 2 C0 1.34 0 0.68 0 0 Z " fill="#36A172" transform="translate(656,703)"/>
<path d="M0 0 C0.66 0.33 1.32 0.66 2 1 C-0.25 3.5625 -0.25 3.5625 -3 6 C-5.3125 5.8125 -5.3125 5.8125 -7 5 C-4.88437775 2.67281553 -2.94982021 1.14186589 0 0 Z " fill="#68AA36" transform="translate(139,556)"/>
<path d="M0 0 C1.13643966 3.40931897 0.86747764 4.00335456 -0.4375 7.1875 C-0.86869141 8.26064453 -0.86869141 8.26064453 -1.30859375 9.35546875 C-1.53675781 9.89816406 -1.76492188 10.44085937 -2 11 C-3.24386556 7.26840331 -2.77811718 4.81984796 -2 1 C-1.34 0.67 -0.68 0.34 0 0 Z " fill="#4A89E2" transform="translate(822,599)"/>
<path d="M0 0 C0.66 0 1.32 0 2 0 C2 1.65 2 3.3 2 5 C0.35 5 -1.3 5 -3 5 C-1.125 1.125 -1.125 1.125 0 0 Z " fill="#E64341" transform="translate(156,105)"/>
<path d="M0 0 C0.66 0 1.32 0 2 0 C2.66 1.98 3.32 3.96 4 6 C2.02 5.34 0.04 4.68 -2 4 C-1.34 3.67 -0.68 3.34 0 3 C0 2.01 0 1.02 0 0 Z " fill="#D3523A" transform="translate(546,186)"/>
<path d="M0 0 C0.33 0.99 0.66 1.98 1 3 C-1.97 3 -4.94 3 -8 3 C-4.93882432 0.37613513 -4.26826873 0 0 0 Z " fill="#DB483E" transform="translate(461,164)"/>
<path d="M0 0 C-1.125 1.5 -1.125 1.5 -3 3 C-6.1875 3.1875 -6.1875 3.1875 -9 3 C-6.40821726 0.40821726 -3.54324677 -1.77162338 0 0 Z " fill="#419F56" transform="translate(559,666)"/>
<path d="M0 0 C0.33 0.99 0.66 1.98 1 3 C0.34 3.66 -0.32 4.32 -1 5 C-1.70710678 6.64991582 -2.37943989 8.31562256 -3 10 C-3.66 9.67 -4.32 9.34 -5 9 C-4.01 6.69 -3.02 4.38 -2 2 C-1.34 2 -0.68 2 0 2 C0 1.34 0 0.68 0 0 Z " fill="#4E80F1" transform="translate(848,478)"/>
<path d="M0 0 C1.98 0 3.96 0 6 0 C4.35 1.65 2.7 3.3 1 5 C0.67 3.35 0.34 1.7 0 0 Z " fill="#DA4743" transform="translate(618,210)"/>
<path d="M0 0 C0.66 0 1.32 0 2 0 C2.33 0.99 2.66 1.98 3 3 C2.01 4.485 2.01 4.485 1 6 C0.34 6 -0.32 6 -1 6 C-1.625 4.125 -1.625 4.125 -2 2 C-1.34 1.34 -0.68 0.68 0 0 Z " fill="#D64B3D" transform="translate(187,80)"/>
<path d="M0 0 C0.33 0.66 0.66 1.32 1 2 C-0.32 2 -1.64 2 -3 2 C-3.33 3.32 -3.66 4.64 -4 6 C-4.66 6 -5.32 6 -6 6 C-6 4.68 -6 3.36 -6 2 C-4.02 1.34 -2.04 0.68 0 0 Z " fill="#D64B41" transform="translate(322,15)"/>
</svg>
