<?xml version="1.0" encoding="UTF-8"?>
<svg version="1.1" xmlns="http://www.w3.org/2000/svg" width="600" height="600">
<path d="M0 0 C198 0 396 0 600 0 C600 198 600 396 600 600 C402 600 204 600 0 600 C0 402 0 204 0 0 Z " fill="#FEFEFE" transform="translate(0,0)"/>
<path d="M0 0 C9.92933837 6.18625971 17.69476841 14.82548772 20.58203125 26.31640625 C22.0423659 35.69257357 22.05739388 44.77977775 17 53 C16.55269531 53.76957031 16.10539063 54.53914063 15.64453125 55.33203125 C9.46437352 65.3230101 1.26542989 70.41399953 -9.6875 74.3125 C-21.44570363 76.79293241 -33.49064453 75.65945201 -43.6875 69.25 C-52.03124555 63.24191561 -58.82100167 55.87380378 -61.63671875 45.69921875 C-63.45183033 32.21274452 -62.33338835 22.12196979 -54.4296875 10.73828125 C-41.85619397 -5.20636635 -17.88760738 -9.32907523 0 0 Z " fill="#F43799" transform="translate(549,287)"/>
<path d="M0 0 C1.67705908 1.320238 3.34808509 2.64843325 5 4 C8.13258732 3.59871815 10.24075211 2.32763043 12.8125 0.5625 C19.83225101 -3.90226811 26.80793733 -4.87220074 35 -4 C44.30621744 -1.85931362 52.19217108 2.93664439 57.9375 10.625 C60.79607127 15.30266208 62.24249676 18.85614376 62.30639648 24.35351562 C62.32238388 25.39809937 62.33837128 26.44268311 62.35484314 27.5189209 C62.36020584 28.6367395 62.36556854 29.75455811 62.37109375 30.90625 C62.38012222 32.06370728 62.3891507 33.22116455 62.39845276 34.41369629 C62.41294313 36.85796526 62.42183897 39.30227291 62.42553711 41.74658203 C62.4374575 45.4866639 62.48667879 49.2251087 62.53710938 52.96484375 C62.54657106 55.34113779 62.55380731 57.71744195 62.55859375 60.09375 C62.57812607 61.2115686 62.59765839 62.32938721 62.61778259 63.4810791 C62.57278911 71.21414325 62.57278911 71.21414325 59.68383789 75.17773438 C56.28568495 77.48500387 54.10831214 78.07336272 50 78 C47.19810554 76.23358828 45.48475089 74.96950178 44 72 C43.90682567 70.4589487 43.8748669 68.91398241 43.87402344 67.37011719 C43.87021667 66.40861755 43.86640991 65.44711792 43.86248779 64.45648193 C43.86146057 63.41381165 43.86043335 62.37114136 43.859375 61.296875 C43.84104499 59.09764591 43.8214745 56.89842687 43.80078125 54.69921875 C43.77181925 51.22525121 43.75000027 47.75192811 43.74951172 44.27783203 C43.74617523 40.92942865 43.71160757 37.58251895 43.671875 34.234375 C43.6789447 33.19980164 43.6860144 32.16522827 43.69329834 31.0993042 C43.5971577 24.77608406 43.5971577 24.77608406 40.60253906 19.38378906 C36.32529051 15.46605408 32.84467396 14.53205433 26.99609375 14.67578125 C23.66895238 15.21619756 21.54259669 16.88116943 19 19 C16.87271141 22.19093289 16.75019196 22.99274917 16.74462891 26.65161133 C16.73766998 27.59301468 16.73071106 28.53441803 16.72354126 29.50434875 C16.72503677 31.02780159 16.72503677 31.02780159 16.7265625 32.58203125 C16.70627019 34.73242705 16.68541934 36.88281764 16.6640625 39.03320312 C16.64147439 42.42362867 16.62499767 45.81384841 16.61914062 49.2043457 C16.6096086 52.47645299 16.57581712 55.74763222 16.5390625 59.01953125 C16.54410797 60.02909378 16.54915344 61.03865631 16.55435181 62.07881165 C16.47130667 68.03242929 15.93849433 71.44793653 12 76 C9.32037429 78.12522039 7.98368158 77.9997086 4.5 77.9375 C0.10994335 76.76159197 -0.73411797 75.92024817 -3 72 C-3.55452605 68.33216118 -3.48570726 64.7067244 -3.43359375 61.00390625 C-3.44319893 58.81445242 -3.45296965 56.6249993 -3.46289062 54.43554688 C-3.45428894 50.99462772 -3.43744458 47.55389501 -3.4152832 44.11303711 C-3.40075488 40.78462218 -3.41602151 37.45728307 -3.43359375 34.12890625 C-3.41711288 33.10374405 -3.40063202 32.07858185 -3.38365173 31.02235413 C-3.413833 24.7698311 -3.413833 24.7698311 -6.34790039 19.42944336 C-11.13308689 15.0459958 -13.96203713 14.51368531 -20.26171875 14.60546875 C-24.51390918 15.21812386 -26.15279381 16.8530879 -29 20 C-30.19413602 22.38827205 -30.13693016 23.88792408 -30.15771484 26.55395508 C-30.17310806 27.97101494 -30.17310806 27.97101494 -30.18881226 29.41670227 C-30.19611359 30.44063583 -30.20341492 31.4645694 -30.2109375 32.51953125 C-30.23900798 34.67774193 -30.26767246 36.83594496 -30.296875 38.99414062 C-30.33813676 42.40437593 -30.37501521 45.81446855 -30.40136719 49.22485352 C-30.42897487 52.51088183 -30.47485053 55.79625514 -30.5234375 59.08203125 C-30.52669037 60.09989212 -30.52994324 61.11775299 -30.53329468 62.16645813 C-30.68693648 71.01561866 -30.68693648 71.01561866 -34 75 C-37.4237136 77.5677852 -40.84854205 77.58266077 -45 77 C-48.03429127 74.35106372 -49.69203833 72.61217849 -50.45361328 68.62533569 C-50.6286932 65.74197168 -50.64051513 62.90005412 -50.59375 60.01171875 C-50.59379028 58.9539473 -50.59383057 57.89617584 -50.59387207 56.80635071 C-50.58852213 54.57306974 -50.57096213 52.33978892 -50.54199219 50.10668945 C-50.50026656 46.70920451 -50.50091712 43.31371283 -50.5078125 39.91601562 C-50.49731429 37.7395697 -50.4843728 35.56313392 -50.46875 33.38671875 C-50.46854858 32.38017746 -50.46834717 31.37363617 -50.46813965 30.33659363 C-50.29170106 19.68087555 -47.49979581 11.70249299 -40 4 C-28.25835175 -5.70864202 -13.58617533 -6.82757034 0 0 Z " fill="#F43799" transform="translate(80,284)"/>
<path d="M0 0 C0.84731689 -0.0103125 1.69463379 -0.020625 2.56762695 -0.03125 C12.79719172 0.11244889 21.13841677 4.13338645 28.63671875 11.06640625 C35.50097315 18.5185313 38.00565686 27.15471333 38.0625 37.125 C38.07667969 38.26324219 38.09085937 39.40148437 38.10546875 40.57421875 C37.875 43.4375 37.875 43.4375 35.875 45.4375 C33.58444214 45.67800903 33.58444214 45.67800903 30.69091797 45.66455078 C29.60994843 45.66439972 28.52897888 45.66424866 27.41525269 45.66409302 C26.24439117 45.65377045 25.07352966 45.64344788 23.8671875 45.6328125 C22.67143097 45.6299826 21.47567444 45.62715271 20.24368286 45.62423706 C16.41235481 45.61301305 12.58125778 45.58790431 8.75 45.5625 C6.15755545 45.55247308 3.56510725 45.54334673 0.97265625 45.53515625 C-5.39330842 45.51306646 -11.75913771 45.47956706 -18.125 45.4375 C-17.38349931 51.52816435 -17.38349931 51.52816435 -14.3125 56.6875 C-13.56033203 57.65429688 -13.56033203 57.65429688 -12.79296875 58.640625 C-9.05004245 62.67281727 -6.00544872 64.12440775 -0.609375 64.7109375 C6.29943949 64.96755061 10.58876987 63.96354217 15.875 59.4375 C16.90849096 58.34517168 17.92992932 57.24128225 18.9375 56.125 C21.875 53.4375 21.875 53.4375 25.375 52.75 C30.08134728 53.67446107 31.67980014 54.85264162 34.875 58.4375 C35.66830272 62.16602277 35.10732319 63.94117319 33.5 67.375 C28.04609743 74.72423041 18.87940747 79.25009263 10.08984375 80.98828125 C-2.51537393 82.74964216 -13.45358508 81.75097074 -23.9375 74.25 C-31.82775733 67.65831811 -36.77028367 58.59187816 -38.125 48.4375 C-38.82744003 34.76693636 -38.19132451 23.42398494 -29.125 12.4375 C-20.45366071 3.08507851 -12.5385921 0.1279798 0 0 Z " fill="#F43899" transform="translate(280.125,280.5625)"/>
<path d="M0 0 C8.89191733 4.64768093 15.62114406 11.61354278 19.15234375 21.125 C20.20267535 25.2011213 20.31771314 29.11211004 20.33984375 33.3125 C20.35402344 34.54355469 20.36820312 35.77460938 20.3828125 37.04296875 C20.15234375 40.125 20.15234375 40.125 18.15234375 42.125 C15.86178589 42.36550903 15.86178589 42.36550903 12.96826172 42.35205078 C11.88729218 42.35189972 10.80632263 42.35174866 9.69259644 42.35159302 C8.52173492 42.34127045 7.35087341 42.33094788 6.14453125 42.3203125 C4.94877472 42.3174826 3.75301819 42.31465271 2.52102661 42.31173706 C-1.31030144 42.30051305 -5.14139847 42.27540431 -8.97265625 42.25 C-11.5651008 42.23997308 -14.157549 42.23084673 -16.75 42.22265625 C-23.11596467 42.20056646 -29.48179396 42.16706706 -35.84765625 42.125 C-35.40332099 43.72215412 -34.94968276 45.31672185 -34.4921875 46.91015625 C-34.11477417 48.24252319 -34.11477417 48.24252319 -33.72973633 49.60180664 C-32.06973075 54.35025879 -29.34728361 57.02771169 -25.28515625 60 C-19.5396201 61.88035728 -13.2678308 62.47918078 -7.5390625 60.2109375 C-4.07052431 58.11493977 -1.19975737 55.54313087 1.77734375 52.8125 C4.19500856 50.68055921 4.98418584 50.15526842 8.27734375 49.5625 C11.49647406 50.19232984 13.5259224 51.17394414 16.15234375 53.125 C17.75361449 56.32754147 17.55935982 58.57814564 17.15234375 62.125 C13.67613104 68.47286669 7.37365593 71.89187713 1.15234375 75.125 C0.55035156 75.46789062 -0.05164063 75.81078125 -0.671875 76.1640625 C-8.75815138 80.05274373 -20.88640955 79.25014445 -29.41015625 76.9375 C-38.34867416 73.68024347 -46.51170091 67.86944 -51.09765625 59.375 C-56.23324717 47.77564811 -58.33200415 34.44676801 -54.22265625 22.1875 C-49.33662656 10.76962008 -42.30784377 2.98312297 -30.84765625 -1.875 C-21.57373882 -4.96630581 -8.80862772 -3.90891338 0 0 Z " fill="#F43899" transform="translate(209.84765625,283.875)"/>
<path d="M0 0 C5.57894737 3.15789474 5.57894737 3.15789474 7 6 C7.08902493 7.35845193 7.11760132 8.72115974 7.11352539 10.08251953 C7.11344986 10.92324005 7.11337433 11.76396057 7.11329651 12.63015747 C7.10555458 13.99272171 7.10555458 13.99272171 7.09765625 15.3828125 C7.0962413 16.31221649 7.09482635 17.24162048 7.09336853 18.19918823 C7.08776053 21.17449124 7.07520668 24.14971964 7.0625 27.125 C7.05748603 29.13932183 7.05292295 31.15364484 7.04882812 33.16796875 C7.0377885 38.11200802 7.02051849 43.05599135 7 48 C8.60875 47.0409375 8.60875 47.0409375 10.25 46.0625 C18.36921757 41.43549998 29.97611544 41.5260708 38.9375 43.71875 C41.11716672 44.65721762 43.01834321 45.69874039 45 47 C45.64195312 47.37382812 46.28390625 47.74765625 46.9453125 48.1328125 C52.08968849 51.38302495 55.09731328 55.36415453 56.59049988 61.37841797 C57.01624776 64.10401669 57.14790539 66.68728614 57.17700195 69.4453125 C57.19625481 71.04221924 57.19625481 71.04221924 57.21589661 72.67138672 C57.22328354 73.8110791 57.23067047 74.95077148 57.23828125 76.125 C57.246353 77.30465332 57.25442474 78.48430664 57.26274109 79.69970703 C57.2765529 82.19106589 57.28728799 84.68244344 57.29516602 87.17382812 C57.31243675 90.98603797 57.35635702 94.79739327 57.40039062 98.609375 C57.41051312 101.03124363 57.4190306 103.45311962 57.42578125 105.875 C57.44328934 107.01469238 57.46079742 108.15438477 57.47883606 109.32861328 C57.45711758 117.23189692 57.45711758 117.23189692 55.09838867 121.1953125 C52.3849095 123.5289993 51.29651456 123.9608377 47.6875 124.4375 C44 124 44 124 41.30712891 121.63647461 C37.94189773 117.28276378 38.32595704 112.67564158 38.3984375 107.37890625 C38.39043121 106.36078354 38.38242493 105.34266083 38.37417603 104.29368591 C38.35115177 101.04954963 38.36055043 97.80666942 38.375 94.5625 C38.37885499 91.32213643 38.37534274 88.08232752 38.35440063 84.84202576 C38.34236966 82.82974019 38.34488411 80.8172987 38.36410522 78.80506897 C38.34140393 73.08531116 37.75343487 69.04991494 35 64 C31.90519046 61.09275467 29.22417992 60.79946546 25.125 60.6875 C20.78862077 60.84882363 17.01590595 61.23300138 13 63 C7.03501317 69.77106614 6.71948492 77.99427029 6.76171875 86.57421875 C6.7463142 88.39388779 6.73001171 90.21354942 6.71289062 92.03320312 C6.6963893 94.87069214 6.68754988 97.70763251 6.69458008 100.54516602 C6.69719783 103.30546973 6.66912189 106.06413429 6.63671875 108.82421875 C6.64692551 109.67014084 6.65713226 110.51606293 6.66764832 111.38761902 C6.59590893 115.71041714 6.40393202 117.47823504 3.67504883 121.00317383 C0.25851575 123.55349089 -1.73415524 124.14967876 -6 124 C-8.79588687 122.3899775 -10.19039933 121.54851669 -12 119 C-12.88488065 115.38352541 -12.79962055 111.84664127 -12.74462891 108.13867188 C-12.75193024 107.04381973 -12.75923157 105.94896759 -12.76675415 104.82093811 C-12.78296252 101.20291028 -12.75575102 97.58667493 -12.7265625 93.96875 C-12.72552523 91.45438641 -12.72656088 88.94002117 -12.72958374 86.42565918 C-12.72940431 81.15645356 -12.70922713 75.8877113 -12.67236328 70.61865234 C-12.63002955 64.53305216 -12.62300882 58.44820684 -12.6354872 52.36248922 C-12.64689032 46.50031058 -12.63535473 40.63840131 -12.61314011 34.77626038 C-12.60543897 32.2851722 -12.6031385 29.79406132 -12.6063118 27.30296326 C-12.60705315 23.82197781 -12.5818143 20.34214107 -12.54931641 16.86132812 C-12.55427124 15.83052628 -12.55922607 14.79972443 -12.56433105 13.73768616 C-12.49825969 9.30585668 -12.44410239 6.72484552 -10.09066772 2.88366699 C-6.69681521 -0.17415414 -4.53686153 -0.43623669 0 0 Z " fill="#F43698" transform="translate(418,238)"/>
<path d="M0 0 C0.83684326 0.00870117 1.67368652 0.01740234 2.53588867 0.02636719 C12.64694563 0.2651263 21.40993493 2.03493493 28.75 9.375 C29.26675938 13.25069534 29.06754464 14.89868304 26.875 18.1875 C24.22351961 20.91696511 23.43190788 21.32044737 19.625 21.625 C15.75 21.375 15.75 21.375 12.1875 19.875 C6.37161414 17.43830474 -0.06281559 17.9384551 -6.25 18.375 C-7.60618499 19.50034105 -7.60618499 19.50034105 -7.3125 22.4375 C-7.291875 23.406875 -7.27125 24.37625 -7.25 25.375 C-1.78185916 28.26318295 3.57361136 30.76390856 9.46484375 32.64453125 C18.76822176 35.61843157 25.8738994 39.04536168 31.75 47.125 C33.97848615 54.36758 33.58424864 61.52248854 30.14453125 68.3046875 C25.64512933 74.98447186 19.25308042 79.03511955 11.50390625 80.921875 C-1.90675636 83.12845211 -15.87562099 81.23402919 -27.25 73.375 C-29.71220488 69.68169268 -29.92270703 66.6613512 -29.25 62.375 C-27.75 59.875 -27.75 59.875 -25.25 58.375 C-19.38865914 57.58024192 -15.64478657 58.7403648 -10.42578125 61.40234375 C-6.08529573 63.34270442 -1.83324613 63.53299971 2.875 63.5625 C3.90882813 63.57667969 4.94265625 63.59085937 6.0078125 63.60546875 C8.96720034 63.57908145 8.96720034 63.57908145 11.75 61.375 C12.50060849 58.46117271 12.50060849 58.46117271 11.75 55.375 C7.57231858 52.02277297 3.80802357 50.65545111 -1.375 49.5 C-11.26451734 47.06648589 -20.3787677 44.00542707 -26.26171875 35.20703125 C-29.37741108 29.4313012 -29.40576727 21.45331253 -27.63671875 15.2109375 C-24.29198106 8.75721455 -17.88389512 3.64520253 -11.23754883 0.95507812 C-7.52647257 -0.12802189 -3.8391802 -0.06617286 0 0 Z " fill="#F43799" transform="translate(360.25,280.625)"/>
<path d="M0 0 C5.27157493 3.47229487 9.43764902 7.42993683 10.796875 13.71875 C11.52315892 21.20565548 12.27104679 29.47646047 8.1328125 36.109375 C3.48313378 41.71074234 -1.30938974 45.30452284 -8.69140625 46.08984375 C-16.35315565 46.22288741 -22.33132745 46.21024978 -28.203125 40.71875 C-33.8134913 35.26001522 -35.36191949 28.26779352 -35.640625 20.65625 C-35.42817872 13.9599434 -33.93389408 9.54292567 -29.26171875 4.7109375 C-21.4342352 -2.41019855 -9.96189349 -3.98475739 0 0 Z " fill="#FEFCFD" transform="translate(540.203125,300.28125)"/>
<path d="M0 0 C4.90364187 3.6777314 7.25671871 6.65859354 8.5 12.875 C-3.38 12.875 -15.26 12.875 -27.5 12.875 C-26.36601307 7.20506536 -26.36601307 7.20506536 -23.6875 4.1875 C-23.18605469 3.60613281 -22.68460937 3.02476562 -22.16796875 2.42578125 C-16.32660692 -3.00518046 -7.18436974 -2.3092617 0 0 Z " fill="#FEF7FA" transform="translate(290.5,298.125)"/>
<path d="M0 0 C5.60219954 4.06159467 7.31552629 5.70565772 8.5 12.8125 C-3.38 12.8125 -15.26 12.8125 -27.5 12.8125 C-26.30678928 6.8464464 -24.14619365 3.74362927 -19.23046875 0.15625 C-13.40689347 -2.70971551 -6.02296322 -2.04350538 0 0 Z " fill="#FEF7FB" transform="translate(202.5,298.1875)"/>
</svg>
