<?xml version="1.0" encoding="UTF-8"?>
<svg version="1.1" xmlns="http://www.w3.org/2000/svg" width="500" height="375">
<path d="M0 0 C165 0 330 0 500 0 C500 123.75 500 247.5 500 375 C335 375 170 375 0 375 C0 251.25 0 127.5 0 0 Z " fill="#FEFEFE" transform="translate(0,0)"/>
<path d="M0 0 C7.16962025 -0.60759494 7.16962025 -0.60759494 10.5625 1.875 C17.03678163 10.17536107 22.57096191 18.99487813 28 28 C28.57234375 28.89074219 29.1446875 29.78148437 29.734375 30.69921875 C31 33 31 33 31 36 C31.66 36 32.32 36 33 36 C33.33773437 36.85464844 33.67546875 37.70929688 34.0234375 38.58984375 C34.46945313 39.69457031 34.91546875 40.79929688 35.375 41.9375 C35.81585938 43.03964844 36.25671875 44.14179688 36.7109375 45.27734375 C37.71041432 48.11230186 37.71041432 48.11230186 40 49 C40.66 46.69 41.32 44.38 42 42 C42.66 42 43.32 42 44 42 C44.33 39.36 44.66 36.72 45 34 C45.66 34 46.32 34 47 34 C47.17402344 33.13181641 47.17402344 33.13181641 47.3515625 32.24609375 C48.0465749 29.83867126 49.00767208 28.15492607 50.375 26.0625 C52.31153411 23.0745348 54.17606585 20.05831382 56 17 C57.11388101 15.13913243 58.23921409 13.28507934 59.375 11.4375 C59.93960938 10.50808594 60.50421875 9.57867187 61.0859375 8.62109375 C63.1272806 5.82570351 65.1601182 3.96571623 68 2 C68.66 2 69.32 2 70 2 C70 1.34 70 0.68 70 0 C73.71137193 -0.3452439 75.51625962 -0.31499373 78.6875 1.75 C80.73921316 3.74626145 82.47021124 5.58454406 84 8 C84 8.66 84 9.32 84 10 C84.99 10.33 85.98 10.66 87 11 C87.6875 13.0625 87.6875 13.0625 88 15 C88.66 15 89.32 15 90 15 C90 15.99 90 16.98 90 18 C90.66 18 91.32 18 92 18 C93.58626141 20.83170323 95.16845593 23.66565978 96.75 26.5 C97.1934375 27.29148438 97.636875 28.08296875 98.09375 28.8984375 C106 43.08318015 106 43.08318015 106 47 C106.66 47 107.32 47 108 47 C108 48.65 108 50.3 108 52 C108.66 52 109.32 52 110 52 C111.13109109 55.16452342 112.25373549 58.33198282 113.375 61.5 C113.85066406 62.8303125 113.85066406 62.8303125 114.3359375 64.1875 C117.54625857 73.28340971 119.30809546 80.81002467 119.125 90.5 C119.11597656 91.4178125 119.10695312 92.335625 119.09765625 93.28125 C119.07432432 95.52111556 119.04159235 97.76041183 119 100 C118.34 100 117.68 100 117 100 C116.9175 100.5775 116.835 101.155 116.75 101.75 C115.71846213 104.84461361 114.66135342 106.08928472 112 108 C107.84202554 108.68163516 105.5305592 108.94543017 101.92578125 106.71875 C100.12435441 105.22791399 98.49273102 103.80060679 97 102 C97 101.34 97 100.68 97 100 C96.01 99.67 95.02 99.34 94 99 C92.68359375 97.00390625 92.68359375 97.00390625 91.4375 94.5625 C90.08610241 91.93969409 89.0968741 90.0968741 87 88 C85.08170963 83.84217445 83.70730571 79.52675653 83 75 C82.34 75 81.68 75 81 75 C81 73.35 81 71.7 81 70 C80.34 70 79.68 70 79 70 C78.65066406 68.86820312 78.30132812 67.73640625 77.94140625 66.5703125 C77.48186105 65.08851369 77.02222069 63.60674438 76.5625 62.125 C76.33240234 61.37863281 76.10230469 60.63226563 75.86523438 59.86328125 C74.64620353 55.84908399 74.64620353 55.84908399 73 52 C72.505 52.99 72.505 52.99 72 54 C71.34 54 70.68 54 70 54 C70.05929688 54.79921875 70.11859375 55.5984375 70.1796875 56.421875 C69.94785428 61.03838006 68.63101279 64.9070794 67.125 69.25 C66.85558594 70.0646875 66.58617187 70.879375 66.30859375 71.71875 C64.2675047 77.7324953 64.2675047 77.7324953 62 80 C61.4419456 81.80138805 60.9276856 83.61647235 60.4375 85.4375 C57.80263817 93.60753799 52.71606092 100.92972509 45.4375 105.6875 C41.4512806 107.20951104 38.14234057 108.202615 34 107 C31.00476278 104.96619695 28.50725912 102.60142847 26 100 C25.34 99.34 24.68 98.68 24 98 C24 97.01 24 96.02 24 95 C22.515 94.505 22.515 94.505 21 94 C19.24609375 91.3046875 19.24609375 91.3046875 17.4375 87.875 C16.83808594 86.75867188 16.23867187 85.64234375 15.62109375 84.4921875 C14.0122276 81.02634091 12.98940686 77.68350606 12 74 C11.40215114 72.44760255 10.77899514 70.90459193 10.125 69.375 C7.99628704 64.22001974 6.44428083 58.95350691 4.9296875 53.58984375 C4.28427786 50.85433377 4.28427786 50.85433377 2 50 C1.80857422 51.50240234 1.80857422 51.50240234 1.61328125 53.03515625 C0.3712714 61.6857222 -1.81940376 70.64231454 -6.0703125 78.3203125 C-7.1706919 80.24054752 -7.1706919 80.24054752 -8.4375 83.375 C-14.39453125 97.1953125 -14.39453125 97.1953125 -20 102 C-20.78697266 102.80630859 -20.78697266 102.80630859 -21.58984375 103.62890625 C-24.62234936 106.59264756 -26.85272549 108.40745555 -31.1875 108.625 C-35 108 -35 108 -37.5 106.125 C-39 104 -39 104 -39 102 C-39.66 102 -40.32 102 -41 102 C-42.21437904 97.67668948 -42.18389494 93.58807011 -42.1875 89.125 C-42.19974609 88.33480469 -42.21199219 87.54460937 -42.22460938 86.73046875 C-42.2363036 82.04498321 -41.69586143 78.42398634 -40 74 C-39.25690488 70.94202739 -38.56280936 67.87638947 -37.87890625 64.8046875 C-36.97287572 61.91344342 -35.79795724 60.39266618 -34 58 C-33.28440736 55.91852331 -32.64374492 53.81041601 -32.0625 51.6875 C-30.54912196 46.53165693 -28.84144215 42.52854842 -26 38 C-25.25385335 36.61316912 -24.52499659 35.21691566 -23.8125 33.8125 C-23.48894531 33.17957031 -23.16539063 32.54664063 -22.83203125 31.89453125 C-21.97790487 29.9496895 -21.45470289 28.07142428 -21 26 C-20.34 26 -19.68 26 -19 26 C-18.67 24.35 -18.34 22.7 -18 21 C-17.34 21 -16.68 21 -16 21 C-15.71125 20.4225 -15.4225 19.845 -15.125 19.25 C-14.75375 18.5075 -14.3825 17.765 -14 17 C-13.690625 16.29875 -13.38125 15.5975 -13.0625 14.875 C-12 13 -12 13 -9 11 C-8.525625 10.175 -8.05125 9.35 -7.5625 8.5 C-5.90171111 5.84273777 -4.87401347 5.09014304 -2 4 C-2 3.34 -2 2.68 -2 2 C-1.34 2 -0.68 2 0 2 C0 1.34 0 0.68 0 0 Z " fill="#F05612" transform="translate(80,134)"/>
<path d="M0 0 C3.70293685 -0.33663062 5.39534381 -0.47736015 8.375 1.875 C10 4 10 4 10 6 C10.5775 6.268125 11.155 6.53625 11.75 6.8125 C16.33801398 9.23395182 18.45287931 11.472886 20.93359375 16.11328125 C22.00439559 18.00777682 23.1970632 19.69626642 24.5 21.4375 C27.17446548 25.08073471 29.06726377 28.91977907 31 33 C31.33 32.01 31.66 31.02 32 30 C32.67408308 31.26691507 33.33900497 32.53870749 34 33.8125 C34.37125 34.52019531 34.7425 35.22789062 35.125 35.95703125 C36 38 36 38 36 41 C36.66 41 37.32 41 38 41 C38 42.65 38 44.3 38 46 C38.66 46 39.32 46 40 46 C41.13109109 49.16452342 42.25373549 52.33198282 43.375 55.5 C43.85066406 56.8303125 43.85066406 56.8303125 44.3359375 58.1875 C47.54625857 67.28340971 49.30809546 74.81002467 49.125 84.5 C49.11597656 85.4178125 49.10695312 86.335625 49.09765625 87.28125 C49.07432432 89.52111556 49.04159235 91.76041183 49 94 C48.34 94 47.68 94 47 94 C46.9175 94.5775 46.835 95.155 46.75 95.75 C45.71846213 98.84461361 44.66135342 100.08928472 42 102 C37.84202554 102.68163516 35.5305592 102.94543017 31.92578125 100.71875 C30.12435441 99.22791399 28.49273102 97.80060679 27 96 C27 95.34 27 94.68 27 94 C25.515 93.505 25.515 93.505 24 93 C22.68359375 91.00390625 22.68359375 91.00390625 21.4375 88.5625 C20.08610241 85.93969409 19.0968741 84.0968741 17 82 C15.08170963 77.84217445 13.70730571 73.52675653 13 69 C12.34 69 11.68 69 11 69 C11 67.35 11 65.7 11 64 C10.34 64 9.68 64 9 64 C8.66226563 62.86820313 8.32453125 61.73640625 7.9765625 60.5703125 C7.52637362 59.08844078 7.07583457 57.60667541 6.625 56.125 C6.40328125 55.37863281 6.1815625 54.63226563 5.953125 53.86328125 C4.6829012 49.53656848 4.6829012 49.53656848 2 46 C1.69140625 43.4453125 1.69140625 43.4453125 1.5625 40.125 C1.17049977 33.08351448 0.20303445 26.2315016 -0.98413086 19.28173828 C-1.93023638 13.47638334 -2.16103061 7.87800615 -2 2 C-1.34 2 -0.68 2 0 2 C0 1.34 0 0.68 0 0 Z " fill="#F31CAF" transform="translate(150,140)"/>
<path d="M0 0 C0 5.61 0 11.22 0 17 C0.66 17 1.32 17 2 17 C2.495 24.92 2.495 24.92 3 33 C3.66 33 4.32 33 5 33 C5.18549623 37.33677397 4.68226486 40.56058318 3.1875 44.625 C1.70838071 48.80805316 0.49082243 52.9254159 -0.5 57.25 C-1.54334568 61.59916378 -2.90182172 65.2943384 -5.03515625 69.21484375 C-6.15817651 71.22670919 -6.15817651 71.22670919 -7.4375 74.375 C-13.39453125 88.1953125 -13.39453125 88.1953125 -19 93 C-19.78697266 93.80630859 -19.78697266 93.80630859 -20.58984375 94.62890625 C-23.62234936 97.59264756 -25.85272549 99.40745555 -30.1875 99.625 C-34 99 -34 99 -36.5 97.125 C-38 95 -38 95 -38 93 C-38.66 93 -39.32 93 -40 93 C-41.21437904 88.67668948 -41.18389494 84.58807011 -41.1875 80.125 C-41.19974609 79.33480469 -41.21199219 78.54460937 -41.22460938 77.73046875 C-41.2363036 73.04498321 -40.69586143 69.42398634 -39 65 C-38.25690488 61.94202739 -37.56280936 58.87638947 -36.87890625 55.8046875 C-35.97287572 52.91344342 -34.79795724 51.39266618 -33 49 C-32.28440736 46.91852331 -31.64374492 44.81041601 -31.0625 42.6875 C-29.54912196 37.53165693 -27.84144215 33.52854842 -25 29 C-24.25385335 27.61316912 -23.52499659 26.21691566 -22.8125 24.8125 C-22.48894531 24.17957031 -22.16539063 23.54664063 -21.83203125 22.89453125 C-20.97790487 20.9496895 -20.45470289 19.07142428 -20 17 C-19.34 17 -18.68 17 -18 17 C-17.67 15.35 -17.34 13.7 -17 12 C-16.34 12 -15.68 12 -15 12 C-14.67 11.01 -14.34 10.02 -14 9 C-13 11 -13 11 -13 13 C-12.46375 12.154375 -11.9275 11.30875 -11.375 10.4375 C-9.67425413 7.90151238 -7.86918861 5.49023469 -5.9375 3.125 C-5.45152344 2.52945313 -4.96554688 1.93390625 -4.46484375 1.3203125 C-3 0 -3 0 0 0 Z " fill="#F31DAF" transform="translate(79,143)"/>
<path d="M0 0 C7.16962025 -0.60759494 7.16962025 -0.60759494 10.5625 1.875 C17.03678163 10.17536107 22.57096191 18.99487813 28 28 C28.57234375 28.89074219 29.1446875 29.78148437 29.734375 30.69921875 C31 33 31 33 31 36 C31.66 36 32.32 36 33 36 C33.33773437 36.85464844 33.67546875 37.70929688 34.0234375 38.58984375 C34.46945313 39.69457031 34.91546875 40.79929688 35.375 41.9375 C35.81585938 43.03964844 36.25671875 44.14179688 36.7109375 45.27734375 C37.71041432 48.11230186 37.71041432 48.11230186 40 49 C38.956435 52.47854999 37.7127246 55.62350904 36 58.8125 C34.15449929 62.38730323 33.21113137 65.77970739 32.4921875 69.7265625 C32 72 32 72 31.015625 74.625 C29.6475774 79.17112739 29.28539806 83.65878623 28.875 88.375 C28.78863281 89.30183594 28.70226562 90.22867188 28.61328125 91.18359375 C28.40251115 93.45522701 28.19826819 95.72724727 28 98 C28.99 98.33 29.98 98.66 31 99 C31 100.65 31 102.3 31 104 C29.82460004 103.07347299 28.65989423 102.13336613 27.5 101.1875 C26.8503125 100.66542969 26.200625 100.14335937 25.53125 99.60546875 C24 98 24 98 24 95 C23.01 94.67 22.02 94.34 21 94 C19.24609375 91.3046875 19.24609375 91.3046875 17.4375 87.875 C16.83808594 86.75867188 16.23867187 85.64234375 15.62109375 84.4921875 C14.0122276 81.02634091 12.98940686 77.68350606 12 74 C11.40215114 72.44760255 10.77899514 70.90459193 10.125 69.375 C7.66459586 63.3760371 5.85424913 57.20694661 4 51 C3.67 50.01 3.34 49.02 3 48 C3.27571139 45.99124558 3.60235737 43.98821313 4 42 C3.34 42 2.68 42 2 42 C1.67 36.72 1.34 31.44 1 26 C0.34 26 -0.32 26 -1 26 C-1 20.39 -1 14.78 -1 9 C-8.34311525 12.67155762 -11.67399959 18.70838371 -15 26 C-16.21313964 22.36058108 -15.66242173 21.41226216 -14.25 17.9375 C-13.90453125 17.05964844 -13.5590625 16.18179688 -13.203125 15.27734375 C-12 13 -12 13 -9 11 C-8.525625 10.175 -8.05125 9.35 -7.5625 8.5 C-5.90171111 5.84273777 -4.87401347 5.09014304 -2 4 C-2 3.34 -2 2.68 -2 2 C-1.34 2 -0.68 2 0 2 C0 1.34 0 0.68 0 0 Z " fill="#FC8F31" transform="translate(80,134)"/>
<path d="M0 0 C1.26714844 -0.02578125 2.53429687 -0.0515625 3.83984375 -0.078125 C5.43505859 0.08429688 5.43505859 0.08429688 7.0625 0.25 C9.32847775 3.64896662 10.04580144 6.83940743 10.9375 10.75 C12.53299653 17.45108544 14.55946542 23.82628294 17.0625 30.25 C18.50521297 34.14532501 19.30718599 37.09033813 19.0625 41.25 C20.3825 41.25 21.7025 41.25 23.0625 41.25 C23.01480469 40.45207031 22.96710938 39.65414062 22.91796875 38.83203125 C23.10084583 34.29964514 24.1571035 30.28912445 25.375 25.9375 C25.58833984 25.11443359 25.80167969 24.29136719 26.02148438 23.44335938 C26.23740234 22.66154297 26.45332031 21.87972656 26.67578125 21.07421875 C26.96642456 20.00820435 26.96642456 20.00820435 27.26293945 18.9206543 C27.52679443 18.36933838 27.79064941 17.81802246 28.0625 17.25 C29.0525 16.92 30.0425 16.59 31.0625 16.25 C31.94332622 13.53681956 32.64126229 10.96116483 33.25 8.1875 C33.51586914 7.04958008 33.51586914 7.04958008 33.78710938 5.88867188 C34.22386967 4.01178303 34.64469156 2.1311984 35.0625 0.25 C37.37493792 0.22314588 39.6874627 0.20367159 42 0.1875 C43.28777344 0.17589844 44.57554687 0.16429687 45.90234375 0.15234375 C49.0625 0.25 49.0625 0.25 50.0625 1.25 C50.27934991 2.80371455 50.43414113 4.36617326 50.5625 5.9296875 C50.6445166 6.91219482 50.7265332 7.89470215 50.81103516 8.90698242 C50.93551025 10.49990112 50.93551025 10.49990112 51.0625 12.125 C51.14935059 13.20821533 51.23620117 14.29143066 51.32568359 15.4074707 C52.41778781 29.35177703 53.28858876 43.25761802 53.0625 57.25 C51.41675434 57.27688151 49.77088587 57.29634123 48.125 57.3125 C46.75021484 57.32990234 46.75021484 57.32990234 45.34765625 57.34765625 C43.0625 57.25 43.0625 57.25 42.0625 56.25 C40.98532048 50.16710387 40.73615584 44.08329195 40.45703125 37.921875 C40.22932086 33.30485054 39.79108157 28.81577781 39.0625 24.25 C38.4025 24.25 37.7425 24.25 37.0625 24.25 C36.68158203 25.53583984 36.68158203 25.53583984 36.29296875 26.84765625 C34.49389678 32.82434854 32.52138069 38.51261172 30.0625 44.25 C28.97584376 47.67337569 27.94228569 51.10871383 26.9296875 54.5546875 C26.0625 57.25 26.0625 57.25 25.0625 58.25 C23.39820949 58.34823937 21.72968069 58.37973631 20.0625 58.375 C18.70125 58.37886719 18.70125 58.37886719 17.3125 58.3828125 C15.0625 58.25 15.0625 58.25 14.0625 57.25 C14.02169217 55.25041636 14.01995644 53.24954746 14.0625 51.25 C13.4025 51.25 12.7425 51.25 12.0625 51.25 C4.0625 27.25 4.0625 27.25 3.06591797 23.94775391 C2.36165437 21.1152385 2.36165437 21.1152385 0.0625 20.25 C0.08570313 21.24515625 0.10890625 22.2403125 0.1328125 23.265625 C0.31027589 34.71340025 -0.62106536 45.88399739 -1.9375 57.25 C-8.08984375 57.34765625 -8.08984375 57.34765625 -9.9375 57.25 C-12.581312 54.606188 -11.18619425 47.20718717 -11.19506836 43.67529297 C-11.11663345 34.36061729 -10.37965045 25.14133553 -9.5 15.875 C-9.4326062 15.15456512 -9.3652124 14.43413025 -9.29577637 13.69186401 C-8.00582457 0.09753289 -8.00582457 0.09753289 0 0 Z " fill="#0D0D0D" transform="translate(230.9375,154.75)"/>
<path d="M0 0 C1.25586914 -0.03673828 1.25586914 -0.03673828 2.53710938 -0.07421875 C6.60781701 -0.09355703 8.88838173 0.05332298 12.46484375 2.1484375 C16.0349935 6.17811147 15.56566355 10.27135786 15.5703125 15.51171875 C15.57126923 16.19176468 15.57222595 16.87181061 15.57321167 17.57246399 C15.57389007 19.0037953 15.57205955 20.43512974 15.56787109 21.86645508 C15.56249306 24.06533628 15.56784022 26.26401554 15.57421875 28.46289062 C15.5735584 29.85416712 15.57227812 31.24544349 15.5703125 32.63671875 C15.56918457 33.90475342 15.56805664 35.17278809 15.56689453 36.47924805 C15.4375 39.375 15.4375 39.375 14.4375 40.375 C11.76691149 40.51615161 9.11317762 40.41747107 6.4375 40.375 C6.1075 39.385 5.7775 38.395 5.4375 37.375 C4.303125 37.87 3.16875 38.365 2 38.875 C-3.22577129 40.8046576 -8.33209643 41.60678005 -13.65234375 39.578125 C-16.90868632 37.84673631 -18.37388756 36.94083732 -19.5625 33.375 C-19.93398866 28.35990309 -19.78160704 25.32100218 -16.5625 21.375 C-10.42964232 15.51471377 -3.79809857 15.14030528 4.4375 14.375 C3.34965032 11.12516865 3.34965032 11.12516865 1.4375 8.375 C-1.25904854 8.30180379 -3.92941458 8.28257463 -6.625 8.3125 C-7.76291992 8.31926758 -7.76291992 8.31926758 -8.92382812 8.32617188 C-10.80341871 8.3379932 -12.68296899 8.35592922 -14.5625 8.375 C-14.8925 6.395 -15.2225 4.415 -15.5625 2.375 C-10.29850226 0.23516352 -5.59215616 0.00864989 0 0 Z " fill="#070707" transform="translate(452.5625,171.625)"/>
<path d="M0 0 C3.63 0 7.26 0 11 0 C11.45375 1.381875 11.9075 2.76375 12.375 4.1875 C13.22262176 6.75848544 14.09245524 9.2092408 15.1875 11.6875 C16.19106488 14.54380004 16.13973715 16.99565137 16 20 C16.66 20 17.32 20 18 20 C18 20.99 18 21.98 18 23 C18.66 23 19.32 23 20 23 C20.18175781 22.38253906 20.36351562 21.76507813 20.55078125 21.12890625 C25.1011236 5.79775281 25.1011236 5.79775281 28 0 C30.97 0 33.94 0 37 0 C36.36519395 5.922178 34.78907028 11.28827744 32.9375 16.9375 C32.51500977 18.24944336 32.51500977 18.24944336 32.08398438 19.58789062 C31.39434445 21.72694327 30.69959171 23.86418579 30 26 C29.34 26 28.68 26 28 26 C26.99270225 29.8171283 26.34778565 33.67138741 25.6953125 37.5625 C24.92313744 40.26945078 23.75155119 41.82566059 22 44 C21.29485154 46.14733927 21.29485154 46.14733927 21 48 C20.34 48 19.68 48 19 48 C18.79375 48.598125 18.5875 49.19625 18.375 49.8125 C16.41076615 52.93741749 14.42634728 53.70703876 11 55 C7.125 55.1875 7.125 55.1875 4 55 C2.50178941 51.62902617 2 49.79557881 2 46 C3.27875 45.87625 4.5575 45.7525 5.875 45.625 C9.34790936 45.30957601 9.34790936 45.30957601 12 43 C12.23299193 33.46674696 8.18947971 24.10878598 4.5 15.5 C3.40540299 12.94594032 2.33017582 10.39730104 1.3125 7.8125 C1.06113281 7.17957031 0.80976563 6.54664063 0.55078125 5.89453125 C0 4 0 4 0 0 Z " fill="#181818" transform="translate(290,172)"/>
<path d="M0 0 C3.64860412 2.76588805 4.87952516 4.19761163 5.56762695 8.78051758 C5.56684241 10.23542901 5.5390037 11.69050404 5.48828125 13.14453125 C5.48120651 13.91431808 5.47413177 14.68410492 5.46684265 15.47721863 C5.43896925 17.92332303 5.37625137 20.36709384 5.3125 22.8125 C5.28740768 24.47587827 5.26459613 26.13929262 5.24414062 27.80273438 C5.18916671 31.86938157 5.10294927 35.93429589 5 40 C3.52093108 40.02689216 2.04172517 40.04634621 0.5625 40.0625 C-0.67306641 40.07990234 -0.67306641 40.07990234 -1.93359375 40.09765625 C-4 40 -4 40 -5 39 C-5.15858842 36.85613343 -5.25129298 34.70733162 -5.31640625 32.55859375 C-5.35830078 31.25341797 -5.40019531 29.94824219 -5.44335938 28.60351562 C-5.48317608 27.2148467 -5.52288825 25.82617478 -5.5625 24.4375 C-5.60567989 23.04490817 -5.649294 21.65232972 -5.69335938 20.25976562 C-5.79985876 16.83995199 -5.90186923 13.42006237 -6 10 C-11.60059447 9.80061677 -11.60059447 9.80061677 -17 11 C-18.34106405 13.6821281 -18.21450419 15.88398032 -18.31640625 18.8828125 C-18.35830078 20.04941406 -18.40019531 21.21601563 -18.44335938 22.41796875 C-18.50233398 24.25294922 -18.50233398 24.25294922 -18.5625 26.125 C-18.60568359 27.35605469 -18.64886719 28.58710938 -18.69335938 29.85546875 C-18.79968704 32.90352853 -18.90171781 35.9516719 -19 39 C-21.97 39 -24.94 39 -28 39 C-28 26.46 -28 13.92 -28 1 C-25.69 1 -23.38 1 -21 1 C-20.67 1.99 -20.34 2.98 -20 4 C-19.29875 3.34 -18.5975 2.68 -17.875 2 C-12.78303061 -1.40685721 -5.80817086 -1.09370235 0 0 Z " fill="#0E0E0E" transform="translate(363,172)"/>
<path d="M0 0 C0 4.62 0 9.24 0 14 C2.97 14 5.94 14 9 14 C9 16.97 9 19.94 9 23 C6.36 23 3.72 23 1 23 C1.33 29.6 1.66 36.2 2 43 C4.31 43.99 6.62 44.98 9 46 C9.33 48.97 9.66 51.94 10 55 C-0.6653883 55.62128476 -0.6653883 55.62128476 -5.625 53.3125 C-8.75065519 50.2690989 -9.8584508 47.67012837 -10.22705078 43.32104492 C-10.21657715 42.38365479 -10.20610352 41.44626465 -10.1953125 40.48046875 C-10.18886719 39.45888672 -10.18242187 38.43730469 -10.17578125 37.38476562 C-10.15902344 36.32966797 -10.14226562 35.27457031 -10.125 34.1875 C-10.11597656 33.11306641 -10.10695313 32.03863281 -10.09765625 30.93164062 C-10.07415306 28.28753146 -10.04129575 25.64388128 -10 23 C-11.65 23 -13.3 23 -15 23 C-15 20.03 -15 17.06 -15 14 C-13.35 14 -11.7 14 -10 14 C-10 9.71 -10 5.42 -10 1 C-6 0 -6 0 0 0 Z " fill="#1E1E1E" transform="translate(390,158)"/>
<path d="M0 0 C2.64 0 5.28 0 8 0 C10 2.5 10 2.5 11 5 C11.86625 4.175 12.7325 3.35 13.625 2.5 C16.17890641 0.34134101 16.86639751 0.0123706 20.375 -0.3125 C21.24125 -0.209375 22.1075 -0.10625 23 0 C23.33 2.97 23.66 5.94 24 9 C17.5 12 17.5 12 13 12 C13 12.66 13 13.32 13 14 C12.34 14 11.68 14 11 14 C10.67 22.58 10.34 31.16 10 40 C6.7 40 3.4 40 0 40 C0 26.8 0 13.6 0 0 Z " fill="#151515" transform="translate(407,172)"/>
<path d="M0 0 C-1.32 0.99 -2.64 1.98 -4 3 C-1.525 3.495 -1.525 3.495 1 4 C1.92017937 13.73004484 1.92017937 13.73004484 -0.3359375 16.84375 C-2 18.1875 -2 18.1875 -5 20 C-4.34 20.99 -3.68 21.98 -3 23 C-7.34860504 25.45406605 -11.09569003 25.68413063 -16 25 C-18.7708251 23.95644249 -20.56250711 22.77733857 -23 21 C-24.4731877 16.58043689 -24.70502277 12.74182095 -22.9375 8.375 C-18.02169716 2.34917717 -13.05789179 0.41736206 -5.453125 -0.8359375 C-3 -1 -3 -1 0 0 Z " fill="#161616" transform="translate(457,187)"/>
<path d="M0 0 C3.71137193 -0.3452439 5.51625962 -0.31499373 8.6875 1.75 C10.73921316 3.74626145 12.47021124 5.58454406 14 8 C14 8.66 14 9.32 14 10 C14.99 10.33 15.98 10.66 17 11 C17.6875 13.0625 17.6875 13.0625 18 15 C18.66 15 19.32 15 20 15 C20 15.99 20 16.98 20 18 C20.66 18 21.32 18 22 18 C23.49347477 20.51326159 24.96961326 23.03434909 26.4375 25.5625 C26.85837891 26.26697266 27.27925781 26.97144531 27.71289062 27.69726562 C30.31794699 32.21964348 31.62297876 35.78339707 32 41 C29.40944525 38.69313713 28.12248205 36.45368065 26.6875 33.3125 C24.61075095 28.98171845 22.1963169 25.3829617 19.13671875 21.69140625 C18 20 18 20 18 17 C17.4225 16.731875 16.845 16.46375 16.25 16.1875 C13.94449957 14.97070811 11.97943808 13.69666121 10 12 C10 11.34 10 10.68 10 10 C9.01 9.67 8.02 9.34 7 9 C6.505 8.01 6.505 8.01 6 7 C2.97065509 6.34227572 2.97065509 6.34227572 0 6 C0 6.66 0 7.32 0 8 C-0.66 8 -1.32 8 -2 8 C-2 8.66 -2 9.32 -2 10 C-3.16965793 11.04497358 -4.38768092 12.036096 -5.625 13 C-9.69900948 16.44059458 -12.09603304 20.06792846 -14.6875 24.6875 C-16.21387366 27.37682502 -17.88883767 29.73804036 -20 32 C-20.66 32 -21.32 32 -22 32 C-22 32.99 -22 33.98 -22 35 C-22.66 35 -23.32 35 -24 35 C-24 35.99 -24 36.98 -24 38 C-24.66 37.67 -25.32 37.34 -26 37 C-25.67 36.01 -25.34 35.02 -25 34 C-24.34 34 -23.68 34 -23 34 C-22.88398437 33.42121094 -22.76796875 32.84242188 -22.6484375 32.24609375 C-21.9534251 29.83867126 -20.99232792 28.15492607 -19.625 26.0625 C-17.68846589 23.0745348 -15.82393415 20.05831382 -14 17 C-12.88611899 15.13913243 -11.76078591 13.28507934 -10.625 11.4375 C-9.77808594 10.04337891 -9.77808594 10.04337891 -8.9140625 8.62109375 C-6.8727194 5.82570351 -4.8398818 3.96571623 -2 2 C-1.34 2 -0.68 2 0 2 C0 1.34 0 0.68 0 0 Z " fill="#A43850" transform="translate(150,134)"/>
<path d="M0 0 C7.16962025 -0.60759494 7.16962025 -0.60759494 10.5625 1.875 C18.69782564 12.30490467 26.87896047 23.7540359 32 36 C31.58984375 38.21484375 31.58984375 38.21484375 31 40 C30.46890625 39.05898437 29.9378125 38.11796875 29.390625 37.1484375 C28.67720096 35.89055828 27.96365265 34.63274953 27.25 33.375 C26.90195313 32.75753906 26.55390625 32.14007813 26.1953125 31.50390625 C24.47425819 28.47612553 22.71167093 25.53236215 20.734375 22.6640625 C19 20 19 20 19 18 C18.34 18 17.68 18 17 18 C16 16.33333333 15 14.66666667 14 13 C11.3247509 9.6368297 9.27473386 7.73332281 5.0625 6.9375 C0.62235399 6.66259415 -1.62710608 8.06704877 -5 11 C-9.5414881 15.49607321 -12.35643323 20.20448823 -15 26 C-16.21313964 22.36058108 -15.66242173 21.41226216 -14.25 17.9375 C-13.90453125 17.05964844 -13.5590625 16.18179688 -13.203125 15.27734375 C-12 13 -12 13 -9 11 C-8.525625 10.175 -8.05125 9.35 -7.5625 8.5 C-5.90171111 5.84273777 -4.87401347 5.09014304 -2 4 C-2 3.34 -2 2.68 -2 2 C-1.34 2 -0.68 2 0 2 C0 1.34 0 0.68 0 0 Z " fill="#AE5D41" transform="translate(80,134)"/>
<path d="M0 0 C1 2 1 2 0.3984375 4.3203125 C-1.74290343 10.1885674 -3.92338072 16.16074786 -8 21 C-8.66 21 -9.32 21 -10 21 C-10.2165625 21.8971875 -10.2165625 21.8971875 -10.4375 22.8125 C-10.8872439 24.56150404 -11.42892341 26.28677023 -12 28 C-12.66 28 -13.32 28 -14 28 C-14.1546875 29.7325 -14.1546875 29.7325 -14.3125 31.5 C-14.57863492 34.48071107 -15.33233934 36.97850624 -16.4140625 39.74609375 C-18.04395841 43.94788609 -19.09594709 48.16726967 -20.0625 52.5625 C-20.38505176 54.00167671 -20.70925363 55.44048464 -21.03515625 56.87890625 C-21.19153564 57.56976318 -21.34791504 58.26062012 -21.5090332 58.97241211 C-21.98228946 60.92685924 -22.54432879 62.85915114 -23.109375 64.7890625 C-25.03440314 71.72929555 -23.80972635 78.94381324 -23 86 C-23.33 85.34 -23.66 84.68 -24 84 C-24.66 84 -25.32 84 -26 84 C-27.21437904 79.67668948 -27.18389494 75.58807011 -27.1875 71.125 C-27.19974609 70.33480469 -27.21199219 69.54460937 -27.22460938 68.73046875 C-27.2363036 64.04498321 -26.69586143 60.42398634 -25 56 C-24.25690488 52.94202739 -23.56280936 49.87638947 -22.87890625 46.8046875 C-21.97287572 43.91344342 -20.79795724 42.39266618 -19 40 C-18.28440736 37.91852331 -17.64374492 35.81041601 -17.0625 33.6875 C-15.54912196 28.53165693 -13.84144215 24.52854842 -11 20 C-10.25385335 18.61316912 -9.52499659 17.21691566 -8.8125 15.8125 C-8.48894531 15.17957031 -8.16539063 14.54664063 -7.83203125 13.89453125 C-6.97790487 11.9496895 -6.45470289 10.07142428 -6 8 C-5.34 8 -4.68 8 -4 8 C-3.67 6.35 -3.34 4.7 -3 3 C-2.34 3 -1.68 3 -1 3 C-0.67 2.01 -0.34 1.02 0 0 Z " fill="#E452B4" transform="translate(65,152)"/>
<path d="M0 0 C3.28220895 1.64110448 3.74570789 4.69322988 5 8 C5 8.99 5 9.98 5 11 C5.66 11 6.32 11 7 11 C7 12.65 7 14.3 7 16 C7.66 16 8.32 16 9 16 C10.13109109 19.16452342 11.25373549 22.33198282 12.375 25.5 C12.69210938 26.386875 13.00921875 27.27375 13.3359375 28.1875 C16.54625857 37.28340971 18.30809546 44.81002467 18.125 54.5 C18.11597656 55.4178125 18.10695312 56.335625 18.09765625 57.28125 C18.07432432 59.52111556 18.04159235 61.76041183 18 64 C17.34 64 16.68 64 16 64 C15.9175 64.5775 15.835 65.155 15.75 65.75 C14.71846213 68.84461361 13.66135342 70.08928472 11 72 C8.22828846 72.56913995 5.74217301 72.72838971 3 72 C1.68 70.68 0.36 69.36 -1 68 C3.29 68.33 7.58 68.66 12 69 C12.33 68.01 12.66 67.02 13 66 C13.66 66 14.32 66 15 66 C15.66 60.72 16.32 55.44 17 50 C16.34 50 15.68 50 15 50 C12.75907254 42.31031999 10.62996956 34.62471075 8.7265625 26.84375 C7.62199153 22.52048298 6.32858041 18.25899535 5 14 C4.34 14 3.68 14 3 14 C2.01 9.38 1.02 4.76 0 0 Z " fill="#D13F94" transform="translate(181,170)"/>
<path d="M0 0 C0 3.3 0 6.6 0 10 C-1.32 10 -2.64 10 -4 10 C-4 10.66 -4 11.32 -4 12 C-5.258125 12.185625 -6.51625 12.37125 -7.8125 12.5625 C-8.87404297 12.71912109 -8.87404297 12.71912109 -9.95703125 12.87890625 C-12 13 -12 13 -15 12 C-15 9.69 -15 7.38 -15 5 C-14.34 5 -13.68 5 -13 5 C-13 4.34 -13 3.68 -13 3 C-12.01 3 -11.02 3 -10 3 C-10 2.34 -10 1.68 -10 1 C-6.56484998 0.37542727 -3.50935186 0 0 0 Z " fill="#D7D7D7" transform="translate(458,192)"/>
<path d="M0 0 C2.97 0 5.94 0 9 0 C8.67 0.66 8.34 1.32 8 2 C5.69 1.67 3.38 1.34 1 1 C1 13.54 1 26.08 1 39 C3.97 39 6.94 39 10 39 C9.98952637 38.22809326 9.97905273 37.45618652 9.96826172 36.66088867 C9.92673546 33.16979212 9.90068443 29.67874751 9.875 26.1875 C9.85824219 24.97255859 9.84148437 23.75761719 9.82421875 22.50585938 C9.81777344 21.34248047 9.81132812 20.17910156 9.8046875 18.98046875 C9.79421387 17.90692139 9.78374023 16.83337402 9.77294922 15.72729492 C10 13 10 13 12 10 C12.66 10.33 13.32 10.66 14 11 C13.67 11.33 13.34 11.66 13 12 C12.85361067 14.13245482 12.77254188 16.26945337 12.71875 18.40625 C12.68136719 19.70691406 12.64398438 21.00757813 12.60546875 22.34765625 C12.5697606 23.7317567 12.53461129 25.11587168 12.5 26.5 C12.43253065 29.19814351 12.35879127 31.89584869 12.28125 34.59375 C12.23581055 36.39875977 12.23581055 36.39875977 12.18945312 38.24023438 C12 41 12 41 11 42 C7.37 42 3.74 42 0 42 C0 28.14 0 14.28 0 0 Z " fill="#939393" transform="translate(334,172)"/>
<path d="M0 0 C-0.33924686 2.89588983 -0.56062424 4.5522352 -2.63671875 6.66796875 C-3.31347656 7.16941406 -3.99023438 7.67085937 -4.6875 8.1875 C-8.79074684 11.54203275 -11.11243219 15.09716172 -13.6875 19.6875 C-15.21387366 22.37682502 -16.88883767 24.73804036 -19 27 C-19.66 27 -20.32 27 -21 27 C-21 27.99 -21 28.98 -21 30 C-21.66 30 -22.32 30 -23 30 C-23 30.99 -23 31.98 -23 33 C-23.66 32.67 -24.32 32.34 -25 32 C-24.505 30.515 -24.505 30.515 -24 29 C-23.34 29 -22.68 29 -22 29 C-21.88398437 28.42121094 -21.76796875 27.84242188 -21.6484375 27.24609375 C-20.9534251 24.83867126 -19.99232792 23.15492607 -18.625 21.0625 C-16.68847152 18.07454349 -14.82798183 15.0557992 -13 12 C-11.8210911 10.07803716 -10.63342839 8.16141902 -9.4375 6.25 C-8.83808594 5.28578125 -8.23867187 4.3215625 -7.62109375 3.328125 C-5.16427353 -0.20022404 -4.42841476 0 0 0 Z " fill="#A83126" transform="translate(149,139)"/>
<path d="M0 0 C1.98 0 3.96 0 6 0 C6.33 0.66 6.66 1.32 7 2 C5.35 2 3.7 2 2 2 C1.69313542 13.78989444 1.46898221 24.63688423 5 36 C5.4340779 38.33517831 5.73171456 40.63908816 6 43 C4.68 43.99 3.36 44.98 2 46 C1.96261719 45.22140625 1.92523438 44.4428125 1.88671875 43.640625 C1.40339805 35.41469621 0.4020832 27.40217797 -0.98364258 19.28222656 C-1.93073842 13.476804 -2.16103521 7.87817421 -2 2 C-1.34 2 -0.68 2 0 2 C0 1.34 0 0.68 0 0 Z " fill="#F53781" transform="translate(150,140)"/>
<path d="M0 0 C1 2 1 2 0.3984375 4.3203125 C-1.74290343 10.1885674 -3.92338072 16.16074786 -8 21 C-8.66 21 -9.32 21 -10 21 C-10.2165625 21.8971875 -10.2165625 21.8971875 -10.4375 22.8125 C-10.8872439 24.56150404 -11.42892341 26.28677023 -12 28 C-12.66 28 -13.32 28 -14 28 C-14.0825 29.11375 -14.165 30.2275 -14.25 31.375 C-14.87919026 36.6151219 -16.88630871 41.20241234 -19 46 C-19.66 45.67 -20.32 45.34 -21 45 C-20.09285551 42.14249486 -19.17467817 39.28933195 -18.25 36.4375 C-17.99734375 35.63763672 -17.7446875 34.83777344 -17.484375 34.01367188 C-15.81807738 28.91063542 -13.79376046 24.58289595 -11 20 C-10.25535595 18.61236173 -9.52256812 17.21814505 -8.8125 15.8125 C-8.48894531 15.17957031 -8.16539063 14.54664063 -7.83203125 13.89453125 C-6.97790487 11.9496895 -6.45470289 10.07142428 -6 8 C-5.34 8 -4.68 8 -4 8 C-3.67 6.35 -3.34 4.7 -3 3 C-2.34 3 -1.68 3 -1 3 C-0.67 2.01 -0.34 1.02 0 0 Z " fill="#BE5580" transform="translate(65,152)"/>
<path d="M0 0 C1.9375 0.75 1.9375 0.75 4 2 C5.36794183 5.59743946 5.12943971 9.33486472 5.1328125 13.13671875 C5.13376923 13.81676468 5.13472595 14.49681061 5.13571167 15.19746399 C5.13639007 16.6287953 5.13455955 18.06012974 5.13037109 19.49145508 C5.12499306 21.69033628 5.13034022 23.88901554 5.13671875 26.08789062 C5.1360584 27.47916712 5.13477812 28.87044349 5.1328125 30.26171875 C5.13168457 31.52975342 5.13055664 32.79778809 5.12939453 34.10424805 C5 37 5 37 4 38 C1.32941149 38.14115161 -1.32432238 38.04247107 -4 38 C-4.495 36.515 -4.495 36.515 -5 35 C-5.66 34.67 -6.32 34.34 -7 34 C-5.68 34 -4.36 34 -3 34 C-3 34.66 -3 35.32 -3 36 C-1.02 36.33 0.96 36.66 3 37 C3 26.11 3 15.22 3 4 C2.34 4 1.68 4 1 4 C0.67 2.68 0.34 1.36 0 0 Z " fill="#565656" transform="translate(463,174)"/>
<path d="M0 0 C3 1 3 1 4.25 3.1875 C6.59396825 6.95459183 9.18748113 9.6972386 13 12 C19.01191268 13.04969904 22.27654809 11.80449138 27.234375 8.37890625 C29.33780551 6.73618287 31.22652735 4.99515673 33 3 C31.25 9.75 31.25 9.75 29 12 C27.33927151 12.68132451 25.672233 13.34742127 24 14 C23.01 14.66 22.02 15.32 21 16 C16.17992926 16.16530929 12.24254263 14.94598412 8.4140625 12.03125 C4.5462965 8.27613738 1.75337617 5.15967468 0 0 Z " fill="#FBD2B7" transform="translate(101,228)"/>
<path d="M0 0 C0.66 0 1.32 0 2 0 C2.66 0.66 3.32 1.32 4 2 C4.66 2.33 5.32 2.66 6 3 C6.33 2.01 6.66 1.02 7 0 C7.99 0.33 8.98 0.66 10 1 C-0.6248425 13.66808144 -0.6248425 13.66808144 -5.15234375 14.30078125 C-7.375 14.3125 -7.375 14.3125 -11 14 C-11.33 13.34 -11.66 12.68 -12 12 C-8.7 11.67 -5.4 11.34 -2 11 C-2.33 10.01 -2.66 9.02 -3 8 C-1.68 8 -0.36 8 1 8 C0.67 5.36 0.34 2.72 0 0 Z " fill="#E92EB1" transform="translate(56,228)"/>
<path d="M0 0 C0.99 0.33 1.98 0.66 3 1 C4.203125 3.87109375 4.203125 3.87109375 5.25 7.4375 C5.78367187 9.19900391 5.78367187 9.19900391 6.328125 10.99609375 C7 14 7 14 6 16 C5.34 14.02 4.68 12.04 4 10 C3.21625 10.66 2.4325 11.32 1.625 12 C-1 14 -1 14 -3 14 C-2.40380045 9.13103697 -1.43023178 4.67209049 0 0 Z " fill="#FDECE4" transform="translate(82,184)"/>
<path d="M0 0 C1.26714844 -0.02578125 2.53429687 -0.0515625 3.83984375 -0.078125 C5.43505859 0.08429688 5.43505859 0.08429688 7.0625 0.25 C9.17294382 3.41566573 9.81802077 5.76197415 10.6875 9.4375 C11.07808594 11.06751953 11.07808594 11.06751953 11.4765625 12.73046875 C11.66992188 13.56191406 11.86328125 14.39335937 12.0625 15.25 C10.0625 14.25 10.0625 14.25 8.9375 11.9375 C8.0625 9.25 8.0625 9.25 8.0625 5.25 C7.4025 5.25 6.7425 5.25 6.0625 5.25 C6.0625 4.26 6.0625 3.27 6.0625 2.25 C1.7725 2.25 -2.5175 2.25 -6.9375 2.25 C-6.916875 3.61125 -6.89625 4.9725 -6.875 6.375 C-6.8691072 10.10514162 -7.18562741 13.58462114 -7.9375 17.25 C-8.2675 17.25 -8.5975 17.25 -8.9375 17.25 C-8.79728195 14.60375716 -8.65060224 11.95815422 -8.5 9.3125 C-8.46068359 8.55775391 -8.42136719 7.80300781 -8.38085938 7.02539062 C-7.95472218 -0.28450134 -7.1867807 0.08755469 0 0 Z " fill="#595959" transform="translate(230.9375,154.75)"/>
<path d="M0 0 C1 2 1 2 -0.1875 5.625 C-4.81809701 17.21206468 -4.81809701 17.21206468 -9 20 C-10.2188121 23.55672179 -10.2188121 23.55672179 -11 27 C-12.45606519 22.47907032 -11.27032841 19.48351204 -10 15 C-9.34 15 -8.68 15 -8 15 C-7.7834375 14.1028125 -7.7834375 14.1028125 -7.5625 13.1875 C-6.60379413 9.45919938 -5.66869007 7.66869007 -3 5 C-1.96642853 3.35394174 -0.95939668 1.69036558 0 0 Z " fill="#D92290" transform="translate(61,165)"/>
<path d="M0 0 C2 1.25 2 1.25 4 3 C4 4.32 4 5.64 4 7 C4.66 7 5.32 7 6 7 C6.86656998 9.74663704 7.71851786 12.4964243 8.5625 15.25 C8.80935547 16.02730469 9.05621094 16.80460937 9.31054688 17.60546875 C9.53935547 18.35957031 9.76816406 19.11367187 10.00390625 19.890625 C10.21861572 20.58188477 10.4333252 21.27314453 10.65454102 21.98535156 C11.0491764 24.28678704 10.71084423 25.79616682 10 28 C8.50260417 23.5078125 7.00520833 19.015625 5.5078125 14.5234375 C5.24774414 13.74967773 4.98767578 12.97591797 4.71972656 12.17871094 C4.09483611 10.28708189 3.50872228 8.38272809 2.9296875 6.4765625 C2.26336338 3.84826596 2.26336338 3.84826596 0 3 C0 8.61 0 14.22 0 20 C-0.33 20 -0.66 20 -1 20 C-1.02689449 17.04160645 -1.04678741 14.08345573 -1.0625 11.125 C-1.07087891 10.28324219 -1.07925781 9.44148437 -1.08789062 8.57421875 C-1.09111328 7.76855469 -1.09433594 6.96289062 -1.09765625 6.1328125 C-1.10289307 5.38918457 -1.10812988 4.64555664 -1.11352539 3.87939453 C-1 2 -1 2 0 0 Z " fill="#636363" transform="translate(231,172)"/>
<path d="M0 0 C1.03253906 0.01353516 1.03253906 0.01353516 2.0859375 0.02734375 C3.76577838 0.05067487 5.44543746 0.08653674 7.125 0.125 C7.125 0.455 7.125 0.785 7.125 1.125 C5.71347656 1.21587891 5.71347656 1.21587891 4.2734375 1.30859375 C3.02820313 1.39238281 1.78296875 1.47617188 0.5 1.5625 C-0.72976563 1.64371094 -1.95953125 1.72492188 -3.2265625 1.80859375 C-6.49032388 2.09163944 -9.65443859 2.53538953 -12.875 3.125 C-12.545 5.105 -12.215 7.085 -11.875 9.125 C-11.09125 8.96 -10.3075 8.795 -9.5 8.625 C-4.93533858 7.99539153 -0.47427399 8.04319473 4.125 8.125 C4.455 8.785 4.785 9.445 5.125 10.125 C0.175 10.125 -4.775 10.125 -9.875 10.125 C-9.875 10.785 -9.875 11.445 -9.875 12.125 C-11.195 12.125 -12.515 12.125 -13.875 12.125 C-13.875 8.825 -13.875 5.525 -13.875 2.125 C-9.17038677 0.26367327 -4.9992304 -0.1259496 0 0 Z " fill="#8D8D8D" transform="translate(449.875,170.875)"/>
<path d="M0 0 C2 2 2 2 2.22705078 4.06298828 C2.21657715 4.89040527 2.20610352 5.71782227 2.1953125 6.5703125 C2.18886719 7.46621094 2.18242187 8.36210937 2.17578125 9.28515625 C2.15902344 10.22230469 2.14226562 11.15945312 2.125 12.125 C2.11597656 13.06988281 2.10695312 14.01476562 2.09765625 14.98828125 C2.07404522 17.32577292 2.04111516 19.66276123 2 22 C1.34 22 0.68 22 0 22 C-0.0825 22.5775 -0.165 23.155 -0.25 23.75 C-1.28153787 26.84461361 -2.33864658 28.08928472 -5 30 C-7.77171154 30.56913995 -10.25782699 30.72838971 -13 30 C-14.32 28.68 -15.64 27.36 -17 26 C-12.71 26.33 -8.42 26.66 -4 27 C-3.67 26.01 -3.34 25.02 -3 24 C-2.34 24 -1.68 24 -1 24 C-0.13036913 21.00293305 0.11763099 18.35043474 0.09765625 15.234375 C0.09282227 13.90019531 0.09282227 13.90019531 0.08789062 12.5390625 C0.07951172 11.61867187 0.07113281 10.69828125 0.0625 9.75 C0.05798828 8.81414062 0.05347656 7.87828125 0.04882812 6.9140625 C0.03706918 4.60930959 0.02063426 2.30468773 0 0 Z " fill="#E56DBE" transform="translate(197,212)"/>
<path d="M0 0 C0.66 0 1.32 0 2 0 C2 1.65 2 3.3 2 5 C2.66 5 3.32 5 4 5 C4 6.65 4 8.3 4 10 C6.31 10 8.62 10 11 10 C11.33 9.34 11.66 8.68 12 8 C12.66 8 13.32 8 14 8 C14.33 6.35 14.66 4.7 15 3 C15.66 3 16.32 3 17 3 C16.69201674 4.48011371 16.378482 5.95907325 16.0625 7.4375 C15.88847656 8.26121094 15.71445312 9.08492187 15.53515625 9.93359375 C15 12 15 12 14 13 C12.33570949 13.09823937 10.66718069 13.12973631 9 13.125 C7.63875 13.12886719 7.63875 13.12886719 6.25 13.1328125 C4 13 4 13 3 12 C2.95919217 10.00041636 2.95745644 7.99954746 3 6 C2.34 6 1.68 6 1 6 C0.67 4.02 0.34 2.04 0 0 Z " fill="#4F4F4F" transform="translate(242,200)"/>
<path d="M0 0 C0.33 0.99 0.66 1.98 1 3 C0.39671875 3.65226563 -0.2065625 4.30453125 -0.828125 4.9765625 C-6.0214874 10.65575558 -10.75275622 15.96430514 -14 23 C-15.40167014 18.79498958 -14.11388036 16.56675798 -12.4453125 12.58203125 C-9.65272909 7.59311873 -5.42873788 3.80957929 0 2 C0 1.34 0 0.68 0 0 Z " fill="#9C2641" transform="translate(79,137)"/>
<path d="M0 0 C0.99 0.33 1.98 0.66 3 1 C3 1.66 3 2.32 3 3 C2.34 3 1.68 3 1 3 C1.01047363 3.75095947 1.02094727 4.50191895 1.03173828 5.27563477 C1.07351891 8.70455529 1.09939622 12.13342207 1.125 15.5625 C1.14175781 16.74392578 1.15851563 17.92535156 1.17578125 19.14257812 C1.2094585 25.15396759 1.11038894 30.34183122 -1 36 C-1.33 36 -1.66 36 -2 36 C-1.38074406 23.99697534 -0.72198822 11.99729368 0 0 Z " fill="#BDBDBD" transform="translate(231,175)"/>
<path d="M0 0 C0.66 0 1.32 0 2 0 C0.84856076 5.13719046 -0.5141882 9.32667382 -3 14 C-3.7425 15.7325 -3.7425 15.7325 -4.5 17.5 C-5.8868597 20.73600597 -7.39549311 23.86739131 -9 27 C-10.13643966 23.59068103 -9.86747764 22.99664544 -8.5625 19.8125 C-8.27503906 19.09707031 -7.98757812 18.38164062 -7.69140625 17.64453125 C-7.46324219 17.10183594 -7.23507813 16.55914062 -7 16 C-6.67 16 -6.34 16 -6 16 C-5.73445313 15.09636719 -5.46890625 14.19273437 -5.1953125 13.26171875 C-4.66550781 11.49248047 -4.66550781 11.49248047 -4.125 9.6875 C-3.77695313 8.51574219 -3.42890625 7.34398437 -3.0703125 6.13671875 C-2 3 -2 3 0 0 Z " fill="#E73FB4" transform="translate(76,200)"/>
<path d="M0 0 C1.98 0 3.96 0 6 0 C6.33 0.66 6.66 1.32 7 2 C5.35 2 3.7 2 2 2 C1.67 7.94 1.34 13.88 1 20 C0.34 20 -0.32 20 -1 20 C-1.89604368 13.95170514 -2.11269443 8.1105424 -2 2 C-1.34 2 -0.68 2 0 2 C0 1.34 0 0.68 0 0 Z " fill="#EF2D83" transform="translate(150,140)"/>
<path d="M0 0 C2.21399303 3.79541663 3.00980198 7.75629421 4 12 C2.35 11.67 0.7 11.34 -1 11 C-2.32 12.65 -3.64 14.3 -5 16 C-4.33333333 12 -3.66666667 8 -3 4 C-2.34 4 -1.68 4 -1 4 C-0.67 2.68 -0.34 1.36 0 0 Z " fill="#FACEC9" transform="translate(153,184)"/>
<path d="M0 0 C0.66 0 1.32 0 2 0 C1.125 3.875 1.125 3.875 0 5 C-0.13223768 6.37891723 -0.20315998 7.7638595 -0.24609375 9.1484375 C-0.27896484 9.98890625 -0.31183594 10.829375 -0.34570312 11.6953125 C-0.40662927 13.47383755 -0.46395374 15.25248982 -0.51757812 17.03125 C-0.55173828 17.87429687 -0.58589844 18.71734375 -0.62109375 19.5859375 C-0.6461499 20.3598584 -0.67120605 21.1337793 -0.69702148 21.93115234 C-1 24 -1 24 -3 27 C-3.02908357 23.58335127 -3.04682691 20.1667345 -3.0625 16.75 C-3.07087891 15.78191406 -3.07925781 14.81382812 -3.08789062 13.81640625 C-3.09111328 12.88183594 -3.09433594 11.94726562 -3.09765625 10.984375 C-3.10289307 10.12553711 -3.10812988 9.26669922 -3.11352539 8.38183594 C-3.00539986 6.11329256 -2.63582423 4.17368285 -2 2 C-1.34 2 -0.68 2 0 2 C0 1.34 0 0.68 0 0 Z " fill="#CCCCCC" transform="translate(420,184)"/>
<path d="M0 0 C1.65 0.33 3.3 0.66 5 1 C5 1.66 5 2.32 5 3 C5.66 3 6.32 3 7 3 C8.65625 4.609375 8.65625 4.609375 10.5 6.75 C11.1084375 7.44609375 11.716875 8.1421875 12.34375 8.859375 C13.87976963 10.84460792 14.9723966 12.71872045 16 15 C14.82780457 14.21654285 13.66236332 13.42297164 12.5 12.625 C11.8503125 12.18414062 11.200625 11.74328125 10.53125 11.2890625 C10.0259375 10.86367187 9.520625 10.43828125 9 10 C9 9.34 9 8.68 9 8 C8.01 7.67 7.02 7.34 6 7 C5.67 6.34 5.34 5.68 5 5 C1.97065509 4.34227572 1.97065509 4.34227572 -1 4 C-1 4.66 -1 5.32 -1 6 C-1.66 5.67 -2.32 5.34 -3 5 C-2.01 3.35 -1.02 1.7 0 0 Z " fill="#B81E56" transform="translate(151,136)"/>
<path d="M0 0 C2.9401631 2.54521582 4.36994433 5.40331293 6.0625 8.875 C6.82240234 10.41800781 6.82240234 10.41800781 7.59765625 11.9921875 C11.13806172 19.58581483 11.13806172 19.58581483 10 23 C9.52949219 22.10796875 9.05898437 21.2159375 8.57421875 20.296875 C7.94548973 19.11448908 7.31657357 17.93220265 6.6875 16.75 C6.07261719 15.58984375 5.45773438 14.4296875 4.82421875 13.234375 C3.14921346 10.08183488 3.14921346 10.08183488 1.28125 7.78125 C-0.56460824 5.21505684 -0.20934722 3.07042587 0 0 Z " fill="#AE4468" transform="translate(171,152)"/>
<path d="M0 0 C0.99 0 1.98 0 3 0 C3 5.61 3 11.22 3 17 C2.34 17 1.68 17 1 17 C0.67 13.37 0.34 9.74 0 6 C-1.32 5.67 -2.64 5.34 -4 5 C-2.1875 2.5 -2.1875 2.5 0 0 Z " fill="#E4248F" transform="translate(76,143)"/>
<path d="M0 0 C1.32 0 2.64 0 4 0 C4 4.62 4 9.24 4 14 C3.67 14 3.34 14 3 14 C2.67 11.69 2.34 9.38 2 7 C1.34 7 0.68 7 0 7 C-1.32 11.29 -2.64 15.58 -4 20 C-5.02523015 15.8990794 -4.93895368 14.9327406 -3.6875 11.125 C-3.40648437 10.25359375 -3.12546875 9.3821875 -2.8359375 8.484375 C-2.56007813 7.66453125 -2.28421875 6.8446875 -2 6 C-1.608125 4.80375 -1.21625 3.6075 -0.8125 2.375 C-0.544375 1.59125 -0.27625 0.8075 0 0 Z " fill="#606060" transform="translate(268,172)"/>
<path d="M0 0 C7.21835174 -0.61172472 7.21835174 -0.61172472 10.875 2.25 C12.61761838 4.50515319 13.79349562 6.45655832 15 9 C14.48050781 8.73445312 13.96101563 8.46890625 13.42578125 8.1953125 C9.66745648 6.29183563 5.93924329 4.50618126 2 3 C1.34 2.67 0.68 2.34 0 2 C0 1.34 0 0.68 0 0 Z " fill="#AB5760" transform="translate(80,134)"/>
<path d="M0 0 C3.28220895 1.64110448 3.74570789 4.69322988 5 8 C5 8.99 5 9.98 5 11 C5.66 11 6.32 11 7 11 C7.33 14.3 7.66 17.6 8 21 C6 17 6 17 5 14 C4.34 14 3.68 14 3 14 C2.01 9.38 1.02 4.76 0 0 Z " fill="#C25385" transform="translate(181,170)"/>
<path d="M0 0 C2.80541099 4.20811648 1.85569482 6.09920241 1 11 C0.67 11.66 0.34 12.32 0 13 C-0.66 13 -1.32 13 -2 13 C-2 14.32 -2 15.64 -2 17 C-2.66 17 -3.32 17 -4 17 C-3.45018084 10.95198929 -2.09570426 5.69398894 0 0 Z " fill="#D2519F" transform="translate(44,195)"/>
<path d="M0 0 C1.96537132 5.96630581 0.07159867 12.62384642 -2.4375 18.1875 C-2.953125 18.785625 -3.46875 19.38375 -4 20 C-4.99 20 -5.98 20 -7 20 C-5.77448815 15.28649288 -4.18502889 11.37005777 -2 7 C-1.2352923 4.6824196 -0.61466564 2.36409861 0 0 Z " fill="#F9CAB1" transform="translate(147,200)"/>
<path d="M0 0 C0.66 0.33 1.32 0.66 2 1 C2.680625 1.309375 3.36125 1.61875 4.0625 1.9375 C6 3 6 3 7 5 C5.906875 5.12375 4.81375 5.2475 3.6875 5.375 C-0.07381802 5.75464801 -0.07381802 5.75464801 -3 8 C-2.67 6.68 -2.34 5.36 -2 4 C-4.31 5.65 -6.62 7.3 -9 9 C-7.95125002 6.37812506 -7.35068687 5.20628639 -4.875 3.75 C-4.25625 3.5025 -3.6375 3.255 -3 3 C-3 2.34 -3 1.68 -3 1 C-2.01 0.67 -1.02 0.34 0 0 Z " fill="#B04A4C" transform="translate(81,135)"/>
<path d="M0 0 C0.66 0 1.32 0 2 0 C2.12375 0.61875 2.2475 1.2375 2.375 1.875 C2.87197356 4.19120832 2.87197356 4.19120832 5 6 C4.625 8.125 4.625 8.125 4 10 C4.66 10 5.32 10 6 10 C6.86580287 11.93232821 7.71729941 13.87107194 8.5625 15.8125 C9.27599609 17.43091797 9.27599609 17.43091797 10.00390625 19.08203125 C11 22 11 22 10 25 C9.15675328 23.421924 8.32576082 21.8372958 7.5 20.25 C7.0359375 19.36828125 6.571875 18.4865625 6.09375 17.578125 C5 15 5 15 5 11 C4.34 11 3.68 11 3 11 C3 9.35 3 7.7 3 6 C2.34 6 1.68 6 1 6 C0.67 4.02 0.34 2.04 0 0 Z " fill="#E652B7" transform="translate(158,198)"/>
<path d="M0 0 C1 2 1 2 0.3125 5.3125 C-0.99462166 8.98488943 -2.30181212 11.21749375 -5 14 C-5.66 14 -6.32 14 -7 14 C-7 14.99 -7 15.98 -7 17 C-7.66 17 -8.32 17 -9 17 C-9 17.99 -9 18.98 -9 20 C-9.66 19.67 -10.32 19.34 -11 19 C-10.505 17.515 -10.505 17.515 -10 16 C-9.34 16 -8.68 16 -8 16 C-7.88527344 15.4225 -7.77054687 14.845 -7.65234375 14.25 C-6.94620279 11.81444795 -5.95332094 10.11305733 -4.5625 8 C-2.85846962 5.39563118 -1.34726335 2.80732083 0 0 Z " fill="#B96255" transform="translate(135,152)"/>
<path d="M0 0 C3.25295114 -0.22179212 5.42797793 -0.28601103 8.375 1.1875 C10 3 10 3 10.25 5.6875 C10.1675 6.450625 10.085 7.21375 10 8 C9.34 7.67 8.68 7.34 8 7 C8 6.34 8 5.68 8 5 C7.34 5 6.68 5 6 5 C5.67 4.34 5.34 3.68 5 3 C3.68 3 2.36 3 1 3 C0.67 3.66 0.34 4.32 0 5 C-1.32 4.67 -2.64 4.34 -4 4 C-2.68 3.34 -1.36 2.68 0 2 C0 1.34 0 0.68 0 0 Z " fill="#A23C4A" transform="translate(150,134)"/>
<path d="M0 0 C0.33 1.32 0.66 2.64 1 4 C0.34 4 -0.32 4 -1 4 C-1.33 6.64 -1.66 9.28 -2 12 C-2.66 12 -3.32 12 -4 12 C-4.12375 12.7425 -4.2475 13.485 -4.375 14.25 C-4.95486701 16.80141485 -5.73708739 18.7267573 -7 21 C-7.66 21 -8.32 21 -9 21 C-7.37096774 14.48387097 -7.37096774 14.48387097 -5.5625 12.125 C-3.46912156 9.27800532 -2.67096319 6.28472315 -1.6484375 2.92578125 C-1 1 -1 1 0 0 Z " fill="#FBADE7" transform="translate(75,208)"/>
<path d="M0 0 C0.804375 0.495 1.60875 0.99 2.4375 1.5 C8.01090646 3.84669746 12.78629074 3.62139207 18.5625 2 C19.366875 1.67 20.17125 1.34 21 1 C19.34116421 3.28804937 18.37716693 4.56463437 16 6 C12.29701335 6.44207004 8.71168123 6.29251428 5 6 C5 5.34 5 4.68 5 4 C4.360625 3.896875 3.72125 3.79375 3.0625 3.6875 C2.381875 3.460625 1.70125 3.23375 1 3 C0.67 2.01 0.34 1.02 0 0 Z " fill="#A5A5A5" transform="translate(435,208)"/>
<path d="M0 0 C0.66 1.32 1.32 2.64 2 4 C1.443125 4.53625 0.88625 5.0725 0.3125 5.625 C-1.46939482 7.45505414 -3.03771072 9.26235586 -4.625 11.25 C-5.40875 12.1575 -6.1925 13.065 -7 14 C-7.66 14 -8.32 14 -9 14 C-9 13.01 -9 12.02 -9 11 C-8.34 11 -7.68 11 -7 11 C-7 10.01 -7 9.02 -7 8 C-5.37660195 6.29115995 -3.70680947 4.62553283 -2 3 C-1.34 2.01 -0.68 1.02 0 0 Z " fill="#DA4A1F" transform="translate(135,158)"/>
<path d="M0 0 C1.98 0 3.96 0 6 0 C0 6 0 6 -1.84765625 6.09765625 C-3.8984375 6.06510417 -5.94921875 6.03255208 -8 6 C-8.33 5.34 -8.66 4.68 -9 4 C-5.7 3.67 -2.4 3.34 1 3 C0.67 2.01 0.34 1.02 0 0 Z " fill="#E450B7" transform="translate(53,236)"/>
<path d="M0 0 C3 1 3 1 4.16796875 2.7421875 C4.50441406 3.44601563 4.84085937 4.14984375 5.1875 4.875 C5.53167969 5.57367188 5.87585938 6.27234375 6.23046875 6.9921875 C7 9 7 9 7 12 C7.66 12 8.32 12 9 12 C8.67 13.32 8.34 14.64 8 16 C8 15.01 8 14.02 8 13 C7.01 12.67 6.02 12.34 5 12 C3.61328125 9.78515625 3.61328125 9.78515625 2.3125 7.0625 C1.87550781 6.16660156 1.43851562 5.27070313 0.98828125 4.34765625 C0 2 0 2 0 0 Z " fill="#F1A256" transform="translate(96,216)"/>
<path d="M0 0 C2.42479736 3.63719605 2.38662577 5.85703482 2.625 10.1875 C2.69976562 11.45980469 2.77453125 12.73210937 2.8515625 14.04296875 C2.92503906 15.50669922 2.92503906 15.50669922 3 17 C2.34 17 1.68 17 1 17 C-0.88341198 10.90660831 -1.0748291 6.27467799 0 0 Z " fill="#E04FA9" transform="translate(195,203)"/>
<path d="M0 0 C5.62917348 0.40208382 8.00386479 2.28930302 12 6 C11.67 7.32 11.34 8.64 11 10 C10.45730469 9.44570312 9.91460937 8.89140625 9.35546875 8.3203125 C8.64003906 7.59585938 7.92460938 6.87140625 7.1875 6.125 C6.12595703 5.04605469 6.12595703 5.04605469 5.04296875 3.9453125 C2.95600806 1.84641063 2.95600806 1.84641063 0 0 Z " fill="#A53E2E" transform="translate(86,140)"/>
<path d="M0 0 C0.99 0.33 1.98 0.66 3 1 C3.33 4.96 3.66 8.92 4 13 C3.34 13 2.68 13 2 13 C2 11.35 2 9.7 2 8 C1.34 8 0.68 8 0 8 C0 5.36 0 2.72 0 0 Z " fill="#FC7A48" transform="translate(82,168)"/>
<path d="M0 0 C0.8125 1.625 0.8125 1.625 1 4 C-0.46818136 6.24609835 -2.15852858 8.02378677 -4 10 C-5.32 9.67 -6.64 9.34 -8 9 C-7.04882866 7.8274869 -6.08882991 6.66212985 -5.125 5.5 C-4.32449219 4.52546875 -4.32449219 4.52546875 -3.5078125 3.53125 C-2.76144531 2.77328125 -2.76144531 2.77328125 -2 2 C-1.34 2 -0.68 2 0 2 C0 1.34 0 0.68 0 0 Z " fill="#FAC3F0" transform="translate(65,229)"/>
<path d="M0 0 C2.68433048 2.45091043 3.91789741 4.28241384 4.09765625 8.04296875 C4.06510417 10.02864583 4.03255208 12.01432292 4 14 C0.73262697 10.73262697 0.04327104 7.16831802 -0.125 2.625 C-0.08375 1.75875 -0.0425 0.8925 0 0 Z " fill="#E852B6" transform="translate(154,182)"/>
<path d="M0 0 C1.41623216 -0.05447047 2.83308191 -0.09300508 4.25 -0.125 C5.03890625 -0.14820313 5.8278125 -0.17140625 6.640625 -0.1953125 C9.20731941 0.0171622 10.7916067 0.71345895 13 2 C9.88450128 3.55774936 6.3955612 3.56480622 3 3 C1.24609375 1.484375 1.24609375 1.484375 0 0 Z " fill="#DF6426" transform="translate(111,238)"/>
<path d="M0 0 C2.73912657 3.13043036 3.95722799 6.31260358 5.25390625 10.1953125 C5.94996009 12.20549967 5.94996009 12.20549967 8 14 C6.68 13.67 5.36 13.34 4 13 C3.67 11.68 3.34 10.36 3 9 C2.34 9 1.68 9 1 9 C0.67 6.03 0.34 3.06 0 0 Z " fill="#CB855C" transform="translate(112,170)"/>
<path d="M0 0 C0.66 0 1.32 0 2 0 C2.125 5.75 2.125 5.75 1 8 C0.34 8 -0.32 8 -1 8 C-1 8.66 -1 9.32 -1 10 C-1.66 10 -2.32 10 -3 10 C-3.33 10.66 -3.66 11.32 -4 12 C-3.33333333 9.33333333 -2.66666667 6.66666667 -2 4 C-1.34 4 -0.68 4 0 4 C0 2.68 0 1.36 0 0 Z " fill="#D3542C" transform="translate(124,172)"/>
<path d="M0 0 C0.66 0 1.32 0 2 0 C1.39254603 4.85963179 -0.72758967 8.7405518 -3 13 C-4.23593891 9.29218328 -3.5678132 8.32489747 -2.0625 4.8125 C-1.68222656 3.91144531 -1.30195312 3.01039063 -0.91015625 2.08203125 C-0.60980469 1.39496094 -0.30945313 0.70789063 0 0 Z " fill="#AD3D61" transform="translate(68,147)"/>
<path d="M0 0 C0.66 0 1.32 0 2 0 C0.80805531 5.52628901 -0.5991297 8.17819158 -5 12 C-4.67 10.02 -4.34 8.04 -4 6 C-3.34 6 -2.68 6 -2 6 C-2 5.34 -2 4.68 -2 4 C-1.34 4 -0.68 4 0 4 C0 2.68 0 1.36 0 0 Z " fill="#E16F3E" transform="translate(137,220)"/>
<path d="M0 0 C0.33 1.32 0.66 2.64 1 4 C0.34 4 -0.32 4 -1 4 C-1.144375 4.78375 -1.28875 5.5675 -1.4375 6.375 C-2 9 -2 9 -3 11 C-3.99 10.67 -4.98 10.34 -6 10 C-6 9.34 -6 8.68 -6 8 C-5.34 8 -4.68 8 -4 8 C-3.71125 7.236875 -3.4225 6.47375 -3.125 5.6875 C-2 3 -2 3 0 0 Z " fill="#F1C2B3" transform="translate(123,172)"/>
<path d="M0 0 C1.57156655 3.1431331 0.11705576 5.365464 -0.9375 8.625 C-1.31777344 9.81351563 -1.69804687 11.00203125 -2.08984375 12.2265625 C-2.39019531 13.14179688 -2.69054687 14.05703125 -3 15 C-4.1700097 11.08263419 -3.69584017 8.02040985 -3 4 C-2.34 4 -1.68 4 -1 4 C-0.67 2.68 -0.34 1.36 0 0 Z " fill="#919191" transform="translate(265,156)"/>
<path d="M0 0 C0.33 0.66 0.66 1.32 1 2 C0.06421005 4.35981813 -0.93347808 6.69631264 -2 9 C-2.66 9 -3.32 9 -4 9 C-4.33 10.32 -4.66 11.64 -5 13 C-5 12.34 -5 11.68 -5 11 C-5.99 10.67 -6.98 10.34 -8 10 C-6.37660195 8.29115995 -4.70680947 6.62553283 -3 5 C-2.34 5 -1.68 5 -1 5 C-0.67 3.35 -0.34 1.7 0 0 Z " fill="#ADADAD" transform="translate(312,215)"/>
<path d="M0 0 C0.33 0 0.66 0 1 0 C0.67 4.29 0.34 8.58 0 13 C-0.99 13.33 -1.98 13.66 -3 14 C-2.40380045 9.13103697 -1.43023178 4.67209049 0 0 Z " fill="#F4A9E2" transform="translate(82,184)"/>
<path d="M0 0 C0.66 0.33 1.32 0.66 2 1 C2 2.32 2 3.64 2 5 C-4.28571429 7.42857143 -4.28571429 7.42857143 -8 6 C-6.02 5.67 -4.04 5.34 -2 5 C-2.33 4.01 -2.66 3.02 -3 2 C-2.01 1.34 -1.02 0.68 0 0 Z " fill="#CCCCCC" transform="translate(455,181)"/>
<path d="M0 0 C0.33 0 0.66 0 1 0 C1.33 2.31 1.66 4.62 2 7 C1.01 7.33 0.02 7.66 -1 8 C-1 8.66 -1 9.32 -1 10 C-1.66 10 -2.32 10 -3 10 C-1.125 2.25 -1.125 2.25 0 0 Z " fill="#FED8F5" transform="translate(79,198)"/>
<path d="M0 0 C2.33524782 2.25740623 4.18705073 4.2805761 6 7 C5.67 7.99 5.34 8.98 5 10 C5 9.34 5 8.68 5 8 C3.68 8 2.36 8 1 8 C0.67 5.36 0.34 2.72 0 0 Z " fill="#D9218F" transform="translate(171,158)"/>
<path d="M0 0 C1.96301592 3.50538557 2.95902388 7.13351728 4 11 C3.01 10.67 2.02 10.34 1 10 C-0.60725635 6.78548731 -0.05748185 3.56387464 0 0 Z " fill="#D46998" transform="translate(189,186)"/>
<path d="M0 0 C0.33 0 0.66 0 1 0 C1 2.31 1 4.62 1 7 C0.34 7 -0.32 7 -1 7 C-1 8.98 -1 10.96 -1 13 C-1.33 13 -1.66 13 -2 13 C-2 9.7 -2 6.4 -2 3 C-1.34 3 -0.68 3 0 3 C0 2.01 0 1.02 0 0 Z " fill="#E56025" transform="translate(151,181)"/>
<path d="M0 0 C4 4.5 4 4.5 4 9 C3.34 9 2.68 9 2 9 C1.67 7.68 1.34 6.36 1 5 C0.34 5 -0.32 5 -1 5 C-0.67 3.35 -0.34 1.7 0 0 Z " fill="#AA4C3C" transform="translate(98,147)"/>
<path d="M0 0 C0.33 0.66 0.66 1.32 1 2 C0.34 2 -0.32 2 -1 2 C-1.061875 2.763125 -1.12375 3.52625 -1.1875 4.3125 C-2 7 -2 7 -4.5625 8.8125 C-5.366875 9.204375 -6.17125 9.59625 -7 10 C-2.87804878 1.43902439 -2.87804878 1.43902439 0 0 Z " fill="#B36E70" transform="translate(145,139)"/>
<path d="M0 0 C1.32 0 2.64 0 4 0 C4 0.66 4 1.32 4 2 C6.31 2.33 8.62 2.66 11 3 C11 3.33 11 3.66 11 4 C8.36 4 5.72 4 3 4 C2.67 3.01 2.34 2.02 2 1 C1.34 0.67 0.68 0.34 0 0 Z " fill="#565656" transform="translate(456,208)"/>
<path d="M0 0 C0.66 0.33 1.32 0.66 2 1 C2.6328125 3.50390625 2.6328125 3.50390625 3.125 6.5625 C3.29257813 7.57441406 3.46015625 8.58632812 3.6328125 9.62890625 C3.75398438 10.41136719 3.87515625 11.19382813 4 12 C2 11 2 11 1.1484375 8.71484375 C0.89320312 7.79832031 0.63796875 6.88179687 0.375 5.9375 C0.11460938 5.01839844 -0.14578125 4.09929687 -0.4140625 3.15234375 C-0.60742188 2.44207031 -0.80078125 1.73179687 -1 1 C-0.67 0.67 -0.34 0.34 0 0 Z " fill="#F7A87F" transform="translate(84,181)"/>
<path d="M0 0 C3 2 3 2 3.51171875 4.1640625 C3.56972656 4.97617188 3.62773438 5.78828125 3.6875 6.625 C3.75324219 7.44226563 3.81898437 8.25953125 3.88671875 9.1015625 C3.92410156 9.72804687 3.96148437 10.35453125 4 11 C2 10 2 10 0.875 7.1875 C0 4 0 4 0 0 Z " fill="#F0A55D" transform="translate(88,194)"/>
<path d="M0 0 C3 2 3 2 3.51171875 4.1640625 C3.56972656 4.97617188 3.62773437 5.78828125 3.6875 6.625 C3.75324219 7.44226563 3.81898438 8.25953125 3.88671875 9.1015625 C3.92410156 9.72804687 3.96148437 10.35453125 4 11 C3.34 10.67 2.68 10.34 2 10 C1.3671875 7.71484375 1.3671875 7.71484375 0.875 4.9375 C0.70742187 4.01839844 0.53984375 3.09929687 0.3671875 2.15234375 C0.24601563 1.44207031 0.12484375 0.73179687 0 0 Z " fill="#989898" transform="translate(243,171)"/>
<path d="M0 0 C4.41889613 1.35021826 6.34345343 3.26115668 9 7 C2.29787234 5.06382979 2.29787234 5.06382979 0 2 C0 1.34 0 0.68 0 0 Z " fill="#EC7E3A" transform="translate(85,140)"/>
<path d="M0 0 C0.66 0 1.32 0 2 0 C1.37240135 2.92879371 0.41377341 5.36095629 -1 8 C-1.66 8 -2.32 8 -3 8 C-1.125 1.125 -1.125 1.125 0 0 Z " fill="#F9C9F2" transform="translate(69,221)"/>
<path d="M0 0 C0.66 0 1.32 0 2 0 C2.99 2.97 3.98 5.94 5 9 C4.01 8.67 3.02 8.34 2 8 C2 6.68 2 5.36 2 4 C1.34 4 0.68 4 0 4 C0 2.68 0 1.36 0 0 Z " fill="#E424A5" transform="translate(158,194)"/>
<path d="M0 0 C0.33 0 0.66 0 1 0 C1.125 5.75 1.125 5.75 0 8 C-0.99 7.67 -1.98 7.34 -3 7 C-3 6.34 -3 5.68 -3 5 C-2.34 5 -1.68 5 -1 5 C-0.67 3.35 -0.34 1.7 0 0 Z " fill="#FBF4EF" transform="translate(119,172)"/>
<path d="M0 0 C1 2 1 2 0.0625 5.125 C-0.288125 6.07375 -0.63875 7.0225 -1 8 C-1.99 8 -2.98 8 -4 8 C-3.67 6.35 -3.34 4.7 -3 3 C-2.34 3 -1.68 3 -1 3 C-0.67 2.01 -0.34 1.02 0 0 Z " fill="#C58092" transform="translate(65,152)"/>
<path d="M0 0 C2.5722047 1.28610235 3.00974907 2.33393981 4 5 C3.625 7.25 3.625 7.25 3 9 C2.34 8.67 1.68 8.34 1 8 C0.40644386 5.35139573 0.25790731 2.70802678 0 0 Z " fill="#FAD9B1" transform="translate(90,204)"/>
<path d="M0 0 C1.98 0 3.96 0 6 0 C6 0.33 6 0.66 6 1 C4.35 1 2.7 1 1 1 C0.67 2.32 0.34 3.64 0 5 C-1.32 4.67 -2.64 4.34 -4 4 C-2.68 3.34 -1.36 2.68 0 2 C0 1.34 0 0.68 0 0 Z " fill="#AF656F" transform="translate(150,134)"/>
</svg>
