<?xml version="1.0" encoding="UTF-8"?>
<svg version="1.1" xmlns="http://www.w3.org/2000/svg" width="500" height="500">
<path d="M0 0 C1.67564781 -0.00856522 1.67564781 -0.00856522 3.38514709 -0.01730347 C4.60648346 -0.01842133 5.82781982 -0.01953918 7.08616638 -0.02069092 C8.37605972 -0.02565582 9.66595306 -0.03062073 10.99493408 -0.03573608 C14.53251256 -0.04884056 18.07007207 -0.05530189 21.60767102 -0.05974674 C23.82158934 -0.06268223 26.03550253 -0.06678806 28.24941826 -0.07125092 C35.18685715 -0.08492425 42.12428426 -0.09459021 49.06173569 -0.09845281 C57.04942182 -0.10292531 65.03693613 -0.12043618 73.02457005 -0.1494534 C79.21076221 -0.17113973 85.39690629 -0.18116087 91.58313602 -0.18249393 C95.27176492 -0.18353752 98.96023227 -0.18934893 102.64882088 -0.20731354 C106.77257147 -0.2270062 110.89596752 -0.22247772 115.01976013 -0.21600342 C116.83051025 -0.22982559 116.83051025 -0.22982559 118.67784119 -0.243927 C132.07139357 -0.1783145 143.82410383 3.29792925 153.87693787 12.41778564 C161.80680798 20.80405116 165.61125416 31.31435118 165.64628601 42.77503967 C165.65199615 43.89784836 165.6577063 45.02065704 165.66358948 46.17749023 C165.66470734 47.39994446 165.6658252 48.62239868 165.66697693 49.88189697 C165.67194183 51.17675522 165.67690674 52.47161346 165.68202209 53.80570984 C165.69510774 57.35129189 165.70158343 60.89685503 165.70603275 64.44245744 C165.70896943 66.66021047 165.71307533 68.8779584 165.71753693 71.09570885 C165.7312012 78.04221503 165.74087332 84.98870948 165.74473882 91.93522817 C165.74921833 99.93991409 165.76676569 107.94442914 165.79573941 115.94906312 C165.81738846 122.14626881 165.8274448 128.34342654 165.82877994 134.54066962 C165.82982558 138.23757139 165.83568191 141.93431231 165.85359955 145.63117409 C165.87321239 149.75782187 165.86877846 153.8841139 165.86228943 158.01080322 C165.87150421 159.22718475 165.88071899 160.44356628 165.89021301 161.69680786 C165.82722957 174.49070439 162.4203628 180.03281333 153.50584412 189.14044189 C152.76259258 189.90674549 152.01934105 190.67304909 151.25356674 191.46257401 C148.93395486 193.82745672 146.59153879 196.16743649 144.24168396 198.5022583 C143.36403885 199.37844315 142.48639374 200.25462799 141.58215332 201.15736389 C139.69434666 203.04139285 137.80567538 204.92450114 135.91540146 206.80604935 C132.91909826 209.78866426 129.92676165 212.77523849 126.93495178 215.76235962 C120.5865675 222.09971547 114.23393376 228.43280362 107.88084412 234.76544189 C101.01189617 241.61229538 94.14372211 248.45991527 87.28042948 255.31243837 C84.31329364 258.27462896 81.34374687 261.23437359 78.37224936 264.1921885 C76.08323335 266.47192169 73.79750312 268.75494592 71.51121521 271.03741455 C70.69960434 271.8438591 69.88799347 272.65030365 69.05178833 273.48118591 C65.63162846 276.90102949 62.28685609 280.33399214 59.13581848 284.0045166 C54.49270121 289.39350537 49.43758425 294.3813048 44.42088318 299.41827393 C43.31438867 300.53268723 42.20807037 301.64727552 41.10191345 302.76202393 C37.49547101 306.39446096 33.88377922 310.02165383 30.27146912 313.64825439 C29.02140042 314.90369033 27.77133688 316.15913139 26.52127838 317.41457748 C21.31957656 322.63786665 16.11644955 327.85972921 10.90959549 333.07788277 C3.4780212 340.52569962 -3.94492722 347.98188155 -11.35611129 355.44999039 C-16.58663946 360.71930647 -21.82679988 365.97892076 -27.0741179 371.23151672 C-30.19991838 374.36095577 -33.32146623 377.49436781 -36.43274689 380.63824844 C-39.36029826 383.59604002 -42.29969864 386.54153591 -45.2482605 389.4783783 C-46.32200297 390.55190143 -47.39155286 391.62963891 -48.45630646 392.71207809 C-58.94791857 403.36826254 -69.12310636 409.88126944 -84.24415588 410.51544189 C-102.29925265 410.12493726 -113.6905222 399.39956508 -125.7334137 387.32110596 C-126.92651059 386.1353638 -128.12022348 384.95024118 -129.3144989 383.76568604 C-132.53212748 380.5701292 -135.74019684 377.36514216 -138.94585514 374.15758228 C-141.63206584 371.47125127 -144.32261764 368.78928808 -147.01303935 366.10717559 C-153.36339396 359.77600179 -159.70560316 353.43674841 -166.04298401 347.09259033 C-172.56221463 340.56671618 -179.09607191 334.05575124 -185.63712811 327.55175996 C-191.27188426 321.94776762 -196.89685628 316.33408177 -202.51430774 310.71274352 C-205.86107843 307.36391303 -209.21144556 304.01889922 -212.57152557 300.68341827 C-215.73142484 297.54589532 -218.87886816 294.39637442 -222.0174675 291.23754883 C-223.16518952 290.08643651 -224.31711388 288.939495 -225.47370529 287.79729462 C-236.41243395 276.98524329 -244.19000332 265.45313315 -244.86915588 249.57794189 C-243.96794007 226.96561779 -225.6211552 213.1140926 -210.83399963 198.34747314 C-209.11710273 196.62990139 -207.40035419 194.91218132 -205.68374634 193.19432068 C-202.10060535 189.60971204 -198.51567898 186.02690133 -194.92945862 182.44537354 C-190.34775555 177.86937581 -185.77056885 173.28889098 -181.19470882 168.70705128 C-177.65594569 165.16466468 -174.11479201 161.6246755 -170.57292366 158.08539391 C-168.88460088 156.397735 -167.19701175 154.70934181 -165.51019096 153.02018166 C-163.14911187 150.65654567 -160.78482106 148.29616804 -158.41969299 145.93658447 C-157.733237 145.24810425 -157.04678101 144.55962402 -156.33952332 143.85028076 C-153.23559938 140.75973385 -150.10234817 137.76716115 -146.77153015 134.92178345 C-140.92933346 129.87178472 -135.56748953 124.31970109 -130.13063049 118.84283447 C-128.89968592 117.60668814 -127.66849312 116.37078894 -126.43707275 115.13511658 C-123.79923011 112.48738338 -121.16286627 109.83818973 -118.52758598 107.18790627 C-114.35745402 102.99459362 -110.18234286 98.80626251 -106.0062561 94.61888123 C-94.13646652 82.71575139 -82.2709199 70.8084145 -70.41578674 58.89068604 C-63.85795137 52.29830894 -57.29475555 45.71131833 -50.72556502 39.13025588 C-46.57515669 34.97176301 -42.43139682 30.80679286 -38.29242885 26.63691485 C-35.71514095 24.0435945 -33.13155476 21.45662128 -30.54614449 18.87140083 C-29.35152098 17.67436071 -28.15946558 16.47475112 -26.9702301 15.27235794 C-25.34223876 13.6271133 -23.70514204 11.99147773 -22.06555176 10.35780334 C-21.15322753 9.44141492 -20.2409033 8.52502649 -19.30093288 7.58086872 C-13.32771599 2.38729661 -7.89453746 0.02420519 0 0 Z " fill="#2DA8BB" transform="translate(293.49415588378906,40.85955810546875)"/>
<path d="M0 0 C1.67564781 -0.00856522 1.67564781 -0.00856522 3.38514709 -0.01730347 C4.60648346 -0.01842133 5.82781982 -0.01953918 7.08616638 -0.02069092 C8.37605972 -0.02565582 9.66595306 -0.03062073 10.99493408 -0.03573608 C14.53251256 -0.04884056 18.07007207 -0.05530189 21.60767102 -0.05974674 C23.82158934 -0.06268223 26.03550253 -0.06678806 28.24941826 -0.07125092 C35.18685715 -0.08492425 42.12428426 -0.09459021 49.06173569 -0.09845281 C57.04942182 -0.10292531 65.03693613 -0.12043618 73.02457005 -0.1494534 C79.21076221 -0.17113973 85.39690629 -0.18116087 91.58313602 -0.18249393 C95.27176492 -0.18353752 98.96023227 -0.18934893 102.64882088 -0.20731354 C106.77257147 -0.2270062 110.89596752 -0.22247772 115.01976013 -0.21600342 C116.83051025 -0.22982559 116.83051025 -0.22982559 118.67784119 -0.243927 C132.07139357 -0.1783145 143.82410383 3.29792925 153.87693787 12.41778564 C161.80680798 20.80405116 165.61125416 31.31435118 165.64628601 42.77503967 C165.65199615 43.89784836 165.6577063 45.02065704 165.66358948 46.17749023 C165.66470734 47.39994446 165.6658252 48.62239868 165.66697693 49.88189697 C165.67194183 51.17675522 165.67690674 52.47161346 165.68202209 53.80570984 C165.69510774 57.35129189 165.70158343 60.89685503 165.70603275 64.44245744 C165.70896943 66.66021047 165.71307533 68.8779584 165.71753693 71.09570885 C165.7312012 78.04221503 165.74087332 84.98870948 165.74473882 91.93522817 C165.74921833 99.93991409 165.76676569 107.94442914 165.79573941 115.94906312 C165.81738846 122.14626881 165.8274448 128.34342654 165.82877994 134.54066962 C165.82982558 138.23757139 165.83568191 141.93431231 165.85359955 145.63117409 C165.87321239 149.75782187 165.86877846 153.8841139 165.86228943 158.01080322 C165.87150421 159.22718475 165.88071899 160.44356628 165.89021301 161.69680786 C165.82722957 174.49070439 162.4203628 180.03281333 153.50584412 189.14044189 C152.76259258 189.90674549 152.01934105 190.67304909 151.25356674 191.46257401 C148.93395486 193.82745672 146.59153879 196.16743649 144.24168396 198.5022583 C143.36403885 199.37844315 142.48639374 200.25462799 141.58215332 201.15736389 C139.69434666 203.04139285 137.80567538 204.92450114 135.91540146 206.80604935 C132.91909826 209.78866426 129.92676165 212.77523849 126.93495178 215.76235962 C120.5865675 222.09971547 114.23393376 228.43280362 107.88084412 234.76544189 C101.01189617 241.61229538 94.14372211 248.45991527 87.28042948 255.31243837 C84.31329364 258.27462896 81.34374687 261.23437359 78.37224936 264.1921885 C76.08323335 266.47192169 73.79750312 268.75494592 71.51121521 271.03741455 C70.69960434 271.8438591 69.88799347 272.65030365 69.05178833 273.48118591 C65.63162846 276.90102949 62.28685609 280.33399214 59.13581848 284.0045166 C54.49270121 289.39350537 49.43758425 294.3813048 44.42088318 299.41827393 C43.31438867 300.53268723 42.20807037 301.64727552 41.10191345 302.76202393 C37.49547101 306.39446096 33.88377922 310.02165383 30.27146912 313.64825439 C29.02140042 314.90369033 27.77133688 316.15913139 26.52127838 317.41457748 C21.31957656 322.63786665 16.11644955 327.85972921 10.90959549 333.07788277 C3.4780212 340.52569962 -3.94492722 347.98188155 -11.35611129 355.44999039 C-16.58663946 360.71930647 -21.82679988 365.97892076 -27.0741179 371.23151672 C-30.19991838 374.36095577 -33.32146623 377.49436781 -36.43274689 380.63824844 C-39.36029826 383.59604002 -42.29969864 386.54153591 -45.2482605 389.4783783 C-46.32200297 390.55190143 -47.39155286 391.62963891 -48.45630646 392.71207809 C-58.94791857 403.36826254 -69.12310636 409.88126944 -84.24415588 410.51544189 C-102.29925265 410.12493726 -113.6905222 399.39956508 -125.7334137 387.32110596 C-126.92651059 386.1353638 -128.12022348 384.95024118 -129.3144989 383.76568604 C-132.53212748 380.5701292 -135.74019684 377.36514216 -138.94585514 374.15758228 C-141.63206584 371.47125127 -144.32261764 368.78928808 -147.01303935 366.10717559 C-153.36339396 359.77600179 -159.70560316 353.43674841 -166.04298401 347.09259033 C-172.56221463 340.56671618 -179.09607191 334.05575124 -185.63712811 327.55175996 C-191.27188426 321.94776762 -196.89685628 316.33408177 -202.51430774 310.71274352 C-205.86107843 307.36391303 -209.21144556 304.01889922 -212.57152557 300.68341827 C-215.73142484 297.54589532 -218.87886816 294.39637442 -222.0174675 291.23754883 C-223.16518952 290.08643651 -224.31711388 288.939495 -225.47370529 287.79729462 C-236.41243395 276.98524329 -244.19000332 265.45313315 -244.86915588 249.57794189 C-243.96794007 226.96561779 -225.6211552 213.1140926 -210.83399963 198.34747314 C-209.11710273 196.62990139 -207.40035419 194.91218132 -205.68374634 193.19432068 C-202.10060535 189.60971204 -198.51567898 186.02690133 -194.92945862 182.44537354 C-190.34775555 177.86937581 -185.77056885 173.28889098 -181.19470882 168.70705128 C-177.65594569 165.16466468 -174.11479201 161.6246755 -170.57292366 158.08539391 C-168.88460088 156.397735 -167.19701175 154.70934181 -165.51019096 153.02018166 C-163.14911187 150.65654567 -160.78482106 148.29616804 -158.41969299 145.93658447 C-157.733237 145.24810425 -157.04678101 144.55962402 -156.33952332 143.85028076 C-153.23559938 140.75973385 -150.10234817 137.76716115 -146.77153015 134.92178345 C-140.92933346 129.87178472 -135.56748953 124.31970109 -130.13063049 118.84283447 C-128.89968592 117.60668814 -127.66849312 116.37078894 -126.43707275 115.13511658 C-123.79923011 112.48738338 -121.16286627 109.83818973 -118.52758598 107.18790627 C-114.35745402 102.99459362 -110.18234286 98.80626251 -106.0062561 94.61888123 C-94.13646652 82.71575139 -82.2709199 70.8084145 -70.41578674 58.89068604 C-63.85795137 52.29830894 -57.29475555 45.71131833 -50.72556502 39.13025588 C-46.57515669 34.97176301 -42.43139682 30.80679286 -38.29242885 26.63691485 C-35.71514095 24.0435945 -33.13155476 21.45662128 -30.54614449 18.87140083 C-29.35152098 17.67436071 -28.15946558 16.47475112 -26.9702301 15.27235794 C-25.34223876 13.6271133 -23.70514204 11.99147773 -22.06555176 10.35780334 C-21.15322753 9.44141492 -20.2409033 8.52502649 -19.30093288 7.58086872 C-13.32771599 2.38729661 -7.89453746 0.02420519 0 0 Z M-53.05665588 94.45294189 C-53.91727764 95.38946287 -53.91727764 95.38946287 -54.7952857 96.34490347 C-67.84157306 110.56469904 -80.51067476 125.08712964 -92.63351345 140.10364437 C-93.35315305 140.99128758 -94.07279264 141.8789308 -94.8142395 142.79347229 C-95.43289666 143.56501302 -96.05155382 144.33655375 -96.68895817 145.13147449 C-98.49415588 147.14044189 -98.49415588 147.14044189 -100.72415066 148.78712749 C-101.30825238 149.23372125 -101.89235411 149.680315 -102.49415588 150.14044189 C-102.49415588 150.80044189 -102.49415588 151.46044189 -102.49415588 152.14044189 C-103.06984943 152.39109594 -103.64554298 152.64174999 -104.23868179 152.89999962 C-106.80296441 154.31027721 -108.51528759 155.91559776 -110.58174133 157.98751831 C-111.38658463 158.78961227 -112.19142792 159.59170624 -113.0206604 160.41810608 C-113.89459946 161.29923569 -114.76853851 162.1803653 -115.66896057 163.0881958 C-116.59613388 164.01507706 -117.52330719 164.94195831 -118.47857666 165.89692688 C-121.01788046 168.43565706 -123.55097224 170.98050471 -126.08299541 173.52649355 C-128.73130026 176.18730416 -131.38527309 178.84244897 -134.03865051 181.49819946 C-139.06097921 186.52674337 -144.07818804 191.56036361 -149.09357858 196.59582651 C-154.80424373 202.32884935 -160.52059156 208.05619159 -166.23742437 213.78306317 C-177.99600402 225.56254575 -189.74742484 237.34914338 -201.49415588 249.14044189 C-199.94582776 252.83039024 -197.70617806 255.175069 -194.88780212 257.98730469 C-194.41648475 258.46033091 -193.94516738 258.93335713 -193.45956767 259.42071748 C-191.88124591 261.00232985 -190.29588911 262.57669419 -188.71046448 264.15118408 C-187.57674938 265.28433498 -186.44347461 266.41792658 -185.31060791 267.55192566 C-182.23470846 270.62839925 -179.15267867 273.69866463 -176.06952238 276.76786327 C-172.84817139 279.97671728 -169.63247799 283.19123062 -166.41618347 286.40515137 C-160.32516109 292.48995596 -154.2290581 298.56964405 -148.13111937 304.64751649 C-141.18893316 311.56735304 -134.25242071 318.49286506 -127.31638217 325.41886282 C-113.04861687 339.66571934 -98.7737312 353.90542318 -84.49415588 368.14044189 C-83.77081967 367.41682811 -83.04748346 366.69321432 -82.30222797 365.94767284 C-79.72514169 363.37135851 -77.14570842 360.79743449 -74.56500244 358.2247467 C-73.58915129 357.25182672 -72.61330626 356.27890058 -71.63746643 355.30596924 C-71.12262192 354.79267563 -70.6077774 354.27938202 -70.07733154 353.75053406 C-58.2107136 341.91933116 -46.34986793 330.08235528 -34.49223614 318.24214649 C-27.63937423 311.39962496 -20.78462828 304.55901023 -13.92555237 297.72271729 C-7.93349193 291.75054943 -1.94491903 285.77491053 4.0394389 279.7950241 C7.20584023 276.63123473 10.3739914 273.46924262 13.54633522 270.3114109 C16.52438072 267.34688289 19.49776234 264.37775821 22.46754646 261.40495491 C23.56072265 260.31233128 24.65562808 259.22143477 25.75233841 258.13235855 C27.24339271 256.65118115 28.72823375 255.16404805 30.21160889 253.67518616 C31.04579 252.84284863 31.8799711 252.01051111 32.73943043 251.15295124 C34.7257309 249.33621434 34.7257309 249.33621434 34.50584412 247.14044189 C35.08334412 246.89294189 35.66084412 246.64544189 36.25584412 246.39044189 C38.83524391 244.95744201 40.56706004 243.35619513 42.50584412 241.14044189 C42.50584412 240.48044189 42.50584412 239.82044189 42.50584412 239.14044189 C43.49584412 238.81044189 44.48584412 238.48044189 45.50584412 238.14044189 C46.83005215 236.6792521 46.83005215 236.6792521 48.17991638 234.84039307 C51.65091985 230.7484466 55.51582002 227.7182984 59.81809998 224.5713501 C104.21186771 192.17460004 104.21186771 192.17460004 126.83787537 144.32989502 C128.82412949 128.33298886 128.67671636 112.27661495 127.94334412 96.20294189 C127.9135111 95.53380909 127.88367808 94.86467629 127.85294104 94.17526674 C127.06057495 76.76429397 125.59133581 59.44360886 123.50584412 42.14044189 C106.28607105 38.8831261 89.05342378 36.77546213 71.56834412 35.57794189 C70.26799854 35.48850185 68.96765297 35.39906181 67.62790298 35.30691147 C12.62927083 31.98012463 -16.99821328 55.1368064 -53.05665588 94.45294189 Z " fill="#000000" transform="translate(293.49415588378906,40.85955810546875)"/>
<path d="M0 0 C7.55797206 4.68012885 11.23600302 9.87207156 14.03125 18.2578125 C14.94856635 26.45350777 13.41435105 33.56454499 8.55859375 40.30078125 C3.35229986 46.07324421 -2.71644072 48.74030988 -10.37109375 49.671875 C-19.26282966 50.03874358 -26.0286949 48.57904966 -32.80859375 42.6484375 C-39.23911063 35.79341218 -40.56833276 28.60629884 -40.3125 19.375 C-39.54492065 12.41445085 -36.07075048 7.50186603 -31.00390625 2.80078125 C-22.00643492 -4.02071813 -10.05143647 -5.20780948 0 0 Z " fill="#000303" transform="translate(356.96875,132.7421875)"/>
<path d="M0 0 C2.07332802 -0.36914349 2.07332802 -0.36914349 4.68228149 -0.36076355 C5.66743052 -0.36489604 6.65257954 -0.36902853 7.66758156 -0.37328625 C8.75648375 -0.36249192 9.84538593 -0.3516976 10.96728516 -0.34057617 C12.70723535 -0.34111858 12.70723535 -0.34111858 14.48233604 -0.34167194 C18.25141812 -0.33942592 22.02005965 -0.3165483 25.7890625 -0.29296875 C28.110268 -0.28856005 30.43147647 -0.28549819 32.75268555 -0.28381348 C41.37683573 -0.26805992 50.00092215 -0.22617658 58.625 -0.1875 C77.88875 -0.125625 97.1525 -0.06375 117 0 C117 38.61 117 77.22 117 117 C116.01 117.495 116.01 117.495 115 118 C115 79.72 115 41.44 115 2 C76.39 2.33 37.78 2.66 -2 3 C-1.34 2.01 -0.68 1.02 0 0 Z " fill="#35868F" transform="translate(300,83)"/>
<path d="M0 0 C0.33 0.66 0.66 1.32 1 2 C-1.88972902 7.62736704 -5.28201067 12.14100534 -11 15 C-12.32748271 15.35591928 -13.66025564 15.69344832 -15 16 C-10.30233025 10.33870569 -5.25276628 5.14771096 0 0 Z " fill="#379AAD" transform="translate(126,256)"/>
<path d="M0 0 C0.73798828 -0.01224609 1.47597656 -0.02449219 2.23632812 -0.03710938 C6.74076622 -0.04912121 10.31874263 0.48596178 14.5625 2.1875 C14.5625 2.8475 14.5625 3.5075 14.5625 4.1875 C13.49 3.8575 12.4175 3.5275 11.3125 3.1875 C2.40382089 0.99580726 -6.01891929 1.61598091 -14.4375 5.1875 C-14.1075 3.8675 -13.7775 2.5475 -13.4375 1.1875 C-8.96938281 0.0815304 -4.57565758 0.00397538 0 0 Z " fill="#3A9AA9" transform="translate(343.4375,128.8125)"/>
<path d="M0 0 C0.33 0.66 0.66 1.32 1 2 C0.24203125 2.92232422 0.24203125 2.92232422 -0.53125 3.86328125 C-1.50578125 5.07564453 -1.50578125 5.07564453 -2.5 6.3125 C-3.1496875 7.11300781 -3.799375 7.91351563 -4.46875 8.73828125 C-6.28031338 10.95881463 -6.28031338 10.95881463 -6 14 C-8.97 13.505 -8.97 13.505 -12 13 C-8.19524578 8.43969176 -4.25030379 4.14910608 0 0 Z " fill="#061E24" transform="translate(358,258)"/>
<path d="M0 0 C0.99 0.33 1.98 0.66 3 1 C1.61714856 2.49131037 0.21814261 3.96765185 -1.1875 5.4375 C-1.96480469 6.26121094 -2.74210938 7.08492187 -3.54296875 7.93359375 C-6.1461801 10.12294002 -7.66227956 10.67393495 -11 11 C-10.34 10.01 -9.68 9.02 -9 8 C-8.34 8 -7.68 8 -7 8 C-6.773125 7.4225 -6.54625 6.845 -6.3125 6.25 C-4.63315609 3.37112473 -2.77209171 1.82552381 0 0 Z " fill="#3394A6" transform="translate(198,185)"/>
<path d="M0 0 C0.66 0.33 1.32 0.66 2 1 C0.91529069 3.16941862 -0.25919124 4.32614543 -2 6 C-2.7115625 6.804375 -2.7115625 6.804375 -3.4375 7.625 C-5.26450881 9.23276776 -6.65487825 9.48956282 -9 10 C-8.06409496 8.8944811 -7.12620142 7.79064547 -6.1875 6.6875 C-5.66542969 6.07261719 -5.14335937 5.45773437 -4.60546875 4.82421875 C-3.12827531 3.14575321 -1.59960869 1.56117966 0 0 Z " fill="#010F10" transform="translate(285,332)"/>
<path d="M0 0 C0.66 0.66 1.32 1.32 2 2 C-0.31 4.31 -2.62 6.62 -5 9 C-5.99 8.67 -6.98 8.34 -8 8 C-5.36 5.36 -2.72 2.72 0 0 Z " fill="#000A0E" transform="translate(414,202)"/>
<path d="M0 0 C0.33 0.99 0.66 1.98 1 3 C-3.455 6.96 -3.455 6.96 -8 11 C-8.66 10.67 -9.32 10.34 -10 10 C-6.7 6.7 -3.4 3.4 0 0 Z " fill="#3799A4" transform="translate(282,101)"/>
<path d="M0 0 C0.99 0.99 1.98 1.98 3 3 C0.03 5.475 0.03 5.475 -3 8 C-3.36923077 3.44615385 -3.36923077 3.44615385 -1.5 1.1875 C-1.005 0.795625 -0.51 0.40375 0 0 Z " fill="#35A1B4" transform="translate(403,208)"/>
<path d="M0 0 C0 3 0 3 -1.375 4.4375 C-1.91125 4.953125 -2.4475 5.46875 -3 6 C-4.17574711 8.09989652 -4.17574711 8.09989652 -5 10 C-6.32 9.67 -7.64 9.34 -9 9 C-6.03 6.03 -3.06 3.06 0 0 Z " fill="#3CA0B3" transform="translate(208,175)"/>
<path d="M0 0 C1.65 0 3.3 0 5 0 C5 2.31 5 4.62 5 7 C3.02 5.35 1.04 3.7 -1 2 C-0.67 1.34 -0.34 0.68 0 0 Z " fill="#329FA9" transform="translate(107,304)"/>
<path d="M0 0 C0.99 0 1.98 0 3 0 C1.50902342 3.7952131 -0.75700849 5.61042731 -4 8 C-3.67 6.35 -3.34 4.7 -3 3 C-2.01 3 -1.02 3 0 3 C0 2.01 0 1.02 0 0 Z " fill="#328C9F" transform="translate(333,280)"/>
<path d="M0 0 C0 3.16880694 -0.2058242 4.43689172 -2 7 C-4.625 7.75 -4.625 7.75 -7 8 C-6.02133662 6.85373678 -5.04205413 5.70800212 -4.0625 4.5625 C-3.51722656 3.92441406 -2.97195312 3.28632813 -2.41015625 2.62890625 C-1.63204305 1.73008851 -0.84063472 0.84063472 0 0 Z " fill="#389AAB" transform="translate(110,272)"/>
<path d="M0 0 C0.33 0.99 0.66 1.98 1 3 C0.01 3.33 -0.98 3.66 -2 4 C-2.73323796 6.01508358 -2.73323796 6.01508358 -3 8 C-4.32 7.67 -5.64 7.34 -7 7 C-4.69 4.69 -2.38 2.38 0 0 Z " fill="#3593A0" transform="translate(152,230)"/>
<path d="M0 0 C0.33 0.99 0.66 1.98 1 3 C0.01 3.33 -0.98 3.66 -2 4 C-2.73323796 6.01508358 -2.73323796 6.01508358 -3 8 C-4.32 7.67 -5.64 7.34 -7 7 C-4.69 4.69 -2.38 2.38 0 0 Z " fill="#378F9D" transform="translate(160,222)"/>
<path d="M0 0 C-2.97 2.475 -2.97 2.475 -6 5 C-6.66 4.34 -7.32 3.68 -8 3 C-7.34 3 -6.68 3 -6 3 C-6 2.01 -6 1.02 -6 0 C-3.50907189 -1.24546405 -2.58919267 -0.7767578 0 0 Z " fill="#3597AB" transform="translate(296,322)"/>
<path d="M0 0 C0 3 0 3 -2.3125 5.6875 C-5 8 -5 8 -8 8 C-5.36 5.36 -2.72 2.72 0 0 Z " fill="#3496A1" transform="translate(291,92)"/>
<path d="M0 0 C1.32 0.33 2.64 0.66 4 1 C0.535 3.97 0.535 3.97 -3 7 C-3 6.01 -3 5.02 -3 4 C-2.34 4 -1.68 4 -1 4 C-0.67 2.68 -0.34 1.36 0 0 Z " fill="#308A9E" transform="translate(324,289)"/>
<path d="M0 0 C0 3 0 3 -1 6 C-3.0625 7.6875 -3.0625 7.6875 -5 9 C-5 5 -5 5 -2.5 2.25 C-1.675 1.5075 -0.85 0.765 0 0 Z " fill="#072729" transform="translate(345,271)"/>
<path d="M0 0 C0.33 0.99 0.66 1.98 1 3 C-0.41488448 5.76239351 -1.80363095 7.80363095 -4 10 C-4 9.34 -4 8.68 -4 8 C-4.66 7.67 -5.32 7.34 -6 7 C-4.02 4.69 -2.04 2.38 0 0 Z " fill="#3893A4" transform="translate(367,169)"/>
<path d="M0 0 C0.99 0.33 1.98 0.66 3 1 C-0.465 3.97 -0.465 3.97 -4 7 C-4 5.68 -4 4.36 -4 3 C-3.01 3 -2.02 3 -1 3 C-0.67 2.01 -0.34 1.02 0 0 Z " fill="#3DA1AF" transform="translate(221,393)"/>
<path d="M0 0 C0 3.20395416 -0.74335022 5.09399739 -2 8 C-3.32 7.34 -4.64 6.68 -6 6 C-4.02 4.02 -2.04 2.04 0 0 Z " fill="#308895" transform="translate(182,200)"/>
</svg>
